<ttFont>
    <TTGlyph name=".ttfautohint" xMin="0" yMin="0" xMax="0" yMax="0">
      <contour>
        <pt x="0" y="0" on="1"/>
      </contour>
    </TTGlyph>
    <TTGlyph name="A" xMin="-5" yMin="0" xMax="540" yMax="715">
      <contour>
        <pt x="335" y="205" on="1"/>
        <pt x="130" y="205" on="1"/>
        <pt x="80" y="35" on="1"/>
        <pt x="145" y="10" on="1"/>
        <pt x="145" y="0" on="1"/>
        <pt x="-5" y="0" on="1"/>
        <pt x="-5" y="10" on="1"/>
        <pt x="60" y="35" on="1"/>
        <pt x="255" y="715" on="1"/>
        <pt x="270" y="715" on="1"/>
        <pt x="480" y="25" on="1"/>
        <pt x="540" y="10" on="1"/>
        <pt x="540" y="0" on="1"/>
        <pt x="330" y="0" on="1"/>
        <pt x="330" y="10" on="1"/>
        <pt x="390" y="25" on="1"/>
      </contour>
      <contour>
        <pt x="135" y="224" on="1"/>
        <pt x="329" y="224" on="1"/>
        <pt x="229" y="555" on="1"/>
      </contour>
    </TTGlyph>
    <TTGlyph name="AE" xMin="-30" yMin="0" xMax="720" yMax="700">
      <contour>
        <pt x="710" y="700" on="1"/>
        <pt x="708" y="691" on="0"/>
        <pt x="707" y="679" on="1"/>
        <pt x="706" y="668" on="0"/>
        <pt x="705" y="639" on="0"/>
        <pt x="705" y="620" on="1"/>
        <pt x="705" y="606" on="0"/>
        <pt x="706" y="579" on="0"/>
        <pt x="707" y="567" on="1"/>
        <pt x="708" y="553" on="0"/>
        <pt x="710" y="540" on="1"/>
        <pt x="700" y="540" on="1"/>
        <pt x="674" y="566" on="0"/>
        <pt x="640" y="638" on="0"/>
        <pt x="640" y="680" on="1"/>
        <pt x="450" y="680" on="1"/>
        <pt x="450" y="380" on="1"/>
        <pt x="545" y="380" on="1"/>
        <pt x="590" y="470" on="1"/>
        <pt x="600" y="470" on="1"/>
        <pt x="600" y="270" on="1"/>
        <pt x="590" y="270" on="1"/>
        <pt x="545" y="360" on="1"/>
        <pt x="450" y="360" on="1"/>
        <pt x="450" y="20" on="1"/>
        <pt x="650" y="20" on="1"/>
        <pt x="650" y="62" on="0"/>
        <pt x="684" y="134" on="0"/>
        <pt x="710" y="160" on="1"/>
        <pt x="720" y="160" on="1"/>
        <pt x="718" y="147" on="0"/>
        <pt x="717" y="133" on="1"/>
        <pt x="716" y="121" on="0"/>
        <pt x="715" y="93" on="0"/>
        <pt x="715" y="80" on="1"/>
        <pt x="715" y="61" on="0"/>
        <pt x="716" y="32" on="0"/>
        <pt x="717" y="21" on="1"/>
        <pt x="718" y="9" on="0"/>
        <pt x="720" y="0" on="1"/>
        <pt x="305" y="0" on="1"/>
        <pt x="305" y="10" on="1"/>
        <pt x="365" y="25" on="1"/>
        <pt x="365" y="250" on="1"/>
        <pt x="155" y="250" on="1"/>
        <pt x="55" y="35" on="1"/>
        <pt x="120" y="10" on="1"/>
        <pt x="120" y="0" on="1"/>
        <pt x="-30" y="0" on="1"/>
        <pt x="-30" y="10" on="1"/>
        <pt x="35" y="35" on="1"/>
        <pt x="345" y="700" on="1"/>
      </contour>
      <contour>
        <pt x="356" y="680" on="1"/>
        <pt x="164" y="270" on="1"/>
        <pt x="365" y="270" on="1"/>
        <pt x="365" y="680" on="1"/>
      </contour>
    </TTGlyph>
    <TTGlyph name="Aacute" xMin="-5" yMin="0" xMax="540" yMax="870">
      <component glyphName=".ttfautohint" x="0" y="0" flags="0x0"/>
      <component glyphName="A" x="0" y="0" flags="0x204"/>
      <component glyphName="acute" x="240" y="170" flags="0x4"/>
    </TTGlyph>
    <TTGlyph name="Abreve" xMin="-5" yMin="0" xMax="540" yMax="855">
      <component glyphName=".ttfautohint" x="0" y="0" flags="0x0"/>
      <component glyphName="A" x="0" y="0" flags="0x204"/>
      <component glyphName="breve" x="145" y="155" flags="0x4"/>
    </TTGlyph>
    <TTGlyph name="Acircumflex" xMin="-5" yMin="0" xMax="540" yMax="880">
      <component glyphName=".ttfautohint" x="0" y="0" flags="0x0"/>
      <component glyphName="A" x="0" y="0" flags="0x204"/>
      <component glyphName="circumflex" x="136" y="180" flags="0x4"/>
    </TTGlyph>
    <TTGlyph name="Adieresis" xMin="-5" yMin="0" xMax="540" yMax="845">
      <component glyphName=".ttfautohint" x="0" y="0" flags="0x0"/>
      <component glyphName="A" x="0" y="0" flags="0x204"/>
      <component glyphName="dieresis" x="120" y="145" flags="0x4"/>
    </TTGlyph>
    <TTGlyph name="Agrave" xMin="-5" yMin="0" xMax="540" yMax="870">
      <component glyphName=".ttfautohint" x="0" y="0" flags="0x0"/>
      <component glyphName="A" x="0" y="0" flags="0x204"/>
      <component glyphName="grave" x="147" y="170" flags="0x4"/>
    </TTGlyph>
    <TTGlyph name="Amacron" xMin="-5" yMin="0" xMax="540" yMax="815">
      <component glyphName=".ttfautohint" x="0" y="0" flags="0x0"/>
      <component glyphName="A" x="0" y="0" flags="0x204"/>
      <component glyphName="macron" x="147" y="105" flags="0x4"/>
    </TTGlyph>
    <TTGlyph name="Aogonek" xMin="-5" yMin="-140" xMax="540" yMax="715">
      <component glyphName=".ttfautohint" x="0" y="0" flags="0x0"/>
      <component glyphName="A" x="0" y="0" flags="0x204"/>
      <component glyphName="ogonek" x="385" y="0" flags="0x4"/>
    </TTGlyph>
    <TTGlyph name="Aring" xMin="-5" yMin="0" xMax="540" yMax="840">
      <component glyphName=".ttfautohint" x="0" y="0" flags="0x0"/>
      <component glyphName="A" x="0" y="0" flags="0x204"/>
      <component glyphName="ring" x="177" y="140" flags="0x4"/>
    </TTGlyph>
    <TTGlyph name="Atilde" xMin="-5" yMin="0" xMax="540" yMax="865">
      <component glyphName=".ttfautohint" x="0" y="0" flags="0x0"/>
      <component glyphName="A" x="0" y="0" flags="0x204"/>
      <component glyphName="tilde" x="155" y="160" flags="0x4"/>
    </TTGlyph>
    <TTGlyph name="B" xMin="45" yMin="0" xMax="480" yMax="700">
      <contour>
        <pt x="45" y="0" on="1"/>
        <pt x="45" y="10" on="1"/>
        <pt x="105" y="25" on="1"/>
        <pt x="105" y="675" on="1"/>
        <pt x="45" y="690" on="1"/>
        <pt x="45" y="700" on="1"/>
        <pt x="225" y="700" on="1"/>
        <pt x="272" y="700" on="0"/>
        <pt x="341" y="679" on="0"/>
        <pt x="387" y="642" on="0"/>
        <pt x="410" y="593" on="0"/>
        <pt x="410" y="565" on="1"/>
        <pt x="410" y="543" on="0"/>
        <pt x="397" y="509" on="0"/>
        <pt x="376" y="484" on="0"/>
        <pt x="349" y="465" on="0"/>
        <pt x="335" y="459" on="1"/>
        <pt x="302" y="444" on="0"/>
        <pt x="260" y="440" on="1"/>
        <pt x="322" y="434" on="0"/>
        <pt x="370" y="409" on="1"/>
        <pt x="391" y="398" on="0"/>
        <pt x="430" y="367" on="0"/>
        <pt x="461" y="322" on="0"/>
        <pt x="480" y="263" on="0"/>
        <pt x="480" y="225" on="1"/>
        <pt x="480" y="178" on="0"/>
        <pt x="444" y="96" on="0"/>
        <pt x="377" y="35" on="0"/>
        <pt x="283" y="0" on="0"/>
        <pt x="225" y="0" on="1"/>
      </contour>
      <contour>
        <pt x="190" y="430" on="1"/>
        <pt x="190" y="20" on="1"/>
        <pt x="225" y="20" on="1"/>
        <pt x="259" y="20" on="0"/>
        <pt x="317" y="46" on="0"/>
        <pt x="360" y="98" on="0"/>
        <pt x="385" y="174" on="0"/>
        <pt x="385" y="225" on="1"/>
        <pt x="385" y="276" on="0"/>
        <pt x="360" y="352" on="0"/>
        <pt x="317" y="404" on="0"/>
        <pt x="259" y="430" on="0"/>
        <pt x="225" y="430" on="1"/>
      </contour>
      <contour>
        <pt x="190" y="450" on="1"/>
        <pt x="225" y="450" on="1"/>
        <pt x="270" y="451" on="0"/>
        <pt x="325" y="508" on="0"/>
        <pt x="325" y="565" on="1"/>
        <pt x="325" y="622" on="0"/>
        <pt x="270" y="680" on="0"/>
        <pt x="225" y="680" on="1"/>
        <pt x="190" y="680" on="1"/>
      </contour>
    </TTGlyph>
    <TTGlyph name="C" xMin="40" yMin="-15" xMax="470" yMax="715">
      <contour>
        <pt x="285" y="695" on="1"/>
        <pt x="257" y="695" on="0"/>
        <pt x="203" y="663" on="0"/>
        <pt x="161" y="584" on="0"/>
        <pt x="135" y="451" on="0"/>
        <pt x="135" y="350" on="1"/>
        <pt x="135" y="249" on="0"/>
        <pt x="161" y="116" on="0"/>
        <pt x="205" y="37" on="0"/>
        <pt x="263" y="5" on="0"/>
        <pt x="295" y="5" on="1"/>
        <pt x="321" y="5" on="0"/>
        <pt x="375" y="33" on="0"/>
        <pt x="420" y="83" on="0"/>
        <pt x="451" y="151" on="0"/>
        <pt x="455" y="190" on="1"/>
        <pt x="470" y="190" on="1"/>
        <pt x="466" y="145" on="0"/>
        <pt x="434" y="70" on="0"/>
        <pt x="385" y="15" on="0"/>
        <pt x="321" y="-15" on="0"/>
        <pt x="285" y="-15" on="1"/>
        <pt x="238" y="-15" on="0"/>
        <pt x="150" y="30" on="0"/>
        <pt x="81" y="121" on="0"/>
        <pt x="40" y="258" on="0"/>
        <pt x="40" y="350" on="1"/>
        <pt x="40" y="442" on="0"/>
        <pt x="81" y="579" on="0"/>
        <pt x="148" y="670" on="0"/>
        <pt x="232" y="715" on="0"/>
        <pt x="275" y="715" on="1"/>
        <pt x="299" y="715" on="0"/>
        <pt x="338" y="699" on="0"/>
        <pt x="352" y="689" on="1"/>
        <pt x="368" y="678" on="0"/>
        <pt x="380" y="664" on="1"/>
        <pt x="388" y="679" on="0"/>
        <pt x="415" y="706" on="0"/>
        <pt x="430" y="710" on="1"/>
        <pt x="445" y="710" on="1"/>
        <pt x="443" y="695" on="0"/>
        <pt x="442" y="680" on="1"/>
        <pt x="441" y="666" on="0"/>
        <pt x="440" y="635" on="0"/>
        <pt x="440" y="620" on="1"/>
        <pt x="440" y="603" on="0"/>
        <pt x="441" y="570" on="0"/>
        <pt x="442" y="556" on="1"/>
        <pt x="443" y="540" on="0"/>
        <pt x="445" y="525" on="1"/>
        <pt x="430" y="525" on="1"/>
        <pt x="407" y="608" on="0"/>
        <pt x="330" y="695" on="0"/>
      </contour>
    </TTGlyph>
    <TTGlyph name="Cacute" xMin="40" yMin="-15" xMax="470" yMax="875">
      <component glyphName=".ttfautohint" x="40" y="0" flags="0x0"/>
      <component glyphName="C" x="0" y="0" flags="0x204"/>
      <component glyphName="acute" x="230" y="175" flags="0x4"/>
    </TTGlyph>
    <TTGlyph name="Ccaron" xMin="40" yMin="-15" xMax="470" yMax="880">
      <component glyphName=".ttfautohint" x="40" y="0" flags="0x0"/>
      <component glyphName="C" x="0" y="0" flags="0x204"/>
      <component glyphName="caron" x="145" y="180" flags="0x4"/>
    </TTGlyph>
    <TTGlyph name="Ccedilla" xMin="40" yMin="-155" xMax="470" yMax="715">
      <component glyphName=".ttfautohint" x="40" y="0" flags="0x0"/>
      <component glyphName="C" x="0" y="0" flags="0x204"/>
      <component glyphName="cedilla" x="210" y="0" flags="0x4"/>
    </TTGlyph>
    <TTGlyph name="D" xMin="45" yMin="0" xMax="525" yMax="700">
      <contour>
        <pt x="220" y="700" on="1"/>
        <pt x="286" y="700" on="0"/>
        <pt x="397" y="652" on="0"/>
        <pt x="479" y="562" on="0"/>
        <pt x="525" y="432" on="0"/>
        <pt x="525" y="350" on="1"/>
        <pt x="525" y="267" on="0"/>
        <pt x="479" y="137" on="0"/>
        <pt x="397" y="47" on="0"/>
        <pt x="286" y="0" on="0"/>
        <pt x="220" y="0" on="1"/>
        <pt x="45" y="0" on="1"/>
        <pt x="45" y="10" on="1"/>
        <pt x="105" y="25" on="1"/>
        <pt x="105" y="675" on="1"/>
        <pt x="45" y="690" on="1"/>
        <pt x="45" y="700" on="1"/>
      </contour>
      <contour>
        <pt x="190" y="680" on="1"/>
        <pt x="190" y="20" on="1"/>
        <pt x="220" y="20" on="1"/>
        <pt x="263" y="20" on="0"/>
        <pt x="340" y="57" on="0"/>
        <pt x="397" y="137" on="0"/>
        <pt x="430" y="262" on="0"/>
        <pt x="430" y="350" on="1"/>
        <pt x="430" y="438" on="0"/>
        <pt x="397" y="563" on="0"/>
        <pt x="340" y="643" on="0"/>
        <pt x="263" y="680" on="0"/>
        <pt x="220" y="680" on="1"/>
      </contour>
    </TTGlyph>
    <TTGlyph name="Dcaron" xMin="45" yMin="0" xMax="525" yMax="879">
      <component glyphName=".ttfautohint" x="45" y="0" flags="0x0"/>
      <component glyphName="D" x="0" y="0" flags="0x204"/>
      <component glyphName="caron" x="125" y="179" flags="0x4"/>
    </TTGlyph>
    <TTGlyph name="Dcroat" xMin="45" yMin="0" xMax="525" yMax="700">
      <contour>
        <pt x="220" y="700" on="1"/>
        <pt x="286" y="700" on="0"/>
        <pt x="397" y="652" on="0"/>
        <pt x="479" y="562" on="0"/>
        <pt x="525" y="432" on="0"/>
        <pt x="525" y="350" on="1"/>
        <pt x="525" y="267" on="0"/>
        <pt x="479" y="137" on="0"/>
        <pt x="397" y="47" on="0"/>
        <pt x="286" y="0" on="0"/>
        <pt x="220" y="0" on="1"/>
        <pt x="45" y="0" on="1"/>
        <pt x="45" y="10" on="1"/>
        <pt x="105" y="25" on="1"/>
        <pt x="105" y="340" on="1"/>
        <pt x="45" y="340" on="1"/>
        <pt x="45" y="360" on="1"/>
        <pt x="105" y="360" on="1"/>
        <pt x="105" y="675" on="1"/>
        <pt x="45" y="690" on="1"/>
        <pt x="45" y="700" on="1"/>
      </contour>
      <contour>
        <pt x="190" y="20" on="1"/>
        <pt x="220" y="20" on="1"/>
        <pt x="263" y="20" on="0"/>
        <pt x="340" y="57" on="0"/>
        <pt x="397" y="137" on="0"/>
        <pt x="430" y="262" on="0"/>
        <pt x="430" y="350" on="1"/>
        <pt x="430" y="438" on="0"/>
        <pt x="397" y="563" on="0"/>
        <pt x="340" y="643" on="0"/>
        <pt x="263" y="680" on="0"/>
        <pt x="220" y="680" on="1"/>
        <pt x="190" y="680" on="1"/>
        <pt x="190" y="360" on="1"/>
        <pt x="330" y="360" on="1"/>
        <pt x="330" y="340" on="1"/>
        <pt x="190" y="340" on="1"/>
      </contour>
    </TTGlyph>
    <TTGlyph name="E" xMin="45" yMin="0" xMax="460" yMax="700">
      <contour>
        <pt x="390" y="20" on="1"/>
        <pt x="390" y="62" on="0"/>
        <pt x="424" y="134" on="0"/>
        <pt x="450" y="160" on="1"/>
        <pt x="460" y="160" on="1"/>
        <pt x="458" y="147" on="0"/>
        <pt x="457" y="133" on="1"/>
        <pt x="456" y="121" on="0"/>
        <pt x="455" y="93" on="0"/>
        <pt x="455" y="80" on="1"/>
        <pt x="455" y="61" on="0"/>
        <pt x="456" y="32" on="0"/>
        <pt x="457" y="21" on="1"/>
        <pt x="458" y="9" on="0"/>
        <pt x="460" y="0" on="1"/>
        <pt x="45" y="0" on="1"/>
        <pt x="45" y="10" on="1"/>
        <pt x="105" y="25" on="1"/>
        <pt x="105" y="675" on="1"/>
        <pt x="45" y="690" on="1"/>
        <pt x="45" y="700" on="1"/>
        <pt x="450" y="700" on="1"/>
        <pt x="448" y="691" on="0"/>
        <pt x="447" y="679" on="1"/>
        <pt x="446" y="668" on="0"/>
        <pt x="445" y="639" on="0"/>
        <pt x="445" y="620" on="1"/>
        <pt x="445" y="606" on="0"/>
        <pt x="446" y="579" on="0"/>
        <pt x="447" y="567" on="1"/>
        <pt x="448" y="553" on="0"/>
        <pt x="450" y="540" on="1"/>
        <pt x="440" y="540" on="1"/>
        <pt x="414" y="566" on="0"/>
        <pt x="380" y="638" on="0"/>
        <pt x="380" y="680" on="1"/>
        <pt x="190" y="680" on="1"/>
        <pt x="190" y="380" on="1"/>
        <pt x="285" y="380" on="1"/>
        <pt x="330" y="470" on="1"/>
        <pt x="340" y="470" on="1"/>
        <pt x="340" y="270" on="1"/>
        <pt x="330" y="270" on="1"/>
        <pt x="285" y="360" on="1"/>
        <pt x="190" y="360" on="1"/>
        <pt x="190" y="20" on="1"/>
      </contour>
    </TTGlyph>
    <TTGlyph name="Eacute" xMin="45" yMin="0" xMax="460" yMax="870">
      <component glyphName=".ttfautohint" x="45" y="0" flags="0x0"/>
      <component glyphName="E" x="0" y="0" flags="0x204"/>
      <component glyphName="acute" x="237" y="170" flags="0x4"/>
    </TTGlyph>
    <TTGlyph name="Ecaron" xMin="45" yMin="0" xMax="460" yMax="880">
      <component glyphName=".ttfautohint" x="45" y="0" flags="0x0"/>
      <component glyphName="E" x="0" y="0" flags="0x204"/>
      <component glyphName="caron" x="150" y="180" flags="0x4"/>
    </TTGlyph>
    <TTGlyph name="Ecircumflex" xMin="45" yMin="0" xMax="460" yMax="886">
      <component glyphName=".ttfautohint" x="45" y="0" flags="0x0"/>
      <component glyphName="E" x="0" y="0" flags="0x204"/>
      <component glyphName="circumflex" x="149" y="186" flags="0x4"/>
    </TTGlyph>
    <TTGlyph name="Edieresis" xMin="45" yMin="0" xMax="460" yMax="860">
      <component glyphName=".ttfautohint" x="45" y="0" flags="0x0"/>
      <component glyphName="E" x="0" y="0" flags="0x204"/>
      <component glyphName="dieresis" x="130" y="160" flags="0x4"/>
    </TTGlyph>
    <TTGlyph name="Edotaccent" xMin="45" yMin="0" xMax="460" yMax="855">
      <component glyphName=".ttfautohint" x="45" y="0" flags="0x0"/>
      <component glyphName="E" x="0" y="0" flags="0x204"/>
      <component glyphName="dotaccent" x="222" y="155" flags="0x4"/>
    </TTGlyph>
    <TTGlyph name="Egrave" xMin="45" yMin="0" xMax="460" yMax="870">
      <component glyphName=".ttfautohint" x="45" y="0" flags="0x0"/>
      <component glyphName="E" x="0" y="0" flags="0x204"/>
      <component glyphName="grave" x="157" y="170" flags="0x4"/>
    </TTGlyph>
    <TTGlyph name="Emacron" xMin="45" yMin="0" xMax="460" yMax="825">
      <component glyphName=".ttfautohint" x="45" y="0" flags="0x0"/>
      <component glyphName="E" x="0" y="0" flags="0x204"/>
      <component glyphName="macron" x="157" y="115" flags="0x4"/>
    </TTGlyph>
    <TTGlyph name="Eogonek" xMin="45" yMin="-140" xMax="460" yMax="700">
      <component glyphName=".ttfautohint" x="45" y="0" flags="0x0"/>
      <component glyphName="E" x="0" y="0" flags="0x204"/>
      <component glyphName="ogonek" x="185" y="0" flags="0x4"/>
    </TTGlyph>
    <TTGlyph name="Eth" xMin="45" yMin="0" xMax="525" yMax="700">
      <contour>
        <pt x="220" y="700" on="1"/>
        <pt x="286" y="700" on="0"/>
        <pt x="397" y="652" on="0"/>
        <pt x="479" y="562" on="0"/>
        <pt x="525" y="432" on="0"/>
        <pt x="525" y="350" on="1"/>
        <pt x="525" y="267" on="0"/>
        <pt x="479" y="137" on="0"/>
        <pt x="397" y="47" on="0"/>
        <pt x="286" y="0" on="0"/>
        <pt x="220" y="0" on="1"/>
        <pt x="45" y="0" on="1"/>
        <pt x="45" y="10" on="1"/>
        <pt x="105" y="25" on="1"/>
        <pt x="105" y="340" on="1"/>
        <pt x="45" y="340" on="1"/>
        <pt x="45" y="360" on="1"/>
        <pt x="105" y="360" on="1"/>
        <pt x="105" y="675" on="1"/>
        <pt x="45" y="690" on="1"/>
        <pt x="45" y="700" on="1"/>
      </contour>
      <contour>
        <pt x="190" y="20" on="1"/>
        <pt x="220" y="20" on="1"/>
        <pt x="263" y="20" on="0"/>
        <pt x="340" y="57" on="0"/>
        <pt x="397" y="137" on="0"/>
        <pt x="430" y="262" on="0"/>
        <pt x="430" y="350" on="1"/>
        <pt x="430" y="438" on="0"/>
        <pt x="397" y="563" on="0"/>
        <pt x="340" y="643" on="0"/>
        <pt x="263" y="680" on="0"/>
        <pt x="220" y="680" on="1"/>
        <pt x="190" y="680" on="1"/>
        <pt x="190" y="360" on="1"/>
        <pt x="330" y="360" on="1"/>
        <pt x="330" y="340" on="1"/>
        <pt x="190" y="340" on="1"/>
      </contour>
    </TTGlyph>
    <TTGlyph name="Euro" xMin="0" yMin="-15" xMax="510" yMax="715">
      <contour>
        <pt x="15" y="400" on="1"/>
        <pt x="82" y="400" on="1"/>
        <pt x="88" y="479" on="0"/>
        <pt x="132" y="597" on="0"/>
        <pt x="196" y="676" on="0"/>
        <pt x="275" y="715" on="0"/>
        <pt x="315" y="715" on="1"/>
        <pt x="339" y="715" on="0"/>
        <pt x="378" y="699" on="0"/>
        <pt x="392" y="689" on="1"/>
        <pt x="408" y="678" on="0"/>
        <pt x="420" y="664" on="1"/>
        <pt x="428" y="679" on="0"/>
        <pt x="455" y="706" on="0"/>
        <pt x="470" y="710" on="1"/>
        <pt x="485" y="710" on="1"/>
        <pt x="483" y="695" on="0"/>
        <pt x="482" y="680" on="1"/>
        <pt x="481" y="666" on="0"/>
        <pt x="480" y="635" on="0"/>
        <pt x="480" y="620" on="1"/>
        <pt x="480" y="603" on="0"/>
        <pt x="481" y="570" on="0"/>
        <pt x="482" y="556" on="1"/>
        <pt x="483" y="540" on="0"/>
        <pt x="485" y="525" on="1"/>
        <pt x="470" y="525" on="1"/>
        <pt x="447" y="608" on="0"/>
        <pt x="370" y="695" on="0"/>
        <pt x="325" y="695" on="1"/>
        <pt x="299" y="695" on="0"/>
        <pt x="248" y="667" on="0"/>
        <pt x="207" y="600" on="0"/>
        <pt x="179" y="486" on="0"/>
        <pt x="176" y="400" on="1"/>
        <pt x="365" y="400" on="1"/>
        <pt x="361" y="380" on="1"/>
        <pt x="175" y="380" on="1"/>
        <pt x="175" y="320" on="1"/>
        <pt x="355" y="320" on="1"/>
        <pt x="351" y="300" on="1"/>
        <pt x="176" y="300" on="1"/>
        <pt x="179" y="214" on="0"/>
        <pt x="207" y="100" on="0"/>
        <pt x="250" y="32" on="0"/>
        <pt x="305" y="5" on="0"/>
        <pt x="335" y="5" on="1"/>
        <pt x="361" y="5" on="0"/>
        <pt x="415" y="33" on="0"/>
        <pt x="460" y="83" on="0"/>
        <pt x="491" y="151" on="0"/>
        <pt x="495" y="190" on="1"/>
        <pt x="510" y="190" on="1"/>
        <pt x="506" y="145" on="0"/>
        <pt x="474" y="70" on="0"/>
        <pt x="425" y="15" on="0"/>
        <pt x="361" y="-15" on="0"/>
        <pt x="325" y="-15" on="1"/>
        <pt x="281" y="-15" on="0"/>
        <pt x="199" y="24" on="0"/>
        <pt x="132" y="102" on="0"/>
        <pt x="88" y="220" on="0"/>
        <pt x="82" y="300" on="1"/>
        <pt x="0" y="300" on="1"/>
        <pt x="5" y="320" on="1"/>
        <pt x="80" y="320" on="1"/>
        <pt x="80" y="380" on="1"/>
        <pt x="10" y="380" on="1"/>
      </contour>
    </TTGlyph>
    <TTGlyph name="F" xMin="45" yMin="0" xMax="450" yMax="700">
      <contour>
        <pt x="190" y="360" on="1"/>
        <pt x="190" y="25" on="1"/>
        <pt x="250" y="10" on="1"/>
        <pt x="250" y="0" on="1"/>
        <pt x="45" y="0" on="1"/>
        <pt x="45" y="10" on="1"/>
        <pt x="105" y="25" on="1"/>
        <pt x="105" y="675" on="1"/>
        <pt x="45" y="690" on="1"/>
        <pt x="45" y="700" on="1"/>
        <pt x="450" y="700" on="1"/>
        <pt x="448" y="691" on="0"/>
        <pt x="447" y="679" on="1"/>
        <pt x="446" y="668" on="0"/>
        <pt x="445" y="639" on="0"/>
        <pt x="445" y="620" on="1"/>
        <pt x="445" y="606" on="0"/>
        <pt x="446" y="579" on="0"/>
        <pt x="447" y="567" on="1"/>
        <pt x="448" y="553" on="0"/>
        <pt x="450" y="540" on="1"/>
        <pt x="440" y="540" on="1"/>
        <pt x="414" y="566" on="0"/>
        <pt x="380" y="638" on="0"/>
        <pt x="380" y="680" on="1"/>
        <pt x="190" y="680" on="1"/>
        <pt x="190" y="380" on="1"/>
        <pt x="285" y="380" on="1"/>
        <pt x="330" y="470" on="1"/>
        <pt x="340" y="470" on="1"/>
        <pt x="340" y="270" on="1"/>
        <pt x="330" y="270" on="1"/>
        <pt x="285" y="360" on="1"/>
      </contour>
    </TTGlyph>
    <TTGlyph name="G" xMin="45" yMin="-15" xMax="480" yMax="715">
      <contour>
        <pt x="395" y="320" on="1"/>
        <pt x="295" y="320" on="1"/>
        <pt x="295" y="340" on="1"/>
        <pt x="480" y="340" on="1"/>
        <pt x="480" y="265" on="1"/>
        <pt x="480" y="197" on="0"/>
        <pt x="445" y="93" on="0"/>
        <pt x="388" y="22" on="0"/>
        <pt x="314" y="-15" on="0"/>
        <pt x="275" y="-15" on="1"/>
        <pt x="234" y="-15" on="0"/>
        <pt x="152" y="30" on="0"/>
        <pt x="86" y="121" on="0"/>
        <pt x="45" y="258" on="0"/>
        <pt x="45" y="350" on="1"/>
        <pt x="45" y="442" on="0"/>
        <pt x="86" y="579" on="0"/>
        <pt x="153" y="670" on="0"/>
        <pt x="237" y="715" on="0"/>
        <pt x="280" y="715" on="1"/>
        <pt x="304" y="715" on="0"/>
        <pt x="343" y="699" on="0"/>
        <pt x="357" y="690" on="1"/>
        <pt x="373" y="679" on="0"/>
        <pt x="385" y="665" on="1"/>
        <pt x="393" y="680" on="0"/>
        <pt x="420" y="706" on="0"/>
        <pt x="435" y="710" on="1"/>
        <pt x="450" y="710" on="1"/>
        <pt x="448" y="695" on="0"/>
        <pt x="447" y="680" on="1"/>
        <pt x="446" y="666" on="0"/>
        <pt x="445" y="635" on="0"/>
        <pt x="445" y="620" on="1"/>
        <pt x="445" y="603" on="0"/>
        <pt x="446" y="570" on="0"/>
        <pt x="447" y="556" on="1"/>
        <pt x="448" y="540" on="0"/>
        <pt x="450" y="525" on="1"/>
        <pt x="435" y="525" on="1"/>
        <pt x="412" y="608" on="0"/>
        <pt x="335" y="695" on="0"/>
        <pt x="290" y="695" on="1"/>
        <pt x="262" y="695" on="0"/>
        <pt x="208" y="663" on="0"/>
        <pt x="166" y="584" on="0"/>
        <pt x="140" y="451" on="0"/>
        <pt x="140" y="350" on="1"/>
        <pt x="140" y="247" on="0"/>
        <pt x="165" y="112" on="0"/>
        <pt x="205" y="32" on="0"/>
        <pt x="252" y="0" on="0"/>
        <pt x="275" y="0" on="1"/>
        <pt x="297" y="0" on="0"/>
        <pt x="341" y="25" on="0"/>
        <pt x="374" y="86" on="0"/>
        <pt x="395" y="188" on="0"/>
        <pt x="395" y="265" on="1"/>
      </contour>
    </TTGlyph>
    <TTGlyph name="Gbreve" xMin="45" yMin="-15" xMax="480" yMax="865">
      <component glyphName=".ttfautohint" x="45" y="0" flags="0x0"/>
      <component glyphName="G" x="0" y="0" flags="0x204"/>
      <component glyphName="breve" x="152" y="165" flags="0x4"/>
    </TTGlyph>
    <TTGlyph name="Gcommaaccent" xMin="45" yMin="-259" xMax="480" yMax="715">
      <component glyphName=".ttfautohint" x="45" y="0" flags="0x0"/>
      <component glyphName="G" x="0" y="0" flags="0x204"/>
      <component glyphName="commaaccent" x="222" y="-469" flags="0x4"/>
    </TTGlyph>
    <TTGlyph name="H" xMin="45" yMin="0" xMax="540" yMax="700">
      <contour>
        <pt x="190" y="360" on="1"/>
        <pt x="190" y="25" on="1"/>
        <pt x="250" y="10" on="1"/>
        <pt x="250" y="0" on="1"/>
        <pt x="45" y="0" on="1"/>
        <pt x="45" y="10" on="1"/>
        <pt x="105" y="25" on="1"/>
        <pt x="105" y="675" on="1"/>
        <pt x="45" y="690" on="1"/>
        <pt x="45" y="700" on="1"/>
        <pt x="250" y="700" on="1"/>
        <pt x="250" y="690" on="1"/>
        <pt x="190" y="675" on="1"/>
        <pt x="190" y="380" on="1"/>
        <pt x="395" y="380" on="1"/>
        <pt x="395" y="675" on="1"/>
        <pt x="335" y="690" on="1"/>
        <pt x="335" y="700" on="1"/>
        <pt x="540" y="700" on="1"/>
        <pt x="540" y="690" on="1"/>
        <pt x="480" y="675" on="1"/>
        <pt x="480" y="25" on="1"/>
        <pt x="540" y="10" on="1"/>
        <pt x="540" y="0" on="1"/>
        <pt x="335" y="0" on="1"/>
        <pt x="335" y="10" on="1"/>
        <pt x="395" y="25" on="1"/>
        <pt x="395" y="360" on="1"/>
      </contour>
    </TTGlyph>
    <TTGlyph name="I" xMin="45" yMin="0" xMax="250" yMax="700">
      <contour>
        <pt x="190" y="25" on="1"/>
        <pt x="250" y="10" on="1"/>
        <pt x="250" y="0" on="1"/>
        <pt x="45" y="0" on="1"/>
        <pt x="45" y="10" on="1"/>
        <pt x="105" y="25" on="1"/>
        <pt x="105" y="675" on="1"/>
        <pt x="45" y="690" on="1"/>
        <pt x="45" y="700" on="1"/>
        <pt x="250" y="700" on="1"/>
        <pt x="250" y="690" on="1"/>
        <pt x="190" y="675" on="1"/>
      </contour>
    </TTGlyph>
    <TTGlyph name="Iacute" xMin="45" yMin="0" xMax="262" yMax="870">
      <component glyphName=".ttfautohint" x="45" y="0" flags="0x0"/>
      <component glyphName="I" x="0" y="0" flags="0x204"/>
      <component glyphName="acute" x="122" y="170" flags="0x4"/>
    </TTGlyph>
    <TTGlyph name="Icircumflex" xMin="35" yMin="0" xMax="265" yMax="885">
      <component glyphName=".ttfautohint" x="35" y="0" flags="0x0"/>
      <component glyphName="I" x="0" y="0" flags="0x204"/>
      <component glyphName="circumflex" x="24" y="185" flags="0x4"/>
    </TTGlyph>
    <TTGlyph name="Idieresis" xMin="18" yMin="0" xMax="283" yMax="860">
      <component glyphName=".ttfautohint" x="18" y="0" flags="0x0"/>
      <component glyphName="I" x="0" y="0" flags="0x204"/>
      <component glyphName="dieresis" x="8" y="160" flags="0x4"/>
    </TTGlyph>
    <TTGlyph name="Idotaccent" xMin="45" yMin="0" xMax="250" yMax="860">
      <component glyphName=".ttfautohint" x="45" y="0" flags="0x0"/>
      <component glyphName="I" x="0" y="0" flags="0x204"/>
      <component glyphName="dotaccent" x="90" y="160" flags="0x4"/>
    </TTGlyph>
    <TTGlyph name="Igrave" xMin="42" yMin="0" xMax="250" yMax="870">
      <component glyphName=".ttfautohint" x="42" y="0" flags="0x0"/>
      <component glyphName="I" x="0" y="0" flags="0x204"/>
      <component glyphName="grave" x="32" y="170" flags="0x4"/>
    </TTGlyph>
    <TTGlyph name="Imacron" xMin="32" yMin="0" xMax="262" yMax="825">
      <component glyphName=".ttfautohint" x="32" y="0" flags="0x0"/>
      <component glyphName="I" x="0" y="0" flags="0x204"/>
      <component glyphName="macron" x="32" y="115" flags="0x4"/>
    </TTGlyph>
    <TTGlyph name="Iogonek" xMin="45" yMin="-140" xMax="250" yMax="700">
      <component glyphName=".ttfautohint" x="45" y="0" flags="0x0"/>
      <component glyphName="I" x="0" y="0" flags="0x204"/>
      <component glyphName="ogonek" x="65" y="0" flags="0x4"/>
    </TTGlyph>
    <TTGlyph name="Itilde" xMin="45" yMin="0" xMax="250" yMax="870">
      <component glyphName=".ttfautohint" x="45" y="0" flags="0x0"/>
      <component glyphName="I" x="0" y="0" flags="0x204"/>
      <component glyphName="tilde" x="35" y="165" flags="0x4"/>
    </TTGlyph>
    <TTGlyph name="J" xMin="15" yMin="-15" xMax="460" yMax="700">
      <contour>
        <pt x="400" y="190" on="1"/>
        <pt x="400" y="143" on="0"/>
        <pt x="371" y="67" on="0"/>
        <pt x="318" y="14" on="0"/>
        <pt x="242" y="-15" on="0"/>
        <pt x="195" y="-15" on="1"/>
        <pt x="157" y="-15" on="0"/>
        <pt x="92" y="13" on="0"/>
        <pt x="43" y="59" on="0"/>
        <pt x="15" y="118" on="0"/>
        <pt x="15" y="150" on="1"/>
        <pt x="15" y="207" on="0"/>
        <pt x="62" y="263" on="0"/>
        <pt x="95" y="270" on="1"/>
        <pt x="165" y="210" on="1"/>
        <pt x="65" y="195" on="0"/>
        <pt x="65" y="105" on="1"/>
        <pt x="65" y="86" on="0"/>
        <pt x="83" y="50" on="0"/>
        <pt x="117" y="22" on="0"/>
        <pt x="165" y="5" on="0"/>
        <pt x="195" y="5" on="1"/>
        <pt x="219" y="5" on="0"/>
        <pt x="263" y="26" on="0"/>
        <pt x="296" y="71" on="0"/>
        <pt x="315" y="141" on="0"/>
        <pt x="315" y="190" on="1"/>
        <pt x="315" y="675" on="1"/>
        <pt x="255" y="690" on="1"/>
        <pt x="255" y="700" on="1"/>
        <pt x="460" y="700" on="1"/>
        <pt x="460" y="690" on="1"/>
        <pt x="400" y="675" on="1"/>
      </contour>
    </TTGlyph>
    <TTGlyph name="Jcircumflex" xMin="15" yMin="-15" xMax="470" yMax="885">
      <component glyphName=".ttfautohint" x="15" y="0" flags="0x0"/>
      <component glyphName="J" x="0" y="0" flags="0x204"/>
      <component glyphName="circumflex" x="229" y="185" flags="0x4"/>
    </TTGlyph>
    <TTGlyph name="K" xMin="45" yMin="0" xMax="560" yMax="700">
      <contour>
        <pt x="190" y="260" on="1"/>
        <pt x="190" y="25" on="1"/>
        <pt x="250" y="10" on="1"/>
        <pt x="250" y="0" on="1"/>
        <pt x="45" y="0" on="1"/>
        <pt x="45" y="10" on="1"/>
        <pt x="105" y="25" on="1"/>
        <pt x="105" y="675" on="1"/>
        <pt x="45" y="690" on="1"/>
        <pt x="45" y="700" on="1"/>
        <pt x="250" y="700" on="1"/>
        <pt x="250" y="690" on="1"/>
        <pt x="190" y="675" on="1"/>
        <pt x="190" y="295" on="1"/>
        <pt x="405" y="665" on="1"/>
        <pt x="340" y="690" on="1"/>
        <pt x="340" y="700" on="1"/>
        <pt x="490" y="700" on="1"/>
        <pt x="490" y="690" on="1"/>
        <pt x="425" y="665" on="1"/>
        <pt x="299" y="448" on="1"/>
        <pt x="500" y="25" on="1"/>
        <pt x="560" y="10" on="1"/>
        <pt x="560" y="0" on="1"/>
        <pt x="345" y="0" on="1"/>
        <pt x="345" y="10" on="1"/>
        <pt x="405" y="25" on="1"/>
        <pt x="247" y="358" on="1"/>
      </contour>
    </TTGlyph>
    <TTGlyph name="Kcommaaccent" xMin="45" yMin="-229" xMax="560" yMax="700">
      <component glyphName=".ttfautohint" x="45" y="0" flags="0x0"/>
      <component glyphName="K" x="0" y="0" flags="0x204"/>
      <component glyphName="commaaccent" x="230" y="-439" flags="0x4"/>
    </TTGlyph>
    <TTGlyph name="L" xMin="45" yMin="0" xMax="440" yMax="700">
      <contour>
        <pt x="190" y="20" on="1"/>
        <pt x="370" y="20" on="1"/>
        <pt x="370" y="62" on="0"/>
        <pt x="404" y="134" on="0"/>
        <pt x="430" y="160" on="1"/>
        <pt x="440" y="160" on="1"/>
        <pt x="438" y="147" on="0"/>
        <pt x="437" y="133" on="1"/>
        <pt x="436" y="121" on="0"/>
        <pt x="435" y="93" on="0"/>
        <pt x="435" y="80" on="1"/>
        <pt x="435" y="61" on="0"/>
        <pt x="436" y="32" on="0"/>
        <pt x="437" y="21" on="1"/>
        <pt x="438" y="9" on="0"/>
        <pt x="440" y="0" on="1"/>
        <pt x="45" y="0" on="1"/>
        <pt x="45" y="10" on="1"/>
        <pt x="105" y="25" on="1"/>
        <pt x="105" y="675" on="1"/>
        <pt x="45" y="690" on="1"/>
        <pt x="45" y="700" on="1"/>
        <pt x="250" y="700" on="1"/>
        <pt x="250" y="690" on="1"/>
        <pt x="190" y="675" on="1"/>
      </contour>
    </TTGlyph>
    <TTGlyph name="Lacute" xMin="45" yMin="0" xMax="440" yMax="870">
      <component glyphName=".ttfautohint" x="45" y="0" flags="0x0"/>
      <component glyphName="L" x="0" y="0" flags="0x204"/>
      <component glyphName="acute" x="125" y="170" flags="0x4"/>
    </TTGlyph>
    <TTGlyph name="Lcaron" xMin="45" yMin="0" xMax="440" yMax="700">
      <component glyphName=".ttfautohint" x="45" y="0" flags="0x0"/>
      <component glyphName="L" x="0" y="0" flags="0x204"/>
      <component glyphName="commaaccent" x="285" y="300" flags="0x4"/>
    </TTGlyph>
    <TTGlyph name="Lcommaaccent" xMin="45" yMin="-249" xMax="440" yMax="700">
      <component glyphName=".ttfautohint" x="45" y="0" flags="0x0"/>
      <component glyphName="L" x="0" y="0" flags="0x204"/>
      <component glyphName="commaaccent" x="205" y="-459" flags="0x4"/>
    </TTGlyph>
    <TTGlyph name="Lslash" xMin="45" yMin="0" xMax="440" yMax="700">
      <contour>
        <pt x="105" y="340" on="1"/>
        <pt x="105" y="675" on="1"/>
        <pt x="45" y="690" on="1"/>
        <pt x="45" y="700" on="1"/>
        <pt x="250" y="700" on="1"/>
        <pt x="250" y="690" on="1"/>
        <pt x="190" y="675" on="1"/>
        <pt x="190" y="438" on="1"/>
        <pt x="260" y="520" on="1"/>
        <pt x="260" y="480" on="1"/>
        <pt x="190" y="398" on="1"/>
        <pt x="190" y="20" on="1"/>
        <pt x="370" y="20" on="1"/>
        <pt x="370" y="62" on="0"/>
        <pt x="404" y="134" on="0"/>
        <pt x="430" y="160" on="1"/>
        <pt x="440" y="160" on="1"/>
        <pt x="438" y="147" on="0"/>
        <pt x="437" y="133" on="1"/>
        <pt x="436" y="121" on="0"/>
        <pt x="435" y="93" on="0"/>
        <pt x="435" y="80" on="1"/>
        <pt x="435" y="61" on="0"/>
        <pt x="436" y="32" on="0"/>
        <pt x="437" y="21" on="1"/>
        <pt x="438" y="9" on="0"/>
        <pt x="440" y="0" on="1"/>
        <pt x="45" y="0" on="1"/>
        <pt x="45" y="10" on="1"/>
        <pt x="105" y="25" on="1"/>
        <pt x="105" y="300" on="1"/>
        <pt x="45" y="230" on="1"/>
        <pt x="45" y="270" on="1"/>
      </contour>
    </TTGlyph>
    <TTGlyph name="M" xMin="40" yMin="-15" xMax="740" yMax="700">
      <contour>
        <pt x="600" y="700" on="1"/>
        <pt x="740" y="700" on="1"/>
        <pt x="740" y="690" on="1"/>
        <pt x="680" y="675" on="1"/>
        <pt x="680" y="25" on="1"/>
        <pt x="740" y="10" on="1"/>
        <pt x="740" y="0" on="1"/>
        <pt x="535" y="0" on="1"/>
        <pt x="535" y="10" on="1"/>
        <pt x="595" y="25" on="1"/>
        <pt x="595" y="615" on="1"/>
        <pt x="380" y="-15" on="1"/>
        <pt x="365" y="-15" on="1"/>
        <pt x="125" y="615" on="1"/>
        <pt x="125" y="35" on="1"/>
        <pt x="190" y="10" on="1"/>
        <pt x="190" y="0" on="1"/>
        <pt x="40" y="0" on="1"/>
        <pt x="40" y="10" on="1"/>
        <pt x="105" y="35" on="1"/>
        <pt x="105" y="670" on="1"/>
        <pt x="40" y="690" on="1"/>
        <pt x="40" y="700" on="1"/>
        <pt x="185" y="700" on="1"/>
        <pt x="404" y="125" on="1"/>
      </contour>
    </TTGlyph>
    <TTGlyph name="N" xMin="40" yMin="-10" xMax="545" yMax="700">
      <contour>
        <pt x="460" y="665" on="1"/>
        <pt x="395" y="690" on="1"/>
        <pt x="395" y="700" on="1"/>
        <pt x="545" y="700" on="1"/>
        <pt x="545" y="690" on="1"/>
        <pt x="480" y="665" on="1"/>
        <pt x="480" y="-10" on="1"/>
        <pt x="465" y="-10" on="1"/>
        <pt x="125" y="615" on="1"/>
        <pt x="125" y="35" on="1"/>
        <pt x="190" y="10" on="1"/>
        <pt x="190" y="0" on="1"/>
        <pt x="40" y="0" on="1"/>
        <pt x="40" y="10" on="1"/>
        <pt x="105" y="35" on="1"/>
        <pt x="105" y="670" on="1"/>
        <pt x="40" y="690" on="1"/>
        <pt x="40" y="700" on="1"/>
        <pt x="175" y="700" on="1"/>
        <pt x="460" y="175" on="1"/>
      </contour>
    </TTGlyph>
    <TTGlyph name="Nacute" xMin="40" yMin="-10" xMax="545" yMax="870">
      <component glyphName=".ttfautohint" x="40" y="0" flags="0x0"/>
      <component glyphName="N" x="0" y="0" flags="0x204"/>
      <component glyphName="acute" x="267" y="170" flags="0x4"/>
    </TTGlyph>
    <TTGlyph name="Ncaron" xMin="40" yMin="-10" xMax="545" yMax="865">
      <component glyphName=".ttfautohint" x="40" y="0" flags="0x0"/>
      <component glyphName="N" x="0" y="0" flags="0x204"/>
      <component glyphName="caron" x="177" y="165" flags="0x4"/>
    </TTGlyph>
    <TTGlyph name="Ncommaaccent" xMin="40" yMin="-219" xMax="545" yMax="700">
      <component glyphName=".ttfautohint" x="40" y="0" flags="0x0"/>
      <component glyphName="N" x="0" y="0" flags="0x204"/>
      <component glyphName="commaaccent" x="232" y="-429" flags="0x4"/>
    </TTGlyph>
    <TTGlyph name="Ntilde" xMin="40" yMin="-10" xMax="545" yMax="870">
      <component glyphName=".ttfautohint" x="40" y="0" flags="0x0"/>
      <component glyphName="N" x="0" y="0" flags="0x204"/>
      <component glyphName="tilde" x="180" y="165" flags="0x4"/>
    </TTGlyph>
    <TTGlyph name="O" xMin="40" yMin="-15" xMax="510" yMax="715">
      <contour>
        <pt x="510" y="350" on="1"/>
        <pt x="510" y="258" on="0"/>
        <pt x="469" y="121" on="0"/>
        <pt x="402" y="30" on="0"/>
        <pt x="318" y="-15" on="0"/>
        <pt x="275" y="-15" on="1"/>
        <pt x="232" y="-15" on="0"/>
        <pt x="148" y="30" on="0"/>
        <pt x="81" y="121" on="0"/>
        <pt x="40" y="258" on="0"/>
        <pt x="40" y="350" on="1"/>
        <pt x="40" y="442" on="0"/>
        <pt x="81" y="579" on="0"/>
        <pt x="148" y="670" on="0"/>
        <pt x="232" y="715" on="0"/>
        <pt x="275" y="715" on="1"/>
        <pt x="318" y="715" on="0"/>
        <pt x="402" y="670" on="0"/>
        <pt x="469" y="579" on="0"/>
        <pt x="510" y="442" on="0"/>
      </contour>
      <contour>
        <pt x="415" y="350" on="1"/>
        <pt x="415" y="453" on="0"/>
        <pt x="390" y="588" on="0"/>
        <pt x="349" y="668" on="0"/>
        <pt x="299" y="700" on="0"/>
        <pt x="275" y="700" on="1"/>
        <pt x="251" y="700" on="0"/>
        <pt x="201" y="668" on="0"/>
        <pt x="160" y="588" on="0"/>
        <pt x="135" y="453" on="0"/>
        <pt x="135" y="350" on="1"/>
        <pt x="135" y="247" on="0"/>
        <pt x="160" y="112" on="0"/>
        <pt x="201" y="32" on="0"/>
        <pt x="251" y="0" on="0"/>
        <pt x="275" y="0" on="1"/>
        <pt x="299" y="0" on="0"/>
        <pt x="349" y="32" on="0"/>
        <pt x="390" y="112" on="0"/>
        <pt x="415" y="247" on="0"/>
      </contour>
    </TTGlyph>
    <TTGlyph name="OE" xMin="35" yMin="0" xMax="720" yMax="700">
      <contour>
        <pt x="710" y="700" on="1"/>
        <pt x="708" y="691" on="0"/>
        <pt x="707" y="679" on="1"/>
        <pt x="706" y="668" on="0"/>
        <pt x="705" y="639" on="0"/>
        <pt x="705" y="620" on="1"/>
        <pt x="705" y="606" on="0"/>
        <pt x="706" y="579" on="0"/>
        <pt x="707" y="567" on="1"/>
        <pt x="708" y="553" on="0"/>
        <pt x="710" y="540" on="1"/>
        <pt x="700" y="540" on="1"/>
        <pt x="674" y="566" on="0"/>
        <pt x="640" y="638" on="0"/>
        <pt x="640" y="680" on="1"/>
        <pt x="450" y="680" on="1"/>
        <pt x="450" y="380" on="1"/>
        <pt x="545" y="380" on="1"/>
        <pt x="590" y="470" on="1"/>
        <pt x="600" y="470" on="1"/>
        <pt x="600" y="270" on="1"/>
        <pt x="590" y="270" on="1"/>
        <pt x="545" y="360" on="1"/>
        <pt x="450" y="360" on="1"/>
        <pt x="450" y="20" on="1"/>
        <pt x="650" y="20" on="1"/>
        <pt x="650" y="62" on="0"/>
        <pt x="684" y="134" on="0"/>
        <pt x="710" y="160" on="1"/>
        <pt x="720" y="160" on="1"/>
        <pt x="718" y="147" on="0"/>
        <pt x="717" y="133" on="1"/>
        <pt x="716" y="121" on="0"/>
        <pt x="715" y="93" on="0"/>
        <pt x="715" y="80" on="1"/>
        <pt x="715" y="61" on="0"/>
        <pt x="716" y="32" on="0"/>
        <pt x="717" y="21" on="1"/>
        <pt x="718" y="9" on="0"/>
        <pt x="720" y="0" on="1"/>
        <pt x="340" y="0" on="1"/>
        <pt x="274" y="0" on="0"/>
        <pt x="163" y="47" on="0"/>
        <pt x="81" y="137" on="0"/>
        <pt x="35" y="267" on="0"/>
        <pt x="35" y="350" on="1"/>
        <pt x="35" y="432" on="0"/>
        <pt x="81" y="562" on="0"/>
        <pt x="163" y="652" on="0"/>
        <pt x="274" y="700" on="0"/>
        <pt x="340" y="700" on="1"/>
      </contour>
      <contour>
        <pt x="340" y="680" on="1"/>
        <pt x="297" y="680" on="0"/>
        <pt x="220" y="643" on="0"/>
        <pt x="163" y="563" on="0"/>
        <pt x="130" y="438" on="0"/>
        <pt x="130" y="350" on="1"/>
        <pt x="130" y="262" on="0"/>
        <pt x="163" y="137" on="0"/>
        <pt x="220" y="57" on="0"/>
        <pt x="297" y="20" on="0"/>
        <pt x="340" y="20" on="1"/>
        <pt x="365" y="20" on="1"/>
        <pt x="365" y="680" on="1"/>
      </contour>
    </TTGlyph>
    <TTGlyph name="Oacute" xMin="40" yMin="-15" xMax="510" yMax="876">
      <component glyphName=".ttfautohint" x="40" y="0" flags="0x0"/>
      <component glyphName="O" x="0" y="0" flags="0x204"/>
      <component glyphName="acute" x="246" y="176" flags="0x4"/>
    </TTGlyph>
    <TTGlyph name="Ocircumflex" xMin="40" yMin="-15" xMax="510" yMax="885">
      <component glyphName=".ttfautohint" x="40" y="0" flags="0x0"/>
      <component glyphName="O" x="0" y="0" flags="0x204"/>
      <component glyphName="circumflex" x="149" y="185" flags="0x4"/>
    </TTGlyph>
    <TTGlyph name="Odieresis" xMin="40" yMin="-15" xMax="510" yMax="860">
      <component glyphName=".ttfautohint" x="40" y="0" flags="0x0"/>
      <component glyphName="O" x="0" y="0" flags="0x204"/>
      <component glyphName="dieresis" x="132" y="160" flags="0x4"/>
    </TTGlyph>
    <TTGlyph name="Ograve" xMin="40" yMin="-15" xMax="510" yMax="880">
      <component glyphName=".ttfautohint" x="40" y="0" flags="0x0"/>
      <component glyphName="O" x="0" y="0" flags="0x204"/>
      <component glyphName="grave" x="160" y="180" flags="0x4"/>
    </TTGlyph>
    <TTGlyph name="Ohungarumlaut" xMin="40" yMin="-15" xMax="510" yMax="880">
      <component glyphName=".ttfautohint" x="40" y="0" flags="0x0"/>
      <component glyphName="O" x="0" y="0" flags="0x204"/>
      <component glyphName="hungarumlaut" x="185" y="180" flags="0x4"/>
    </TTGlyph>
    <TTGlyph name="Omacron" xMin="40" yMin="-15" xMax="510" yMax="815">
      <component glyphName=".ttfautohint" x="40" y="0" flags="0x0"/>
      <component glyphName="O" x="0" y="0" flags="0x204"/>
      <component glyphName="macron" x="160" y="105" flags="0x4"/>
    </TTGlyph>
    <TTGlyph name="Oslash" xMin="40" yMin="-15" xMax="510" yMax="715">
      <contour>
        <pt x="100" y="96" on="1"/>
        <pt x="73" y="141" on="0"/>
        <pt x="40" y="267" on="0"/>
        <pt x="40" y="350" on="1"/>
        <pt x="40" y="442" on="0"/>
        <pt x="81" y="579" on="0"/>
        <pt x="148" y="670" on="0"/>
        <pt x="232" y="715" on="0"/>
        <pt x="275" y="715" on="1"/>
        <pt x="315" y="715" on="0"/>
        <pt x="394" y="675" on="0"/>
        <pt x="426" y="636" on="1"/>
        <pt x="465" y="700" on="1"/>
        <pt x="495" y="680" on="1"/>
        <pt x="449" y="604" on="1"/>
        <pt x="477" y="559" on="0"/>
        <pt x="510" y="432" on="0"/>
        <pt x="510" y="350" on="1"/>
        <pt x="510" y="258" on="0"/>
        <pt x="469" y="121" on="0"/>
        <pt x="402" y="30" on="0"/>
        <pt x="318" y="-15" on="0"/>
        <pt x="275" y="-15" on="1"/>
        <pt x="234" y="-15" on="0"/>
        <pt x="155" y="24" on="0"/>
        <pt x="123" y="64" on="1"/>
        <pt x="85" y="0" on="1"/>
        <pt x="55" y="20" on="1"/>
      </contour>
      <contour>
        <pt x="415" y="350" on="1"/>
        <pt x="415" y="404" on="0"/>
        <pt x="408" y="490" on="0"/>
        <pt x="401" y="525" on="1"/>
        <pt x="160" y="125" on="1"/>
        <pt x="170" y="90" on="0"/>
        <pt x="197" y="42" on="0"/>
        <pt x="227" y="13" on="0"/>
        <pt x="259" y="0" on="0"/>
        <pt x="275" y="0" on="1"/>
        <pt x="299" y="0" on="0"/>
        <pt x="349" y="32" on="0"/>
        <pt x="390" y="112" on="0"/>
        <pt x="415" y="247" on="0"/>
      </contour>
      <contour>
        <pt x="135" y="350" on="1"/>
        <pt x="135" y="296" on="0"/>
        <pt x="142" y="210" on="0"/>
        <pt x="148" y="175" on="1"/>
        <pt x="389" y="575" on="1"/>
        <pt x="369" y="645" on="0"/>
        <pt x="306" y="700" on="0"/>
        <pt x="275" y="700" on="1"/>
        <pt x="251" y="700" on="0"/>
        <pt x="201" y="668" on="0"/>
        <pt x="160" y="588" on="0"/>
        <pt x="135" y="453" on="0"/>
      </contour>
    </TTGlyph>
    <TTGlyph name="Otilde" xMin="40" yMin="-15" xMax="510" yMax="880">
      <component glyphName=".ttfautohint" x="40" y="0" flags="0x0"/>
      <component glyphName="O" x="0" y="0" flags="0x204"/>
      <component glyphName="tilde" x="162" y="175" flags="0x4"/>
    </TTGlyph>
    <TTGlyph name="P" xMin="45" yMin="0" xMax="485" yMax="700">
      <contour>
        <pt x="190" y="250" on="1"/>
        <pt x="190" y="25" on="1"/>
        <pt x="250" y="10" on="1"/>
        <pt x="250" y="0" on="1"/>
        <pt x="45" y="0" on="1"/>
        <pt x="45" y="10" on="1"/>
        <pt x="105" y="25" on="1"/>
        <pt x="105" y="675" on="1"/>
        <pt x="45" y="690" on="1"/>
        <pt x="45" y="700" on="1"/>
        <pt x="225" y="700" on="1"/>
        <pt x="287" y="700" on="0"/>
        <pt x="384" y="666" on="0"/>
        <pt x="450" y="606" on="0"/>
        <pt x="485" y="524" on="0"/>
        <pt x="485" y="475" on="1"/>
        <pt x="485" y="426" on="0"/>
        <pt x="450" y="344" on="0"/>
        <pt x="384" y="284" on="0"/>
        <pt x="287" y="250" on="0"/>
        <pt x="225" y="250" on="1"/>
      </contour>
      <contour>
        <pt x="190" y="270" on="1"/>
        <pt x="225" y="270" on="1"/>
        <pt x="304" y="270" on="0"/>
        <pt x="390" y="366" on="0"/>
        <pt x="390" y="475" on="1"/>
        <pt x="390" y="584" on="0"/>
        <pt x="304" y="680" on="0"/>
        <pt x="225" y="680" on="1"/>
        <pt x="190" y="680" on="1"/>
      </contour>
    </TTGlyph>
    <TTGlyph name="Q" xMin="40" yMin="-145" xMax="510" yMax="715">
      <contour>
        <pt x="510" y="350" on="1"/>
        <pt x="510" y="266" on="0"/>
        <pt x="474" y="135" on="0"/>
        <pt x="415" y="43" on="0"/>
        <pt x="339" y="-9" on="0"/>
        <pt x="300" y="-15" on="1"/>
        <pt x="319" y="-26" on="0"/>
        <pt x="349" y="-65" on="0"/>
        <pt x="374" y="-103" on="0"/>
        <pt x="395" y="-130" on="0"/>
        <pt x="405" y="-130" on="1"/>
        <pt x="416" y="-130" on="0"/>
        <pt x="430" y="-111" on="0"/>
        <pt x="430" y="-85" on="1"/>
        <pt x="430" y="-64" on="0"/>
        <pt x="418" y="-35" on="0"/>
        <pt x="402" y="-16" on="0"/>
        <pt x="387" y="-6" on="0"/>
        <pt x="385" y="-5" on="1"/>
        <pt x="470" y="0" on="1"/>
        <pt x="477" y="-7" on="0"/>
        <pt x="482" y="-17" on="1"/>
        <pt x="487" y="-25" on="0"/>
        <pt x="495" y="-47" on="0"/>
        <pt x="495" y="-60" on="1"/>
        <pt x="495" y="-75" on="0"/>
        <pt x="479" y="-105" on="0"/>
        <pt x="452" y="-130" on="0"/>
        <pt x="416" y="-145" on="0"/>
        <pt x="395" y="-145" on="1"/>
        <pt x="352" y="-145" on="0"/>
        <pt x="300" y="-114" on="0"/>
        <pt x="264" y="-76" on="0"/>
        <pt x="232" y="-45" on="0"/>
        <pt x="210" y="-45" on="1"/>
        <pt x="200" y="-45" on="0"/>
        <pt x="184" y="-51" on="0"/>
        <pt x="178" y="-55" on="1"/>
        <pt x="171" y="-59" on="0"/>
        <pt x="165" y="-65" on="1"/>
        <pt x="155" y="-55" on="1"/>
        <pt x="170" y="-36" on="0"/>
        <pt x="216" y="-10" on="0"/>
        <pt x="235" y="-10" on="1"/>
        <pt x="197" y="-1" on="0"/>
        <pt x="127" y="54" on="0"/>
        <pt x="73" y="144" on="0"/>
        <pt x="40" y="269" on="0"/>
        <pt x="40" y="350" on="1"/>
        <pt x="40" y="442" on="0"/>
        <pt x="81" y="579" on="0"/>
        <pt x="148" y="670" on="0"/>
        <pt x="232" y="715" on="0"/>
        <pt x="275" y="715" on="1"/>
        <pt x="318" y="715" on="0"/>
        <pt x="402" y="670" on="0"/>
        <pt x="469" y="579" on="0"/>
        <pt x="510" y="442" on="0"/>
      </contour>
      <contour>
        <pt x="415" y="350" on="1"/>
        <pt x="415" y="453" on="0"/>
        <pt x="390" y="588" on="0"/>
        <pt x="349" y="668" on="0"/>
        <pt x="299" y="700" on="0"/>
        <pt x="275" y="700" on="1"/>
        <pt x="251" y="700" on="0"/>
        <pt x="201" y="668" on="0"/>
        <pt x="160" y="588" on="0"/>
        <pt x="135" y="453" on="0"/>
        <pt x="135" y="350" on="1"/>
        <pt x="135" y="247" on="0"/>
        <pt x="160" y="112" on="0"/>
        <pt x="201" y="32" on="0"/>
        <pt x="251" y="0" on="0"/>
        <pt x="275" y="0" on="1"/>
        <pt x="299" y="0" on="0"/>
        <pt x="349" y="32" on="0"/>
        <pt x="390" y="112" on="0"/>
        <pt x="415" y="247" on="0"/>
      </contour>
    </TTGlyph>
    <TTGlyph name="R" xMin="45" yMin="-15" xMax="540" yMax="700">
      <contour>
        <pt x="230" y="700" on="1"/>
        <pt x="294" y="700" on="0"/>
        <pt x="388" y="672" on="0"/>
        <pt x="450" y="624" on="0"/>
        <pt x="480" y="561" on="0"/>
        <pt x="480" y="525" on="1"/>
        <pt x="480" y="496" on="0"/>
        <pt x="463" y="451" on="0"/>
        <pt x="436" y="416" on="0"/>
        <pt x="400" y="392" on="0"/>
        <pt x="382" y="384" on="1"/>
        <pt x="339" y="365" on="0"/>
        <pt x="285" y="360" on="1"/>
        <pt x="329" y="355" on="0"/>
        <pt x="365" y="339" on="1"/>
        <pt x="396" y="325" on="0"/>
        <pt x="450" y="271" on="0"/>
        <pt x="455" y="225" on="1"/>
        <pt x="475" y="50" on="1"/>
        <pt x="477" y="31" on="0"/>
        <pt x="491" y="15" on="0"/>
        <pt x="500" y="15" on="1"/>
        <pt x="505" y="15" on="0"/>
        <pt x="516" y="22" on="0"/>
        <pt x="521" y="27" on="1"/>
        <pt x="526" y="32" on="0"/>
        <pt x="530" y="40" on="1"/>
        <pt x="540" y="30" on="1"/>
        <pt x="534" y="17" on="0"/>
        <pt x="523" y="7" on="1"/>
        <pt x="514" y="-1" on="0"/>
        <pt x="485" y="-15" on="0"/>
        <pt x="465" y="-15" on="1"/>
        <pt x="431" y="-15" on="0"/>
        <pt x="388" y="24" on="0"/>
        <pt x="385" y="50" on="1"/>
        <pt x="365" y="225" on="1"/>
        <pt x="361" y="259" on="0"/>
        <pt x="343" y="306" on="0"/>
        <pt x="312" y="336" on="0"/>
        <pt x="264" y="350" on="0"/>
        <pt x="230" y="350" on="1"/>
        <pt x="190" y="350" on="1"/>
        <pt x="190" y="25" on="1"/>
        <pt x="250" y="10" on="1"/>
        <pt x="250" y="0" on="1"/>
        <pt x="45" y="0" on="1"/>
        <pt x="45" y="10" on="1"/>
        <pt x="105" y="25" on="1"/>
        <pt x="105" y="675" on="1"/>
        <pt x="45" y="690" on="1"/>
        <pt x="45" y="700" on="1"/>
      </contour>
      <contour>
        <pt x="385" y="525" on="1"/>
        <pt x="385" y="600" on="0"/>
        <pt x="305" y="680" on="0"/>
        <pt x="230" y="680" on="1"/>
        <pt x="190" y="680" on="1"/>
        <pt x="190" y="370" on="1"/>
        <pt x="230" y="370" on="1"/>
        <pt x="305" y="370" on="0"/>
        <pt x="385" y="450" on="0"/>
      </contour>
    </TTGlyph>
    <TTGlyph name="Racute" xMin="45" yMin="-15" xMax="540" yMax="870">
      <component glyphName=".ttfautohint" x="45" y="0" flags="0x0"/>
      <component glyphName="R" x="0" y="0" flags="0x204"/>
      <component glyphName="acute" x="230" y="170" flags="0x4"/>
    </TTGlyph>
    <TTGlyph name="Rcaron" xMin="45" yMin="-15" xMax="540" yMax="875">
      <component glyphName=".ttfautohint" x="45" y="0" flags="0x0"/>
      <component glyphName="R" x="0" y="0" flags="0x204"/>
      <component glyphName="caron" x="140" y="175" flags="0x4"/>
    </TTGlyph>
    <TTGlyph name="Rcommaaccent" xMin="45" yMin="-229" xMax="540" yMax="700">
      <component glyphName=".ttfautohint" x="45" y="0" flags="0x0"/>
      <component glyphName="R" x="0" y="0" flags="0x204"/>
      <component glyphName="commaaccent" x="245" y="-439" flags="0x4"/>
    </TTGlyph>
    <TTGlyph name="S" xMin="35" yMin="-15" xMax="435" yMax="715">
      <contour>
        <pt x="110" y="570" on="1"/>
        <pt x="110" y="529" on="0"/>
        <pt x="158" y="470" on="0"/>
        <pt x="230" y="420" on="0"/>
        <pt x="315" y="372" on="0"/>
        <pt x="387" y="311" on="0"/>
        <pt x="435" y="229" on="0"/>
        <pt x="435" y="170" on="1"/>
        <pt x="435" y="131" on="0"/>
        <pt x="407" y="63" on="0"/>
        <pt x="356" y="13" on="0"/>
        <pt x="286" y="-15" on="0"/>
        <pt x="245" y="-15" on="1"/>
        <pt x="207" y="-15" on="0"/>
        <pt x="153" y="0" on="0"/>
        <pt x="135" y="10" on="1"/>
        <pt x="114" y="21" on="0"/>
        <pt x="100" y="35" on="1"/>
        <pt x="92" y="20" on="0"/>
        <pt x="65" y="-6" on="0"/>
        <pt x="50" y="-10" on="1"/>
        <pt x="35" y="-10" on="1"/>
        <pt x="36" y="4" on="0"/>
        <pt x="37" y="20" on="1"/>
        <pt x="38" y="33" on="0"/>
        <pt x="40" y="65" on="0"/>
        <pt x="40" y="80" on="1"/>
        <pt x="40" y="97" on="0"/>
        <pt x="38" y="130" on="0"/>
        <pt x="37" y="144" on="1"/>
        <pt x="36" y="160" on="0"/>
        <pt x="35" y="175" on="1"/>
        <pt x="50" y="175" on="1"/>
        <pt x="73" y="92" on="0"/>
        <pt x="160" y="5" on="0"/>
        <pt x="235" y="5" on="1"/>
        <pt x="295" y="5" on="0"/>
        <pt x="370" y="82" on="0"/>
        <pt x="370" y="150" on="1"/>
        <pt x="370" y="191" on="0"/>
        <pt x="322" y="250" on="0"/>
        <pt x="250" y="300" on="0"/>
        <pt x="165" y="348" on="0"/>
        <pt x="93" y="409" on="0"/>
        <pt x="45" y="491" on="0"/>
        <pt x="45" y="550" on="1"/>
        <pt x="45" y="584" on="0"/>
        <pt x="71" y="644" on="0"/>
        <pt x="117" y="689" on="0"/>
        <pt x="179" y="715" on="0"/>
        <pt x="215" y="715" on="1"/>
        <pt x="245" y="715" on="0"/>
        <pt x="291" y="699" on="0"/>
        <pt x="307" y="690" on="1"/>
        <pt x="325" y="679" on="0"/>
        <pt x="340" y="665" on="1"/>
        <pt x="348" y="680" on="0"/>
        <pt x="375" y="706" on="0"/>
        <pt x="390" y="710" on="1"/>
        <pt x="405" y="710" on="1"/>
        <pt x="403" y="695" on="0"/>
        <pt x="402" y="680" on="1"/>
        <pt x="401" y="666" on="0"/>
        <pt x="400" y="635" on="0"/>
        <pt x="400" y="620" on="1"/>
        <pt x="400" y="603" on="0"/>
        <pt x="401" y="570" on="0"/>
        <pt x="402" y="556" on="1"/>
        <pt x="403" y="540" on="0"/>
        <pt x="405" y="525" on="1"/>
        <pt x="390" y="525" on="1"/>
        <pt x="367" y="608" on="0"/>
        <pt x="285" y="695" on="0"/>
        <pt x="225" y="695" on="1"/>
        <pt x="176" y="695" on="0"/>
        <pt x="110" y="627" on="0"/>
      </contour>
    </TTGlyph>
    <TTGlyph name="Sacute" xMin="35" yMin="-15" xMax="435" yMax="875">
      <component glyphName=".ttfautohint" x="35" y="0" flags="0x0"/>
      <component glyphName="S" x="0" y="0" flags="0x204"/>
      <component glyphName="acute" x="187" y="175" flags="0x4"/>
    </TTGlyph>
    <TTGlyph name="Scaron" xMin="35" yMin="-15" xMax="435" yMax="880">
      <component glyphName=".ttfautohint" x="35" y="0" flags="0x0"/>
      <component glyphName="S" x="0" y="0" flags="0x204"/>
      <component glyphName="caron" x="105" y="180" flags="0x4"/>
    </TTGlyph>
    <TTGlyph name="Scedilla" xMin="35" yMin="-155" xMax="435" yMax="715">
      <component glyphName=".ttfautohint" x="35" y="0" flags="0x0"/>
      <component glyphName="S" x="0" y="0" flags="0x204"/>
      <component glyphName="cedilla" x="167" y="0" flags="0x4"/>
    </TTGlyph>
    <TTGlyph name="Scommaaccent" xMin="35" yMin="-260" xMax="435" yMax="715">
      <contour>
        <pt x="240" y="-70" on="1"/>
        <pt x="263" y="-70" on="0"/>
        <pt x="290" y="-104" on="0"/>
        <pt x="290" y="-130" on="1"/>
        <pt x="290" y="-170" on="0"/>
        <pt x="266" y="-220" on="0"/>
        <pt x="252" y="-234" on="1"/>
        <pt x="235" y="-251" on="0"/>
        <pt x="215" y="-260" on="1"/>
        <pt x="205" y="-245" on="1"/>
        <pt x="220" y="-237" on="0"/>
        <pt x="232" y="-226" on="1"/>
        <pt x="243" y="-217" on="0"/>
        <pt x="260" y="-194" on="0"/>
        <pt x="260" y="-180" on="1"/>
        <pt x="260" y="-176" on="0"/>
        <pt x="258" y="-169" on="0"/>
        <pt x="257" y="-166" on="1"/>
        <pt x="256" y="-162" on="0"/>
        <pt x="255" y="-160" on="1"/>
        <pt x="252" y="-162" on="0"/>
        <pt x="248" y="-163" on="1"/>
        <pt x="240" y="-165" on="0"/>
        <pt x="235" y="-165" on="1"/>
        <pt x="216" y="-165" on="0"/>
        <pt x="190" y="-139" on="0"/>
        <pt x="190" y="-120" on="1"/>
        <pt x="190" y="-97" on="0"/>
        <pt x="217" y="-70" on="0"/>
      </contour>
      <contour>
        <pt x="110" y="570" on="1"/>
        <pt x="110" y="529" on="0"/>
        <pt x="158" y="470" on="0"/>
        <pt x="230" y="420" on="0"/>
        <pt x="315" y="372" on="0"/>
        <pt x="387" y="311" on="0"/>
        <pt x="435" y="229" on="0"/>
        <pt x="435" y="170" on="1"/>
        <pt x="435" y="131" on="0"/>
        <pt x="407" y="63" on="0"/>
        <pt x="356" y="13" on="0"/>
        <pt x="286" y="-15" on="0"/>
        <pt x="245" y="-15" on="1"/>
        <pt x="207" y="-15" on="0"/>
        <pt x="153" y="0" on="0"/>
        <pt x="135" y="10" on="1"/>
        <pt x="114" y="21" on="0"/>
        <pt x="100" y="35" on="1"/>
        <pt x="92" y="20" on="0"/>
        <pt x="65" y="-6" on="0"/>
        <pt x="50" y="-10" on="1"/>
        <pt x="35" y="-10" on="1"/>
        <pt x="36" y="4" on="0"/>
        <pt x="37" y="20" on="1"/>
        <pt x="38" y="33" on="0"/>
        <pt x="40" y="65" on="0"/>
        <pt x="40" y="80" on="1"/>
        <pt x="40" y="97" on="0"/>
        <pt x="38" y="130" on="0"/>
        <pt x="37" y="144" on="1"/>
        <pt x="36" y="160" on="0"/>
        <pt x="35" y="175" on="1"/>
        <pt x="50" y="175" on="1"/>
        <pt x="73" y="92" on="0"/>
        <pt x="160" y="5" on="0"/>
        <pt x="235" y="5" on="1"/>
        <pt x="295" y="5" on="0"/>
        <pt x="370" y="82" on="0"/>
        <pt x="370" y="150" on="1"/>
        <pt x="370" y="191" on="0"/>
        <pt x="322" y="250" on="0"/>
        <pt x="250" y="300" on="0"/>
        <pt x="165" y="348" on="0"/>
        <pt x="93" y="409" on="0"/>
        <pt x="45" y="491" on="0"/>
        <pt x="45" y="550" on="1"/>
        <pt x="45" y="584" on="0"/>
        <pt x="71" y="644" on="0"/>
        <pt x="117" y="689" on="0"/>
        <pt x="179" y="715" on="0"/>
        <pt x="215" y="715" on="1"/>
        <pt x="245" y="715" on="0"/>
        <pt x="291" y="699" on="0"/>
        <pt x="307" y="690" on="1"/>
        <pt x="325" y="679" on="0"/>
        <pt x="340" y="665" on="1"/>
        <pt x="348" y="680" on="0"/>
        <pt x="375" y="706" on="0"/>
        <pt x="390" y="710" on="1"/>
        <pt x="405" y="710" on="1"/>
        <pt x="403" y="695" on="0"/>
        <pt x="402" y="680" on="1"/>
        <pt x="401" y="666" on="0"/>
        <pt x="400" y="635" on="0"/>
        <pt x="400" y="620" on="1"/>
        <pt x="400" y="603" on="0"/>
        <pt x="401" y="570" on="0"/>
        <pt x="402" y="556" on="1"/>
        <pt x="403" y="540" on="0"/>
        <pt x="405" y="525" on="1"/>
        <pt x="390" y="525" on="1"/>
        <pt x="367" y="608" on="0"/>
        <pt x="285" y="695" on="0"/>
        <pt x="225" y="695" on="1"/>
        <pt x="176" y="695" on="0"/>
        <pt x="110" y="627" on="0"/>
      </contour>
    </TTGlyph>
    <TTGlyph name="T" xMin="30" yMin="0" xMax="465" yMax="700">
      <contour>
        <pt x="290" y="25" on="1"/>
        <pt x="350" y="10" on="1"/>
        <pt x="350" y="0" on="1"/>
        <pt x="145" y="0" on="1"/>
        <pt x="145" y="10" on="1"/>
        <pt x="205" y="25" on="1"/>
        <pt x="205" y="680" on="1"/>
        <pt x="100" y="680" on="1"/>
        <pt x="100" y="638" on="0"/>
        <pt x="66" y="566" on="0"/>
        <pt x="40" y="540" on="1"/>
        <pt x="30" y="540" on="1"/>
        <pt x="31" y="553" on="0"/>
        <pt x="32" y="567" on="1"/>
        <pt x="33" y="579" on="0"/>
        <pt x="35" y="606" on="0"/>
        <pt x="35" y="620" on="1"/>
        <pt x="35" y="639" on="0"/>
        <pt x="33" y="668" on="0"/>
        <pt x="32" y="679" on="1"/>
        <pt x="31" y="691" on="0"/>
        <pt x="30" y="700" on="1"/>
        <pt x="465" y="700" on="1"/>
        <pt x="463" y="691" on="0"/>
        <pt x="462" y="679" on="1"/>
        <pt x="461" y="668" on="0"/>
        <pt x="460" y="639" on="0"/>
        <pt x="460" y="620" on="1"/>
        <pt x="460" y="606" on="0"/>
        <pt x="461" y="579" on="0"/>
        <pt x="462" y="567" on="1"/>
        <pt x="463" y="553" on="0"/>
        <pt x="465" y="540" on="1"/>
        <pt x="455" y="540" on="1"/>
        <pt x="429" y="566" on="0"/>
        <pt x="395" y="638" on="0"/>
        <pt x="395" y="680" on="1"/>
        <pt x="290" y="680" on="1"/>
      </contour>
    </TTGlyph>
    <TTGlyph name="Tcaron" xMin="30" yMin="0" xMax="465" yMax="875">
      <component glyphName=".ttfautohint" x="30" y="0" flags="0x0"/>
      <component glyphName="T" x="0" y="0" flags="0x204"/>
      <component glyphName="caron" x="125" y="175" flags="0x4"/>
    </TTGlyph>
    <TTGlyph name="Tcommaaccent" xMin="30" yMin="-249" xMax="465" yMax="700">
      <component glyphName=".ttfautohint" x="30" y="0" flags="0x0"/>
      <component glyphName="T" x="0" y="0" flags="0x204"/>
      <component glyphName="commaaccent" x="190" y="-459" flags="0x4"/>
    </TTGlyph>
    <TTGlyph name="Thorn" xMin="45" yMin="0" xMax="540" yMax="700">
      <contour>
        <pt x="220" y="640" on="1"/>
        <pt x="291" y="640" on="0"/>
        <pt x="409" y="595" on="0"/>
        <pt x="493" y="518" on="0"/>
        <pt x="540" y="416" on="0"/>
        <pt x="540" y="360" on="1"/>
        <pt x="540" y="304" on="0"/>
        <pt x="493" y="202" on="0"/>
        <pt x="409" y="125" on="0"/>
        <pt x="291" y="80" on="0"/>
        <pt x="220" y="80" on="1"/>
        <pt x="190" y="80" on="1"/>
        <pt x="190" y="25" on="1"/>
        <pt x="250" y="10" on="1"/>
        <pt x="250" y="0" on="1"/>
        <pt x="45" y="0" on="1"/>
        <pt x="45" y="10" on="1"/>
        <pt x="105" y="25" on="1"/>
        <pt x="105" y="675" on="1"/>
        <pt x="45" y="690" on="1"/>
        <pt x="45" y="700" on="1"/>
        <pt x="250" y="700" on="1"/>
        <pt x="250" y="690" on="1"/>
        <pt x="190" y="675" on="1"/>
        <pt x="190" y="640" on="1"/>
      </contour>
      <contour>
        <pt x="190" y="100" on="1"/>
        <pt x="220" y="100" on="1"/>
        <pt x="271" y="100" on="0"/>
        <pt x="354" y="133" on="0"/>
        <pt x="413" y="199" on="0"/>
        <pt x="445" y="296" on="0"/>
        <pt x="445" y="360" on="1"/>
        <pt x="445" y="424" on="0"/>
        <pt x="413" y="521" on="0"/>
        <pt x="354" y="587" on="0"/>
        <pt x="271" y="620" on="0"/>
        <pt x="220" y="620" on="1"/>
        <pt x="190" y="620" on="1"/>
      </contour>
    </TTGlyph>
    <TTGlyph name="U" xMin="30" yMin="-15" xMax="550" yMax="700">
      <contour>
        <pt x="485" y="200" on="1"/>
        <pt x="485" y="87" on="0"/>
        <pt x="392" y="-15" on="0"/>
        <pt x="305" y="-15" on="1"/>
        <pt x="203" y="-15" on="0"/>
        <pt x="90" y="98" on="0"/>
        <pt x="90" y="200" on="1"/>
        <pt x="90" y="675" on="1"/>
        <pt x="30" y="690" on="1"/>
        <pt x="30" y="700" on="1"/>
        <pt x="235" y="700" on="1"/>
        <pt x="235" y="690" on="1"/>
        <pt x="175" y="675" on="1"/>
        <pt x="175" y="200" on="1"/>
        <pt x="175" y="99" on="0"/>
        <pt x="255" y="5" on="0"/>
        <pt x="315" y="5" on="1"/>
        <pt x="349" y="5" on="0"/>
        <pt x="404" y="28" on="0"/>
        <pt x="443" y="76" on="0"/>
        <pt x="465" y="149" on="0"/>
        <pt x="465" y="200" on="1"/>
        <pt x="465" y="665" on="1"/>
        <pt x="400" y="690" on="1"/>
        <pt x="400" y="700" on="1"/>
        <pt x="550" y="700" on="1"/>
        <pt x="550" y="690" on="1"/>
        <pt x="485" y="665" on="1"/>
      </contour>
    </TTGlyph>
    <TTGlyph name="Uacute" xMin="30" yMin="-15" xMax="550" yMax="869">
      <component glyphName=".ttfautohint" x="30" y="0" flags="0x0"/>
      <component glyphName="U" x="0" y="0" flags="0x204"/>
      <component glyphName="acute" x="275" y="169" flags="0x4"/>
    </TTGlyph>
    <TTGlyph name="Ucircumflex" xMin="30" yMin="-15" xMax="550" yMax="890">
      <component glyphName=".ttfautohint" x="30" y="0" flags="0x0"/>
      <component glyphName="U" x="0" y="0" flags="0x204"/>
      <component glyphName="circumflex" x="179" y="190" flags="0x4"/>
    </TTGlyph>
    <TTGlyph name="Udieresis" xMin="30" yMin="-15" xMax="550" yMax="860">
      <component glyphName=".ttfautohint" x="30" y="0" flags="0x0"/>
      <component glyphName="U" x="0" y="0" flags="0x204"/>
      <component glyphName="dieresis" x="162" y="160" flags="0x4"/>
    </TTGlyph>
    <TTGlyph name="Ugrave" xMin="30" yMin="-15" xMax="550" yMax="870">
      <component glyphName=".ttfautohint" x="30" y="0" flags="0x0"/>
      <component glyphName="U" x="0" y="0" flags="0x204"/>
      <component glyphName="grave" x="200" y="170" flags="0x4"/>
    </TTGlyph>
    <TTGlyph name="Uhungarumlaut" xMin="30" yMin="-15" xMax="550" yMax="869">
      <component glyphName=".ttfautohint" x="30" y="0" flags="0x0"/>
      <component glyphName="U" x="0" y="0" flags="0x204"/>
      <component glyphName="hungarumlaut" x="220" y="169" flags="0x4"/>
    </TTGlyph>
    <TTGlyph name="Umacron" xMin="30" yMin="-15" xMax="550" yMax="825">
      <component glyphName=".ttfautohint" x="30" y="0" flags="0x0"/>
      <component glyphName="U" x="0" y="0" flags="0x204"/>
      <component glyphName="macron" x="190" y="115" flags="0x4"/>
    </TTGlyph>
    <TTGlyph name="Uogonek" xMin="30" yMin="-140" xMax="550" yMax="700">
      <component glyphName=".ttfautohint" x="30" y="0" flags="0x0"/>
      <component glyphName="U" x="0" y="0" flags="0x204"/>
      <component glyphName="ogonek" x="225" y="0" flags="0x4"/>
    </TTGlyph>
    <TTGlyph name="Uring" xMin="30" yMin="-15" xMax="550" yMax="895">
      <component glyphName=".ttfautohint" x="30" y="0" flags="0x0"/>
      <component glyphName="U" x="0" y="0" flags="0x204"/>
      <component glyphName="ring" x="230" y="195" flags="0x4"/>
    </TTGlyph>
    <TTGlyph name="V" xMin="-10" yMin="-15" xMax="525" yMax="700">
      <contour>
        <pt x="-10" y="690" on="1"/>
        <pt x="-10" y="700" on="1"/>
        <pt x="200" y="700" on="1"/>
        <pt x="200" y="690" on="1"/>
        <pt x="140" y="675" on="1"/>
        <pt x="300" y="150" on="1"/>
        <pt x="440" y="665" on="1"/>
        <pt x="375" y="690" on="1"/>
        <pt x="375" y="700" on="1"/>
        <pt x="525" y="700" on="1"/>
        <pt x="525" y="690" on="1"/>
        <pt x="460" y="665" on="1"/>
        <pt x="275" y="-15" on="1"/>
        <pt x="260" y="-15" on="1"/>
        <pt x="50" y="675" on="1"/>
      </contour>
    </TTGlyph>
    <TTGlyph name="W" xMin="-10" yMin="-15" xMax="825" yMax="715">
      <contour>
        <pt x="-10" y="690" on="1"/>
        <pt x="-10" y="700" on="1"/>
        <pt x="200" y="700" on="1"/>
        <pt x="200" y="690" on="1"/>
        <pt x="140" y="675" on="1"/>
        <pt x="285" y="160" on="1"/>
        <pt x="430" y="715" on="1"/>
        <pt x="445" y="715" on="1"/>
        <pt x="609" y="160" on="1"/>
        <pt x="740" y="665" on="1"/>
        <pt x="675" y="690" on="1"/>
        <pt x="675" y="700" on="1"/>
        <pt x="825" y="700" on="1"/>
        <pt x="825" y="690" on="1"/>
        <pt x="760" y="665" on="1"/>
        <pt x="585" y="-15" on="1"/>
        <pt x="570" y="-15" on="1"/>
        <pt x="405" y="545" on="1"/>
        <pt x="260" y="-15" on="1"/>
        <pt x="245" y="-15" on="1"/>
        <pt x="50" y="675" on="1"/>
      </contour>
    </TTGlyph>
    <TTGlyph name="X" xMin="-10" yMin="0" xMax="505" yMax="700">
      <contour>
        <pt x="211" y="326" on="1"/>
        <pt x="50" y="675" on="1"/>
        <pt x="-10" y="690" on="1"/>
        <pt x="-10" y="700" on="1"/>
        <pt x="205" y="700" on="1"/>
        <pt x="205" y="690" on="1"/>
        <pt x="145" y="675" on="1"/>
        <pt x="260" y="425" on="1"/>
        <pt x="380" y="665" on="1"/>
        <pt x="315" y="690" on="1"/>
        <pt x="315" y="700" on="1"/>
        <pt x="465" y="700" on="1"/>
        <pt x="465" y="690" on="1"/>
        <pt x="400" y="665" on="1"/>
        <pt x="270" y="404" on="1"/>
        <pt x="445" y="25" on="1"/>
        <pt x="505" y="10" on="1"/>
        <pt x="505" y="0" on="1"/>
        <pt x="290" y="0" on="1"/>
        <pt x="290" y="10" on="1"/>
        <pt x="350" y="25" on="1"/>
        <pt x="220" y="306" on="1"/>
        <pt x="85" y="35" on="1"/>
        <pt x="150" y="10" on="1"/>
        <pt x="150" y="0" on="1"/>
        <pt x="0" y="0" on="1"/>
        <pt x="0" y="10" on="1"/>
        <pt x="65" y="35" on="1"/>
      </contour>
    </TTGlyph>
    <TTGlyph name="Y" xMin="-5" yMin="0" xMax="510" yMax="700">
      <contour>
        <pt x="295" y="280" on="1"/>
        <pt x="295" y="25" on="1"/>
        <pt x="355" y="10" on="1"/>
        <pt x="355" y="0" on="1"/>
        <pt x="150" y="0" on="1"/>
        <pt x="150" y="10" on="1"/>
        <pt x="210" y="25" on="1"/>
        <pt x="210" y="275" on="1"/>
        <pt x="55" y="675" on="1"/>
        <pt x="-5" y="690" on="1"/>
        <pt x="-5" y="700" on="1"/>
        <pt x="205" y="700" on="1"/>
        <pt x="205" y="690" on="1"/>
        <pt x="145" y="675" on="1"/>
        <pt x="287" y="310" on="1"/>
        <pt x="425" y="665" on="1"/>
        <pt x="360" y="690" on="1"/>
        <pt x="360" y="700" on="1"/>
        <pt x="510" y="700" on="1"/>
        <pt x="510" y="690" on="1"/>
        <pt x="445" y="665" on="1"/>
      </contour>
    </TTGlyph>
    <TTGlyph name="Yacute" xMin="-5" yMin="0" xMax="510" yMax="869">
      <component glyphName=".ttfautohint" x="0" y="0" flags="0x0"/>
      <component glyphName="Y" x="0" y="0" flags="0x204"/>
      <component glyphName="acute" x="242" y="169" flags="0x4"/>
    </TTGlyph>
    <TTGlyph name="Ydieresis" xMin="-5" yMin="0" xMax="510" yMax="876">
      <component glyphName=".ttfautohint" x="0" y="0" flags="0x0"/>
      <component glyphName="Y" x="0" y="0" flags="0x204"/>
      <component glyphName="dieresis" x="135" y="176" flags="0x4"/>
    </TTGlyph>
    <TTGlyph name="Z" xMin="15" yMin="0" xMax="435" yMax="700">
      <contour>
        <pt x="115" y="20" on="1"/>
        <pt x="365" y="20" on="1"/>
        <pt x="365" y="62" on="0"/>
        <pt x="399" y="134" on="0"/>
        <pt x="425" y="160" on="1"/>
        <pt x="435" y="160" on="1"/>
        <pt x="433" y="147" on="0"/>
        <pt x="432" y="133" on="1"/>
        <pt x="431" y="121" on="0"/>
        <pt x="430" y="93" on="0"/>
        <pt x="430" y="80" on="1"/>
        <pt x="430" y="61" on="0"/>
        <pt x="431" y="32" on="0"/>
        <pt x="432" y="21" on="1"/>
        <pt x="433" y="9" on="0"/>
        <pt x="435" y="0" on="1"/>
        <pt x="15" y="0" on="1"/>
        <pt x="335" y="680" on="1"/>
        <pt x="115" y="680" on="1"/>
        <pt x="115" y="638" on="0"/>
        <pt x="81" y="566" on="0"/>
        <pt x="55" y="540" on="1"/>
        <pt x="45" y="540" on="1"/>
        <pt x="46" y="553" on="0"/>
        <pt x="47" y="567" on="1"/>
        <pt x="48" y="579" on="0"/>
        <pt x="50" y="606" on="0"/>
        <pt x="50" y="620" on="1"/>
        <pt x="50" y="639" on="0"/>
        <pt x="48" y="668" on="0"/>
        <pt x="47" y="679" on="1"/>
        <pt x="46" y="691" on="0"/>
        <pt x="45" y="700" on="1"/>
        <pt x="435" y="700" on="1"/>
      </contour>
    </TTGlyph>
    <TTGlyph name="Zacute" xMin="15" yMin="0" xMax="435" yMax="870">
      <component glyphName=".ttfautohint" x="15" y="0" flags="0x0"/>
      <component glyphName="Z" x="0" y="0" flags="0x204"/>
      <component glyphName="acute" x="215" y="170" flags="0x4"/>
    </TTGlyph>
    <TTGlyph name="Zcaron" xMin="15" yMin="0" xMax="435" yMax="879">
      <component glyphName=".ttfautohint" x="15" y="0" flags="0x0"/>
      <component glyphName="Z" x="0" y="0" flags="0x204"/>
      <component glyphName="caron" x="115" y="179" flags="0x4"/>
    </TTGlyph>
    <TTGlyph name="Zdotaccent" xMin="15" yMin="0" xMax="435" yMax="859">
      <component glyphName=".ttfautohint" x="15" y="0" flags="0x0"/>
      <component glyphName="Z" x="0" y="0" flags="0x204"/>
      <component glyphName="dotaccent" x="175" y="159" flags="0x4"/>
    </TTGlyph>
    <TTGlyph name="a" xMin="40" yMin="-15" xMax="440" yMax="475">
      <contour>
        <pt x="300" y="245" on="1"/>
        <pt x="213" y="245" on="0"/>
        <pt x="130" y="168" on="0"/>
        <pt x="130" y="100" on="1"/>
        <pt x="130" y="55" on="0"/>
        <pt x="174" y="5" on="0"/>
        <pt x="200" y="5" on="1"/>
        <pt x="224" y="5" on="0"/>
        <pt x="261" y="33" on="0"/>
        <pt x="274" y="50" on="1"/>
        <pt x="289" y="69" on="0"/>
        <pt x="300" y="95" on="1"/>
      </contour>
      <contour>
        <pt x="225" y="460" on="1"/>
        <pt x="195" y="460" on="0"/>
        <pt x="155" y="419" on="0"/>
        <pt x="155" y="385" on="1"/>
        <pt x="155" y="377" on="0"/>
        <pt x="156" y="365" on="0"/>
        <pt x="157" y="360" on="1"/>
        <pt x="158" y="355" on="0"/>
        <pt x="160" y="350" on="1"/>
        <pt x="80" y="330" on="1"/>
        <pt x="78" y="333" on="0"/>
        <pt x="77" y="338" on="1"/>
        <pt x="76" y="343" on="0"/>
        <pt x="75" y="355" on="0"/>
        <pt x="75" y="365" on="1"/>
        <pt x="75" y="386" on="0"/>
        <pt x="95" y="425" on="0"/>
        <pt x="134" y="456" on="0"/>
        <pt x="189" y="475" on="0"/>
        <pt x="225" y="475" on="1"/>
        <pt x="297" y="475" on="0"/>
        <pt x="380" y="393" on="0"/>
        <pt x="380" y="325" on="1"/>
        <pt x="380" y="25" on="1"/>
        <pt x="440" y="10" on="1"/>
        <pt x="440" y="0" on="1"/>
        <pt x="300" y="0" on="1"/>
        <pt x="300" y="60" on="1"/>
        <pt x="289" y="39" on="0"/>
        <pt x="272" y="22" on="1"/>
        <pt x="258" y="8" on="0"/>
        <pt x="215" y="-15" on="0"/>
        <pt x="185" y="-15" on="1"/>
        <pt x="113" y="-15" on="0"/>
        <pt x="40" y="53" on="0"/>
        <pt x="40" y="110" on="1"/>
        <pt x="40" y="138" on="0"/>
        <pt x="71" y="194" on="0"/>
        <pt x="134" y="238" on="0"/>
        <pt x="232" y="265" on="0"/>
        <pt x="300" y="265" on="1"/>
        <pt x="300" y="325" on="1"/>
        <pt x="300" y="400" on="0"/>
        <pt x="255" y="460" on="0"/>
      </contour>
    </TTGlyph>
    <TTGlyph name="aacute" xMin="40" yMin="-15" xMax="440" yMax="636">
      <component glyphName=".ttfautohint" x="40" y="0" flags="0x0"/>
      <component glyphName="a" x="0" y="0" flags="0x204"/>
      <component glyphName="acute" x="190" y="-64" flags="0x4"/>
    </TTGlyph>
    <TTGlyph name="abreve" xMin="40" yMin="-15" xMax="440" yMax="626">
      <component glyphName=".ttfautohint" x="40" y="0" flags="0x0"/>
      <component glyphName="a" x="0" y="0" flags="0x204"/>
      <component glyphName="breve" x="110" y="-74" flags="0x4"/>
    </TTGlyph>
    <TTGlyph name="acircumflex" xMin="40" yMin="-15" xMax="440" yMax="651">
      <component glyphName=".ttfautohint" x="40" y="0" flags="0x0"/>
      <component glyphName="a" x="0" y="0" flags="0x204"/>
      <component glyphName="circumflex" x="104" y="-49" flags="0x4"/>
    </TTGlyph>
    <TTGlyph name="acute" xMin="10" yMin="580" xMax="140" yMax="700">
      <contour>
        <pt x="50" y="700" on="1"/>
        <pt x="140" y="700" on="1"/>
        <pt x="40" y="580" on="1"/>
        <pt x="10" y="580" on="1"/>
      </contour>
    </TTGlyph>
    <TTGlyph name="adieresis" xMin="40" yMin="-15" xMax="440" yMax="631">
      <component glyphName=".ttfautohint" x="40" y="0" flags="0x0"/>
      <component glyphName="a" x="0" y="0" flags="0x204"/>
      <component glyphName="dieresis" x="88" y="-69" flags="0x4"/>
    </TTGlyph>
    <TTGlyph name="ae" xMin="40" yMin="-15" xMax="655" yMax="475">
      <contour>
        <pt x="385" y="230" on="1"/>
        <pt x="385" y="166" on="0"/>
        <pt x="404" y="80" on="0"/>
        <pt x="435" y="27" on="0"/>
        <pt x="474" y="5" on="0"/>
        <pt x="495" y="5" on="1"/>
        <pt x="521" y="5" on="0"/>
        <pt x="567" y="25" on="0"/>
        <pt x="603" y="59" on="0"/>
        <pt x="626" y="107" on="0"/>
        <pt x="630" y="135" on="1"/>
        <pt x="645" y="135" on="1"/>
        <pt x="641" y="103" on="0"/>
        <pt x="614" y="48" on="0"/>
        <pt x="572" y="8" on="0"/>
        <pt x="517" y="-15" on="0"/>
        <pt x="485" y="-15" on="1"/>
        <pt x="443" y="-15" on="0"/>
        <pt x="390" y="13" on="0"/>
        <pt x="374" y="30" on="1"/>
        <pt x="356" y="49" on="0"/>
        <pt x="345" y="75" on="1"/>
        <pt x="332" y="49" on="0"/>
        <pt x="310" y="30" on="1"/>
        <pt x="291" y="13" on="0"/>
        <pt x="230" y="-15" on="0"/>
        <pt x="185" y="-15" on="1"/>
        <pt x="113" y="-15" on="0"/>
        <pt x="40" y="53" on="0"/>
        <pt x="40" y="110" on="1"/>
        <pt x="40" y="138" on="0"/>
        <pt x="69" y="190" on="0"/>
        <pt x="132" y="231" on="0"/>
        <pt x="231" y="255" on="0"/>
        <pt x="300" y="255" on="1"/>
        <pt x="300" y="325" on="1"/>
        <pt x="300" y="400" on="0"/>
        <pt x="255" y="460" on="0"/>
        <pt x="225" y="460" on="1"/>
        <pt x="195" y="460" on="0"/>
        <pt x="155" y="419" on="0"/>
        <pt x="155" y="385" on="1"/>
        <pt x="155" y="377" on="0"/>
        <pt x="156" y="365" on="0"/>
        <pt x="157" y="360" on="1"/>
        <pt x="158" y="355" on="0"/>
        <pt x="160" y="350" on="1"/>
        <pt x="80" y="330" on="1"/>
        <pt x="78" y="333" on="0"/>
        <pt x="77" y="338" on="1"/>
        <pt x="76" y="343" on="0"/>
        <pt x="75" y="355" on="0"/>
        <pt x="75" y="365" on="1"/>
        <pt x="75" y="386" on="0"/>
        <pt x="95" y="425" on="0"/>
        <pt x="134" y="456" on="0"/>
        <pt x="189" y="475" on="0"/>
        <pt x="225" y="475" on="1"/>
        <pt x="263" y="475" on="0"/>
        <pt x="312" y="447" on="0"/>
        <pt x="327" y="430" on="1"/>
        <pt x="345" y="410" on="0"/>
        <pt x="355" y="385" on="1"/>
        <pt x="364" y="410" on="0"/>
        <pt x="381" y="430" on="1"/>
        <pt x="395" y="447" on="0"/>
        <pt x="441" y="475" on="0"/>
        <pt x="475" y="475" on="1"/>
        <pt x="511" y="475" on="0"/>
        <pt x="576" y="443" on="0"/>
        <pt x="625" y="382" on="0"/>
        <pt x="655" y="290" on="0"/>
        <pt x="655" y="230" on="1"/>
      </contour>
      <contour>
        <pt x="300" y="235" on="1"/>
        <pt x="213" y="235" on="0"/>
        <pt x="130" y="164" on="0"/>
        <pt x="130" y="100" on="1"/>
        <pt x="130" y="55" on="0"/>
        <pt x="174" y="5" on="0"/>
        <pt x="200" y="5" on="1"/>
        <pt x="219" y="5" on="0"/>
        <pt x="255" y="24" on="0"/>
        <pt x="283" y="60" on="0"/>
        <pt x="300" y="114" on="0"/>
        <pt x="300" y="150" on="1"/>
      </contour>
      <contour>
        <pt x="475" y="460" on="1"/>
        <pt x="460" y="460" on="0"/>
        <pt x="430" y="441" on="0"/>
        <pt x="404" y="393" on="0"/>
        <pt x="387" y="312" on="0"/>
        <pt x="385" y="250" on="1"/>
        <pt x="565" y="250" on="1"/>
        <pt x="563" y="312" on="0"/>
        <pt x="546" y="393" on="0"/>
        <pt x="520" y="441" on="0"/>
        <pt x="490" y="460" on="0"/>
      </contour>
    </TTGlyph>
    <TTGlyph name="afii10017" xMin="-5" yMin="0" xMax="540" yMax="715">
      <contour>
        <pt x="135" y="224" on="1"/>
        <pt x="329" y="224" on="1"/>
        <pt x="229" y="555" on="1"/>
      </contour>
      <contour>
        <pt x="335" y="205" on="1"/>
        <pt x="130" y="205" on="1"/>
        <pt x="80" y="35" on="1"/>
        <pt x="145" y="10" on="1"/>
        <pt x="145" y="0" on="1"/>
        <pt x="-5" y="0" on="1"/>
        <pt x="-5" y="10" on="1"/>
        <pt x="60" y="35" on="1"/>
        <pt x="255" y="715" on="1"/>
        <pt x="270" y="715" on="1"/>
        <pt x="480" y="25" on="1"/>
        <pt x="540" y="10" on="1"/>
        <pt x="540" y="0" on="1"/>
        <pt x="330" y="0" on="1"/>
        <pt x="330" y="10" on="1"/>
        <pt x="390" y="25" on="1"/>
      </contour>
    </TTGlyph>
    <TTGlyph name="afii10018" xMin="45" yMin="0" xMax="485" yMax="700">
      <contour>
        <pt x="190" y="450" on="1"/>
        <pt x="225" y="450" on="1"/>
        <pt x="287" y="450" on="0"/>
        <pt x="384" y="416" on="0"/>
        <pt x="450" y="356" on="0"/>
        <pt x="485" y="274" on="0"/>
        <pt x="485" y="225" on="1"/>
        <pt x="485" y="176" on="0"/>
        <pt x="450" y="94" on="0"/>
        <pt x="384" y="34" on="0"/>
        <pt x="287" y="0" on="0"/>
        <pt x="225" y="0" on="1"/>
        <pt x="45" y="0" on="1"/>
        <pt x="45" y="10" on="1"/>
        <pt x="105" y="25" on="1"/>
        <pt x="105" y="675" on="1"/>
        <pt x="45" y="690" on="1"/>
        <pt x="45" y="700" on="1"/>
        <pt x="410" y="700" on="1"/>
        <pt x="408" y="691" on="0"/>
        <pt x="407" y="679" on="1"/>
        <pt x="406" y="668" on="0"/>
        <pt x="405" y="639" on="0"/>
        <pt x="405" y="620" on="1"/>
        <pt x="405" y="606" on="0"/>
        <pt x="406" y="579" on="0"/>
        <pt x="407" y="567" on="1"/>
        <pt x="408" y="553" on="0"/>
        <pt x="410" y="540" on="1"/>
        <pt x="400" y="540" on="1"/>
        <pt x="374" y="566" on="0"/>
        <pt x="340" y="638" on="0"/>
        <pt x="340" y="680" on="1"/>
        <pt x="190" y="680" on="1"/>
      </contour>
      <contour>
        <pt x="190" y="20" on="1"/>
        <pt x="225" y="20" on="1"/>
        <pt x="304" y="20" on="0"/>
        <pt x="390" y="116" on="0"/>
        <pt x="390" y="225" on="1"/>
        <pt x="390" y="334" on="0"/>
        <pt x="304" y="430" on="0"/>
        <pt x="225" y="430" on="1"/>
        <pt x="190" y="430" on="1"/>
      </contour>
    </TTGlyph>
    <TTGlyph name="afii10019" xMin="45" yMin="0" xMax="480" yMax="700">
      <contour>
        <pt x="45" y="0" on="1"/>
        <pt x="45" y="10" on="1"/>
        <pt x="105" y="25" on="1"/>
        <pt x="105" y="675" on="1"/>
        <pt x="45" y="690" on="1"/>
        <pt x="45" y="700" on="1"/>
        <pt x="225" y="700" on="1"/>
        <pt x="272" y="700" on="0"/>
        <pt x="341" y="679" on="0"/>
        <pt x="387" y="642" on="0"/>
        <pt x="410" y="593" on="0"/>
        <pt x="410" y="565" on="1"/>
        <pt x="410" y="543" on="0"/>
        <pt x="397" y="509" on="0"/>
        <pt x="376" y="484" on="0"/>
        <pt x="349" y="465" on="0"/>
        <pt x="335" y="459" on="1"/>
        <pt x="302" y="444" on="0"/>
        <pt x="260" y="440" on="1"/>
        <pt x="322" y="434" on="0"/>
        <pt x="370" y="409" on="1"/>
        <pt x="391" y="398" on="0"/>
        <pt x="430" y="367" on="0"/>
        <pt x="461" y="322" on="0"/>
        <pt x="480" y="263" on="0"/>
        <pt x="480" y="225" on="1"/>
        <pt x="480" y="178" on="0"/>
        <pt x="444" y="96" on="0"/>
        <pt x="377" y="35" on="0"/>
        <pt x="283" y="0" on="0"/>
        <pt x="225" y="0" on="1"/>
      </contour>
      <contour>
        <pt x="190" y="430" on="1"/>
        <pt x="190" y="20" on="1"/>
        <pt x="225" y="20" on="1"/>
        <pt x="259" y="20" on="0"/>
        <pt x="317" y="46" on="0"/>
        <pt x="360" y="98" on="0"/>
        <pt x="385" y="174" on="0"/>
        <pt x="385" y="225" on="1"/>
        <pt x="385" y="276" on="0"/>
        <pt x="360" y="352" on="0"/>
        <pt x="317" y="404" on="0"/>
        <pt x="259" y="430" on="0"/>
        <pt x="225" y="430" on="1"/>
      </contour>
      <contour>
        <pt x="190" y="450" on="1"/>
        <pt x="225" y="450" on="1"/>
        <pt x="270" y="451" on="0"/>
        <pt x="325" y="508" on="0"/>
        <pt x="325" y="565" on="1"/>
        <pt x="325" y="622" on="0"/>
        <pt x="270" y="680" on="0"/>
        <pt x="225" y="680" on="1"/>
        <pt x="190" y="680" on="1"/>
      </contour>
    </TTGlyph>
    <TTGlyph name="afii10020" xMin="45" yMin="0" xMax="430" yMax="700">
      <contour>
        <pt x="190" y="25" on="1"/>
        <pt x="250" y="10" on="1"/>
        <pt x="250" y="0" on="1"/>
        <pt x="45" y="0" on="1"/>
        <pt x="45" y="10" on="1"/>
        <pt x="105" y="25" on="1"/>
        <pt x="105" y="675" on="1"/>
        <pt x="45" y="690" on="1"/>
        <pt x="45" y="700" on="1"/>
        <pt x="430" y="700" on="1"/>
        <pt x="428" y="691" on="0"/>
        <pt x="427" y="679" on="1"/>
        <pt x="426" y="668" on="0"/>
        <pt x="425" y="639" on="0"/>
        <pt x="425" y="620" on="1"/>
        <pt x="425" y="606" on="0"/>
        <pt x="426" y="579" on="0"/>
        <pt x="427" y="567" on="1"/>
        <pt x="428" y="553" on="0"/>
        <pt x="430" y="540" on="1"/>
        <pt x="420" y="540" on="1"/>
        <pt x="394" y="566" on="0"/>
        <pt x="360" y="638" on="0"/>
        <pt x="360" y="680" on="1"/>
        <pt x="190" y="680" on="1"/>
      </contour>
    </TTGlyph>
    <TTGlyph name="afii10021" xMin="0" yMin="-155" xMax="515" yMax="700">
      <contour>
        <pt x="80" y="0" on="1"/>
        <pt x="80" y="-49" on="0"/>
        <pt x="44" y="-129" on="0"/>
        <pt x="10" y="-155" on="1"/>
        <pt x="0" y="-155" on="1"/>
        <pt x="1" y="-141" on="0"/>
        <pt x="2" y="-125" on="1"/>
        <pt x="3" y="-112" on="0"/>
        <pt x="5" y="-80" on="0"/>
        <pt x="5" y="-65" on="1"/>
        <pt x="5" y="-48" on="0"/>
        <pt x="3" y="-18" on="0"/>
        <pt x="2" y="-6" on="1"/>
        <pt x="1" y="8" on="0"/>
        <pt x="0" y="20" on="1"/>
        <pt x="70" y="20" on="1"/>
        <pt x="94" y="50" on="0"/>
        <pt x="112" y="105" on="1"/>
        <pt x="128" y="152" on="0"/>
        <pt x="155" y="309" on="0"/>
        <pt x="155" y="430" on="1"/>
        <pt x="155" y="670" on="1"/>
        <pt x="90" y="690" on="1"/>
        <pt x="90" y="700" on="1"/>
        <pt x="495" y="700" on="1"/>
        <pt x="495" y="690" on="1"/>
        <pt x="435" y="675" on="1"/>
        <pt x="435" y="20" on="1"/>
        <pt x="515" y="20" on="1"/>
        <pt x="513" y="8" on="0"/>
        <pt x="512" y="-6" on="1"/>
        <pt x="511" y="-18" on="0"/>
        <pt x="510" y="-48" on="0"/>
        <pt x="510" y="-65" on="1"/>
        <pt x="510" y="-80" on="0"/>
        <pt x="511" y="-112" on="0"/>
        <pt x="512" y="-125" on="1"/>
        <pt x="513" y="-141" on="0"/>
        <pt x="515" y="-155" on="1"/>
        <pt x="505" y="-155" on="1"/>
        <pt x="471" y="-129" on="0"/>
        <pt x="435" y="-49" on="0"/>
        <pt x="435" y="0" on="1"/>
      </contour>
      <contour>
        <pt x="175" y="430" on="1"/>
        <pt x="175" y="309" on="0"/>
        <pt x="150" y="152" on="0"/>
        <pt x="135" y="105" on="1"/>
        <pt x="117" y="50" on="0"/>
        <pt x="95" y="20" on="1"/>
        <pt x="350" y="20" on="1"/>
        <pt x="350" y="680" on="1"/>
        <pt x="175" y="680" on="1"/>
      </contour>
    </TTGlyph>
    <TTGlyph name="afii10022" xMin="45" yMin="0" xMax="460" yMax="700">
      <contour>
        <pt x="390" y="20" on="1"/>
        <pt x="390" y="62" on="0"/>
        <pt x="424" y="134" on="0"/>
        <pt x="450" y="160" on="1"/>
        <pt x="460" y="160" on="1"/>
        <pt x="458" y="147" on="0"/>
        <pt x="457" y="133" on="1"/>
        <pt x="456" y="121" on="0"/>
        <pt x="455" y="93" on="0"/>
        <pt x="455" y="80" on="1"/>
        <pt x="455" y="61" on="0"/>
        <pt x="456" y="32" on="0"/>
        <pt x="457" y="21" on="1"/>
        <pt x="458" y="9" on="0"/>
        <pt x="460" y="0" on="1"/>
        <pt x="45" y="0" on="1"/>
        <pt x="45" y="10" on="1"/>
        <pt x="105" y="25" on="1"/>
        <pt x="105" y="675" on="1"/>
        <pt x="45" y="690" on="1"/>
        <pt x="45" y="700" on="1"/>
        <pt x="450" y="700" on="1"/>
        <pt x="448" y="691" on="0"/>
        <pt x="447" y="679" on="1"/>
        <pt x="446" y="668" on="0"/>
        <pt x="445" y="639" on="0"/>
        <pt x="445" y="620" on="1"/>
        <pt x="445" y="606" on="0"/>
        <pt x="446" y="579" on="0"/>
        <pt x="447" y="567" on="1"/>
        <pt x="448" y="553" on="0"/>
        <pt x="450" y="540" on="1"/>
        <pt x="440" y="540" on="1"/>
        <pt x="414" y="566" on="0"/>
        <pt x="380" y="638" on="0"/>
        <pt x="380" y="680" on="1"/>
        <pt x="190" y="680" on="1"/>
        <pt x="190" y="380" on="1"/>
        <pt x="285" y="380" on="1"/>
        <pt x="330" y="470" on="1"/>
        <pt x="340" y="470" on="1"/>
        <pt x="340" y="270" on="1"/>
        <pt x="330" y="270" on="1"/>
        <pt x="285" y="360" on="1"/>
        <pt x="190" y="360" on="1"/>
        <pt x="190" y="20" on="1"/>
      </contour>
    </TTGlyph>
    <TTGlyph name="afii10023" xMin="45" yMin="0" xMax="460" yMax="860">
      <contour>
        <pt x="390" y="20" on="1"/>
        <pt x="390" y="62" on="0"/>
        <pt x="424" y="134" on="0"/>
        <pt x="450" y="160" on="1"/>
        <pt x="460" y="160" on="1"/>
        <pt x="458" y="147" on="0"/>
        <pt x="457" y="133" on="1"/>
        <pt x="456" y="121" on="0"/>
        <pt x="455" y="93" on="0"/>
        <pt x="455" y="80" on="1"/>
        <pt x="455" y="61" on="0"/>
        <pt x="456" y="32" on="0"/>
        <pt x="457" y="21" on="1"/>
        <pt x="458" y="9" on="0"/>
        <pt x="460" y="0" on="1"/>
        <pt x="45" y="0" on="1"/>
        <pt x="45" y="10" on="1"/>
        <pt x="105" y="25" on="1"/>
        <pt x="105" y="675" on="1"/>
        <pt x="45" y="690" on="1"/>
        <pt x="45" y="700" on="1"/>
        <pt x="450" y="700" on="1"/>
        <pt x="448" y="691" on="0"/>
        <pt x="447" y="679" on="1"/>
        <pt x="446" y="668" on="0"/>
        <pt x="445" y="639" on="0"/>
        <pt x="445" y="620" on="1"/>
        <pt x="445" y="606" on="0"/>
        <pt x="446" y="579" on="0"/>
        <pt x="447" y="567" on="1"/>
        <pt x="448" y="553" on="0"/>
        <pt x="450" y="540" on="1"/>
        <pt x="440" y="540" on="1"/>
        <pt x="414" y="566" on="0"/>
        <pt x="380" y="638" on="0"/>
        <pt x="380" y="680" on="1"/>
        <pt x="190" y="680" on="1"/>
        <pt x="190" y="380" on="1"/>
        <pt x="285" y="380" on="1"/>
        <pt x="330" y="470" on="1"/>
        <pt x="340" y="470" on="1"/>
        <pt x="340" y="270" on="1"/>
        <pt x="330" y="270" on="1"/>
        <pt x="285" y="360" on="1"/>
        <pt x="190" y="360" on="1"/>
        <pt x="190" y="20" on="1"/>
      </contour>
      <contour>
        <pt x="235" y="810" on="1"/>
        <pt x="235" y="791" on="0"/>
        <pt x="204" y="760" on="0"/>
        <pt x="185" y="760" on="1"/>
        <pt x="166" y="760" on="0"/>
        <pt x="135" y="791" on="0"/>
        <pt x="135" y="810" on="1"/>
        <pt x="135" y="829" on="0"/>
        <pt x="166" y="860" on="0"/>
        <pt x="185" y="860" on="1"/>
        <pt x="204" y="860" on="0"/>
        <pt x="235" y="829" on="0"/>
      </contour>
      <contour>
        <pt x="400" y="810" on="1"/>
        <pt x="400" y="791" on="0"/>
        <pt x="369" y="760" on="0"/>
        <pt x="350" y="760" on="1"/>
        <pt x="331" y="760" on="0"/>
        <pt x="300" y="791" on="0"/>
        <pt x="300" y="810" on="1"/>
        <pt x="300" y="829" on="0"/>
        <pt x="331" y="860" on="0"/>
        <pt x="350" y="860" on="1"/>
        <pt x="369" y="860" on="0"/>
        <pt x="400" y="829" on="0"/>
      </contour>
    </TTGlyph>
    <TTGlyph name="afii10024" xMin="-20" yMin="0" xMax="795" yMax="710">
      <contour>
        <pt x="285" y="10" on="1"/>
        <pt x="345" y="25" on="1"/>
        <pt x="345" y="250" on="1"/>
        <pt x="297" y="354" on="1"/>
        <pt x="131" y="25" on="1"/>
        <pt x="191" y="10" on="1"/>
        <pt x="191" y="0" on="1"/>
        <pt x="-20" y="0" on="1"/>
        <pt x="-20" y="10" on="1"/>
        <pt x="40" y="25" on="1"/>
        <pt x="254" y="449" on="1"/>
        <pt x="200" y="565" on="1"/>
        <pt x="185" y="597" on="0"/>
        <pt x="135" y="635" on="0"/>
        <pt x="90" y="635" on="1"/>
        <pt x="82" y="635" on="0"/>
        <pt x="70" y="633" on="0"/>
        <pt x="65" y="632" on="1"/>
        <pt x="60" y="631" on="0"/>
        <pt x="55" y="630" on="1"/>
        <pt x="70" y="705" on="1"/>
        <pt x="75" y="706" on="0"/>
        <pt x="79" y="707" on="1"/>
        <pt x="83" y="708" on="0"/>
        <pt x="91" y="710" on="0"/>
        <pt x="95" y="710" on="1"/>
        <pt x="110" y="710" on="0"/>
        <pt x="138" y="697" on="0"/>
        <pt x="167" y="664" on="0"/>
        <pt x="200" y="608" on="0"/>
        <pt x="220" y="565" on="1"/>
        <pt x="345" y="295" on="1"/>
        <pt x="345" y="675" on="1"/>
        <pt x="285" y="690" on="1"/>
        <pt x="285" y="700" on="1"/>
        <pt x="490" y="700" on="1"/>
        <pt x="490" y="690" on="1"/>
        <pt x="430" y="675" on="1"/>
        <pt x="430" y="295" on="1"/>
        <pt x="555" y="565" on="1"/>
        <pt x="575" y="608" on="0"/>
        <pt x="608" y="664" on="0"/>
        <pt x="637" y="697" on="0"/>
        <pt x="665" y="710" on="0"/>
        <pt x="680" y="710" on="1"/>
        <pt x="684" y="710" on="0"/>
        <pt x="692" y="708" on="0"/>
        <pt x="696" y="707" on="1"/>
        <pt x="700" y="706" on="0"/>
        <pt x="705" y="705" on="1"/>
        <pt x="720" y="630" on="1"/>
        <pt x="715" y="631" on="0"/>
        <pt x="710" y="632" on="1"/>
        <pt x="705" y="633" on="0"/>
        <pt x="693" y="635" on="0"/>
        <pt x="685" y="635" on="1"/>
        <pt x="640" y="635" on="0"/>
        <pt x="590" y="597" on="0"/>
        <pt x="575" y="565" on="1"/>
        <pt x="521" y="449" on="1"/>
        <pt x="735" y="25" on="1"/>
        <pt x="795" y="10" on="1"/>
        <pt x="795" y="0" on="1"/>
        <pt x="584" y="0" on="1"/>
        <pt x="584" y="10" on="1"/>
        <pt x="644" y="25" on="1"/>
        <pt x="478" y="354" on="1"/>
        <pt x="430" y="250" on="1"/>
        <pt x="430" y="25" on="1"/>
        <pt x="490" y="10" on="1"/>
        <pt x="490" y="0" on="1"/>
        <pt x="285" y="0" on="1"/>
      </contour>
    </TTGlyph>
    <TTGlyph name="afii10025" xMin="20" yMin="-15" xMax="435" yMax="715">
      <contour>
        <pt x="230" y="715" on="1"/>
        <pt x="267" y="715" on="0"/>
        <pt x="330" y="690" on="0"/>
        <pt x="375" y="647" on="0"/>
        <pt x="400" y="589" on="0"/>
        <pt x="400" y="555" on="1"/>
        <pt x="400" y="529" on="0"/>
        <pt x="387" y="488" on="0"/>
        <pt x="366" y="457" on="0"/>
        <pt x="339" y="434" on="0"/>
        <pt x="325" y="427" on="1"/>
        <pt x="292" y="409" on="0"/>
        <pt x="250" y="405" on="1"/>
        <pt x="302" y="400" on="0"/>
        <pt x="342" y="376" on="1"/>
        <pt x="359" y="366" on="0"/>
        <pt x="393" y="336" on="0"/>
        <pt x="419" y="293" on="0"/>
        <pt x="435" y="236" on="0"/>
        <pt x="435" y="200" on="1"/>
        <pt x="435" y="155" on="0"/>
        <pt x="401" y="77" on="0"/>
        <pt x="341" y="18" on="0"/>
        <pt x="259" y="-15" on="0"/>
        <pt x="210" y="-15" on="1"/>
        <pt x="169" y="-15" on="0"/>
        <pt x="99" y="13" on="0"/>
        <pt x="48" y="60" on="0"/>
        <pt x="20" y="121" on="0"/>
        <pt x="20" y="155" on="1"/>
        <pt x="20" y="234" on="0"/>
        <pt x="79" y="305" on="0"/>
        <pt x="120" y="305" on="1"/>
        <pt x="125" y="305" on="0"/>
        <pt x="136" y="303" on="0"/>
        <pt x="141" y="302" on="1"/>
        <pt x="146" y="301" on="0"/>
        <pt x="150" y="300" on="1"/>
        <pt x="130" y="220" on="1"/>
        <pt x="40" y="220" on="0"/>
        <pt x="40" y="135" on="1"/>
        <pt x="40" y="112" on="0"/>
        <pt x="65" y="66" on="0"/>
        <pt x="108" y="29" on="0"/>
        <pt x="166" y="5" on="0"/>
        <pt x="200" y="5" on="1"/>
        <pt x="260" y="5" on="0"/>
        <pt x="340" y="99" on="0"/>
        <pt x="340" y="200" on="1"/>
        <pt x="340" y="301" on="0"/>
        <pt x="260" y="395" on="0"/>
        <pt x="200" y="395" on="1"/>
        <pt x="170" y="395" on="1"/>
        <pt x="170" y="415" on="1"/>
        <pt x="200" y="415" on="1"/>
        <pt x="249" y="415" on="0"/>
        <pt x="315" y="487" on="0"/>
        <pt x="315" y="555" on="1"/>
        <pt x="315" y="589" on="0"/>
        <pt x="298" y="641" on="0"/>
        <pt x="271" y="677" on="0"/>
        <pt x="237" y="695" on="0"/>
        <pt x="220" y="695" on="1"/>
        <pt x="175" y="695" on="0"/>
        <pt x="98" y="608" on="0"/>
        <pt x="75" y="525" on="1"/>
        <pt x="60" y="525" on="1"/>
        <pt x="61" y="540" on="0"/>
        <pt x="62" y="556" on="1"/>
        <pt x="63" y="570" on="0"/>
        <pt x="65" y="603" on="0"/>
        <pt x="65" y="620" on="1"/>
        <pt x="65" y="635" on="0"/>
        <pt x="63" y="666" on="0"/>
        <pt x="62" y="680" on="1"/>
        <pt x="61" y="695" on="0"/>
        <pt x="60" y="710" on="1"/>
        <pt x="75" y="710" on="1"/>
        <pt x="90" y="706" on="0"/>
        <pt x="117" y="679" on="0"/>
        <pt x="125" y="664" on="1"/>
        <pt x="137" y="678" on="0"/>
        <pt x="153" y="689" on="1"/>
        <pt x="167" y="699" on="0"/>
        <pt x="205" y="715" on="0"/>
      </contour>
    </TTGlyph>
    <TTGlyph name="afii10026" xMin="45" yMin="0" xMax="540" yMax="700">
      <contour>
        <pt x="190" y="130" on="1"/>
        <pt x="190" y="25" on="1"/>
        <pt x="250" y="10" on="1"/>
        <pt x="250" y="0" on="1"/>
        <pt x="45" y="0" on="1"/>
        <pt x="45" y="10" on="1"/>
        <pt x="105" y="25" on="1"/>
        <pt x="105" y="675" on="1"/>
        <pt x="45" y="690" on="1"/>
        <pt x="45" y="700" on="1"/>
        <pt x="250" y="700" on="1"/>
        <pt x="250" y="690" on="1"/>
        <pt x="190" y="675" on="1"/>
        <pt x="190" y="170" on="1"/>
        <pt x="395" y="580" on="1"/>
        <pt x="395" y="675" on="1"/>
        <pt x="335" y="690" on="1"/>
        <pt x="335" y="700" on="1"/>
        <pt x="540" y="700" on="1"/>
        <pt x="540" y="690" on="1"/>
        <pt x="480" y="675" on="1"/>
        <pt x="480" y="25" on="1"/>
        <pt x="540" y="10" on="1"/>
        <pt x="540" y="0" on="1"/>
        <pt x="335" y="0" on="1"/>
        <pt x="335" y="10" on="1"/>
        <pt x="395" y="25" on="1"/>
        <pt x="395" y="540" on="1"/>
      </contour>
    </TTGlyph>
    <TTGlyph name="afii10027" xMin="45" yMin="0" xMax="540" yMax="875">
      <contour>
        <pt x="190" y="130" on="1"/>
        <pt x="190" y="25" on="1"/>
        <pt x="250" y="10" on="1"/>
        <pt x="250" y="0" on="1"/>
        <pt x="45" y="0" on="1"/>
        <pt x="45" y="10" on="1"/>
        <pt x="105" y="25" on="1"/>
        <pt x="105" y="675" on="1"/>
        <pt x="45" y="690" on="1"/>
        <pt x="45" y="700" on="1"/>
        <pt x="250" y="700" on="1"/>
        <pt x="250" y="690" on="1"/>
        <pt x="190" y="675" on="1"/>
        <pt x="190" y="170" on="1"/>
        <pt x="395" y="580" on="1"/>
        <pt x="395" y="675" on="1"/>
        <pt x="335" y="690" on="1"/>
        <pt x="335" y="700" on="1"/>
        <pt x="540" y="700" on="1"/>
        <pt x="540" y="690" on="1"/>
        <pt x="480" y="675" on="1"/>
        <pt x="480" y="25" on="1"/>
        <pt x="540" y="10" on="1"/>
        <pt x="540" y="0" on="1"/>
        <pt x="335" y="0" on="1"/>
        <pt x="335" y="10" on="1"/>
        <pt x="395" y="25" on="1"/>
        <pt x="395" y="540" on="1"/>
      </contour>
      <contour>
        <pt x="295" y="780" on="1"/>
        <pt x="314" y="780" on="0"/>
        <pt x="340" y="809" on="0"/>
        <pt x="340" y="835" on="1"/>
        <pt x="340" y="843" on="0"/>
        <pt x="338" y="856" on="0"/>
        <pt x="337" y="862" on="1"/>
        <pt x="336" y="868" on="0"/>
        <pt x="335" y="875" on="1"/>
        <pt x="405" y="875" on="1"/>
        <pt x="406" y="871" on="0"/>
        <pt x="407" y="866" on="1"/>
        <pt x="408" y="861" on="0"/>
        <pt x="410" y="850" on="0"/>
        <pt x="410" y="845" on="1"/>
        <pt x="410" y="811" on="0"/>
        <pt x="355" y="765" on="0"/>
        <pt x="295" y="765" on="1"/>
        <pt x="235" y="765" on="0"/>
        <pt x="180" y="811" on="0"/>
        <pt x="180" y="845" on="1"/>
        <pt x="180" y="850" on="0"/>
        <pt x="181" y="861" on="0"/>
        <pt x="182" y="866" on="1"/>
        <pt x="183" y="871" on="0"/>
        <pt x="185" y="875" on="1"/>
        <pt x="255" y="875" on="1"/>
        <pt x="253" y="868" on="0"/>
        <pt x="252" y="862" on="1"/>
        <pt x="251" y="856" on="0"/>
        <pt x="250" y="843" on="0"/>
        <pt x="250" y="835" on="1"/>
        <pt x="250" y="809" on="0"/>
        <pt x="276" y="780" on="0"/>
      </contour>
    </TTGlyph>
    <TTGlyph name="afii10028" xMin="45" yMin="0" xMax="560" yMax="710">
      <contour>
        <pt x="190" y="252" on="1"/>
        <pt x="190" y="25" on="1"/>
        <pt x="250" y="10" on="1"/>
        <pt x="250" y="0" on="1"/>
        <pt x="45" y="0" on="1"/>
        <pt x="45" y="10" on="1"/>
        <pt x="105" y="25" on="1"/>
        <pt x="105" y="675" on="1"/>
        <pt x="45" y="690" on="1"/>
        <pt x="45" y="700" on="1"/>
        <pt x="250" y="700" on="1"/>
        <pt x="250" y="690" on="1"/>
        <pt x="190" y="675" on="1"/>
        <pt x="190" y="295" on="1"/>
        <pt x="315" y="565" on="1"/>
        <pt x="335" y="608" on="0"/>
        <pt x="368" y="664" on="0"/>
        <pt x="397" y="697" on="0"/>
        <pt x="425" y="710" on="0"/>
        <pt x="440" y="710" on="1"/>
        <pt x="444" y="710" on="0"/>
        <pt x="452" y="708" on="0"/>
        <pt x="456" y="707" on="1"/>
        <pt x="460" y="706" on="0"/>
        <pt x="465" y="705" on="1"/>
        <pt x="480" y="630" on="1"/>
        <pt x="475" y="631" on="0"/>
        <pt x="470" y="632" on="1"/>
        <pt x="465" y="633" on="0"/>
        <pt x="453" y="635" on="0"/>
        <pt x="445" y="635" on="1"/>
        <pt x="400" y="635" on="0"/>
        <pt x="349" y="595" on="0"/>
        <pt x="335" y="565" on="1"/>
        <pt x="285" y="455" on="1"/>
        <pt x="500" y="25" on="1"/>
        <pt x="560" y="10" on="1"/>
        <pt x="560" y="0" on="1"/>
        <pt x="349" y="0" on="1"/>
        <pt x="349" y="10" on="1"/>
        <pt x="409" y="25" on="1"/>
        <pt x="241" y="361" on="1"/>
      </contour>
    </TTGlyph>
    <TTGlyph name="afii10029" xMin="-10" yMin="-20" xMax="490" yMax="700">
      <contour>
        <pt x="160" y="430" on="1"/>
        <pt x="160" y="333" on="0"/>
        <pt x="151" y="190" on="0"/>
        <pt x="134" y="90" on="0"/>
        <pt x="110" y="27" on="0"/>
        <pt x="82" y="-8" on="0"/>
        <pt x="51" y="-20" on="0"/>
        <pt x="35" y="-20" on="1"/>
        <pt x="29" y="-20" on="0"/>
        <pt x="19" y="-19" on="0"/>
        <pt x="14" y="-18" on="1"/>
        <pt x="9" y="-17" on="0"/>
        <pt x="5" y="-15" on="1"/>
        <pt x="-10" y="60" on="1"/>
        <pt x="-6" y="58" on="0"/>
        <pt x="-1" y="57" on="1"/>
        <pt x="4" y="56" on="0"/>
        <pt x="14" y="55" on="0"/>
        <pt x="20" y="55" on="1"/>
        <pt x="46" y="55" on="0"/>
        <pt x="90" y="81" on="0"/>
        <pt x="122" y="160" on="0"/>
        <pt x="140" y="308" on="0"/>
        <pt x="140" y="430" on="1"/>
        <pt x="140" y="670" on="1"/>
        <pt x="75" y="690" on="1"/>
        <pt x="75" y="700" on="1"/>
        <pt x="490" y="700" on="1"/>
        <pt x="490" y="690" on="1"/>
        <pt x="430" y="675" on="1"/>
        <pt x="430" y="25" on="1"/>
        <pt x="490" y="10" on="1"/>
        <pt x="490" y="0" on="1"/>
        <pt x="285" y="0" on="1"/>
        <pt x="285" y="10" on="1"/>
        <pt x="345" y="25" on="1"/>
        <pt x="345" y="680" on="1"/>
        <pt x="160" y="680" on="1"/>
      </contour>
    </TTGlyph>
    <TTGlyph name="afii10030" xMin="40" yMin="-15" xMax="740" yMax="700">
      <contour>
        <pt x="600" y="700" on="1"/>
        <pt x="740" y="700" on="1"/>
        <pt x="740" y="690" on="1"/>
        <pt x="680" y="675" on="1"/>
        <pt x="680" y="25" on="1"/>
        <pt x="740" y="10" on="1"/>
        <pt x="740" y="0" on="1"/>
        <pt x="535" y="0" on="1"/>
        <pt x="535" y="10" on="1"/>
        <pt x="595" y="25" on="1"/>
        <pt x="595" y="615" on="1"/>
        <pt x="380" y="-15" on="1"/>
        <pt x="365" y="-15" on="1"/>
        <pt x="125" y="615" on="1"/>
        <pt x="125" y="35" on="1"/>
        <pt x="190" y="10" on="1"/>
        <pt x="190" y="0" on="1"/>
        <pt x="40" y="0" on="1"/>
        <pt x="40" y="10" on="1"/>
        <pt x="105" y="35" on="1"/>
        <pt x="105" y="670" on="1"/>
        <pt x="40" y="690" on="1"/>
        <pt x="40" y="700" on="1"/>
        <pt x="185" y="700" on="1"/>
        <pt x="404" y="125" on="1"/>
      </contour>
    </TTGlyph>
    <TTGlyph name="afii10031" xMin="45" yMin="0" xMax="540" yMax="700">
      <contour>
        <pt x="190" y="360" on="1"/>
        <pt x="190" y="25" on="1"/>
        <pt x="250" y="10" on="1"/>
        <pt x="250" y="0" on="1"/>
        <pt x="45" y="0" on="1"/>
        <pt x="45" y="10" on="1"/>
        <pt x="105" y="25" on="1"/>
        <pt x="105" y="675" on="1"/>
        <pt x="45" y="690" on="1"/>
        <pt x="45" y="700" on="1"/>
        <pt x="250" y="700" on="1"/>
        <pt x="250" y="690" on="1"/>
        <pt x="190" y="675" on="1"/>
        <pt x="190" y="380" on="1"/>
        <pt x="395" y="380" on="1"/>
        <pt x="395" y="675" on="1"/>
        <pt x="335" y="690" on="1"/>
        <pt x="335" y="700" on="1"/>
        <pt x="540" y="700" on="1"/>
        <pt x="540" y="690" on="1"/>
        <pt x="480" y="675" on="1"/>
        <pt x="480" y="25" on="1"/>
        <pt x="540" y="10" on="1"/>
        <pt x="540" y="0" on="1"/>
        <pt x="335" y="0" on="1"/>
        <pt x="335" y="10" on="1"/>
        <pt x="395" y="25" on="1"/>
        <pt x="395" y="360" on="1"/>
      </contour>
    </TTGlyph>
    <TTGlyph name="afii10032" xMin="40" yMin="-15" xMax="510" yMax="715">
      <contour>
        <pt x="510" y="350" on="1"/>
        <pt x="510" y="258" on="0"/>
        <pt x="469" y="121" on="0"/>
        <pt x="402" y="30" on="0"/>
        <pt x="318" y="-15" on="0"/>
        <pt x="275" y="-15" on="1"/>
        <pt x="232" y="-15" on="0"/>
        <pt x="148" y="30" on="0"/>
        <pt x="81" y="121" on="0"/>
        <pt x="40" y="258" on="0"/>
        <pt x="40" y="350" on="1"/>
        <pt x="40" y="442" on="0"/>
        <pt x="81" y="579" on="0"/>
        <pt x="148" y="670" on="0"/>
        <pt x="232" y="715" on="0"/>
        <pt x="275" y="715" on="1"/>
        <pt x="318" y="715" on="0"/>
        <pt x="402" y="670" on="0"/>
        <pt x="469" y="579" on="0"/>
        <pt x="510" y="442" on="0"/>
      </contour>
      <contour>
        <pt x="415" y="350" on="1"/>
        <pt x="415" y="453" on="0"/>
        <pt x="390" y="588" on="0"/>
        <pt x="349" y="668" on="0"/>
        <pt x="299" y="700" on="0"/>
        <pt x="275" y="700" on="1"/>
        <pt x="251" y="700" on="0"/>
        <pt x="201" y="668" on="0"/>
        <pt x="160" y="588" on="0"/>
        <pt x="135" y="453" on="0"/>
        <pt x="135" y="350" on="1"/>
        <pt x="135" y="247" on="0"/>
        <pt x="160" y="112" on="0"/>
        <pt x="201" y="32" on="0"/>
        <pt x="251" y="0" on="0"/>
        <pt x="275" y="0" on="1"/>
        <pt x="299" y="0" on="0"/>
        <pt x="349" y="32" on="0"/>
        <pt x="390" y="112" on="0"/>
        <pt x="415" y="247" on="0"/>
      </contour>
    </TTGlyph>
    <TTGlyph name="afii10033" xMin="45" yMin="0" xMax="540" yMax="700">
      <contour>
        <pt x="250" y="10" on="1"/>
        <pt x="250" y="0" on="1"/>
        <pt x="45" y="0" on="1"/>
        <pt x="45" y="10" on="1"/>
        <pt x="105" y="25" on="1"/>
        <pt x="105" y="675" on="1"/>
        <pt x="45" y="690" on="1"/>
        <pt x="45" y="700" on="1"/>
        <pt x="540" y="700" on="1"/>
        <pt x="540" y="690" on="1"/>
        <pt x="480" y="675" on="1"/>
        <pt x="480" y="25" on="1"/>
        <pt x="540" y="10" on="1"/>
        <pt x="540" y="0" on="1"/>
        <pt x="335" y="0" on="1"/>
        <pt x="335" y="10" on="1"/>
        <pt x="395" y="25" on="1"/>
        <pt x="395" y="680" on="1"/>
        <pt x="190" y="680" on="1"/>
        <pt x="190" y="25" on="1"/>
      </contour>
    </TTGlyph>
    <TTGlyph name="afii10034" xMin="45" yMin="0" xMax="485" yMax="700">
      <contour>
        <pt x="190" y="250" on="1"/>
        <pt x="190" y="25" on="1"/>
        <pt x="250" y="10" on="1"/>
        <pt x="250" y="0" on="1"/>
        <pt x="45" y="0" on="1"/>
        <pt x="45" y="10" on="1"/>
        <pt x="105" y="25" on="1"/>
        <pt x="105" y="675" on="1"/>
        <pt x="45" y="690" on="1"/>
        <pt x="45" y="700" on="1"/>
        <pt x="225" y="700" on="1"/>
        <pt x="287" y="700" on="0"/>
        <pt x="384" y="666" on="0"/>
        <pt x="450" y="606" on="0"/>
        <pt x="485" y="524" on="0"/>
        <pt x="485" y="475" on="1"/>
        <pt x="485" y="426" on="0"/>
        <pt x="450" y="344" on="0"/>
        <pt x="384" y="284" on="0"/>
        <pt x="287" y="250" on="0"/>
        <pt x="225" y="250" on="1"/>
      </contour>
      <contour>
        <pt x="190" y="270" on="1"/>
        <pt x="225" y="270" on="1"/>
        <pt x="304" y="270" on="0"/>
        <pt x="390" y="366" on="0"/>
        <pt x="390" y="475" on="1"/>
        <pt x="390" y="584" on="0"/>
        <pt x="304" y="680" on="0"/>
        <pt x="225" y="680" on="1"/>
        <pt x="190" y="680" on="1"/>
      </contour>
    </TTGlyph>
    <TTGlyph name="afii10035" xMin="40" yMin="-15" xMax="470" yMax="715">
      <contour>
        <pt x="285" y="695" on="1"/>
        <pt x="257" y="695" on="0"/>
        <pt x="203" y="663" on="0"/>
        <pt x="161" y="584" on="0"/>
        <pt x="135" y="451" on="0"/>
        <pt x="135" y="350" on="1"/>
        <pt x="135" y="249" on="0"/>
        <pt x="161" y="116" on="0"/>
        <pt x="205" y="37" on="0"/>
        <pt x="263" y="5" on="0"/>
        <pt x="295" y="5" on="1"/>
        <pt x="321" y="5" on="0"/>
        <pt x="375" y="33" on="0"/>
        <pt x="420" y="83" on="0"/>
        <pt x="451" y="151" on="0"/>
        <pt x="455" y="190" on="1"/>
        <pt x="470" y="190" on="1"/>
        <pt x="466" y="145" on="0"/>
        <pt x="434" y="70" on="0"/>
        <pt x="385" y="15" on="0"/>
        <pt x="321" y="-15" on="0"/>
        <pt x="285" y="-15" on="1"/>
        <pt x="238" y="-15" on="0"/>
        <pt x="150" y="30" on="0"/>
        <pt x="81" y="121" on="0"/>
        <pt x="40" y="258" on="0"/>
        <pt x="40" y="350" on="1"/>
        <pt x="40" y="442" on="0"/>
        <pt x="81" y="579" on="0"/>
        <pt x="148" y="670" on="0"/>
        <pt x="232" y="715" on="0"/>
        <pt x="275" y="715" on="1"/>
        <pt x="299" y="715" on="0"/>
        <pt x="338" y="699" on="0"/>
        <pt x="352" y="689" on="1"/>
        <pt x="368" y="678" on="0"/>
        <pt x="380" y="664" on="1"/>
        <pt x="388" y="679" on="0"/>
        <pt x="415" y="706" on="0"/>
        <pt x="430" y="710" on="1"/>
        <pt x="445" y="710" on="1"/>
        <pt x="443" y="695" on="0"/>
        <pt x="442" y="680" on="1"/>
        <pt x="441" y="666" on="0"/>
        <pt x="440" y="635" on="0"/>
        <pt x="440" y="620" on="1"/>
        <pt x="440" y="603" on="0"/>
        <pt x="441" y="570" on="0"/>
        <pt x="442" y="556" on="1"/>
        <pt x="443" y="540" on="0"/>
        <pt x="445" y="525" on="1"/>
        <pt x="430" y="525" on="1"/>
        <pt x="407" y="608" on="0"/>
        <pt x="330" y="695" on="0"/>
      </contour>
    </TTGlyph>
    <TTGlyph name="afii10036" xMin="30" yMin="0" xMax="465" yMax="700">
      <contour>
        <pt x="290" y="25" on="1"/>
        <pt x="350" y="10" on="1"/>
        <pt x="350" y="0" on="1"/>
        <pt x="145" y="0" on="1"/>
        <pt x="145" y="10" on="1"/>
        <pt x="205" y="25" on="1"/>
        <pt x="205" y="680" on="1"/>
        <pt x="100" y="680" on="1"/>
        <pt x="100" y="638" on="0"/>
        <pt x="66" y="566" on="0"/>
        <pt x="40" y="540" on="1"/>
        <pt x="30" y="540" on="1"/>
        <pt x="31" y="553" on="0"/>
        <pt x="32" y="567" on="1"/>
        <pt x="33" y="579" on="0"/>
        <pt x="35" y="606" on="0"/>
        <pt x="35" y="620" on="1"/>
        <pt x="35" y="639" on="0"/>
        <pt x="33" y="668" on="0"/>
        <pt x="32" y="679" on="1"/>
        <pt x="31" y="691" on="0"/>
        <pt x="30" y="700" on="1"/>
        <pt x="465" y="700" on="1"/>
        <pt x="463" y="691" on="0"/>
        <pt x="462" y="679" on="1"/>
        <pt x="461" y="668" on="0"/>
        <pt x="460" y="639" on="0"/>
        <pt x="460" y="620" on="1"/>
        <pt x="460" y="606" on="0"/>
        <pt x="461" y="579" on="0"/>
        <pt x="462" y="567" on="1"/>
        <pt x="463" y="553" on="0"/>
        <pt x="465" y="540" on="1"/>
        <pt x="455" y="540" on="1"/>
        <pt x="429" y="566" on="0"/>
        <pt x="395" y="638" on="0"/>
        <pt x="395" y="680" on="1"/>
        <pt x="290" y="680" on="1"/>
      </contour>
    </TTGlyph>
    <TTGlyph name="afii10037" xMin="-10" yMin="-40" xMax="510" yMax="700">
      <contour>
        <pt x="299" y="252" on="1"/>
        <pt x="425" y="665" on="1"/>
        <pt x="360" y="690" on="1"/>
        <pt x="360" y="700" on="1"/>
        <pt x="510" y="700" on="1"/>
        <pt x="510" y="690" on="1"/>
        <pt x="445" y="665" on="1"/>
        <pt x="278" y="120" on="1"/>
        <pt x="264" y="75" on="0"/>
        <pt x="234" y="14" on="0"/>
        <pt x="200" y="-24" on="0"/>
        <pt x="159" y="-40" on="0"/>
        <pt x="135" y="-40" on="1"/>
        <pt x="129" y="-40" on="0"/>
        <pt x="119" y="-39" on="0"/>
        <pt x="114" y="-38" on="1"/>
        <pt x="109" y="-37" on="0"/>
        <pt x="105" y="-35" on="1"/>
        <pt x="90" y="35" on="1"/>
        <pt x="94" y="33" on="0"/>
        <pt x="99" y="32" on="1"/>
        <pt x="104" y="31" on="0"/>
        <pt x="114" y="30" on="0"/>
        <pt x="120" y="30" on="1"/>
        <pt x="184" y="30" on="0"/>
        <pt x="244" y="78" on="0"/>
        <pt x="258" y="120" on="1"/>
        <pt x="50" y="675" on="1"/>
        <pt x="-10" y="690" on="1"/>
        <pt x="-10" y="700" on="1"/>
        <pt x="200" y="700" on="1"/>
        <pt x="200" y="690" on="1"/>
        <pt x="140" y="675" on="1"/>
      </contour>
    </TTGlyph>
    <TTGlyph name="afii10038" xMin="25" yMin="-10" xMax="690" yMax="710">
      <contour>
        <pt x="400" y="15" on="1"/>
        <pt x="460" y="0" on="1"/>
        <pt x="460" y="-10" on="1"/>
        <pt x="255" y="-10" on="1"/>
        <pt x="255" y="0" on="1"/>
        <pt x="315" y="15" on="1"/>
        <pt x="315" y="70" on="1"/>
        <pt x="251" y="74" on="0"/>
        <pt x="145" y="120" on="0"/>
        <pt x="68" y="197" on="0"/>
        <pt x="25" y="300" on="0"/>
        <pt x="25" y="360" on="1"/>
        <pt x="25" y="420" on="0"/>
        <pt x="68" y="523" on="0"/>
        <pt x="145" y="600" on="0"/>
        <pt x="251" y="646" on="0"/>
        <pt x="315" y="650" on="1"/>
        <pt x="315" y="685" on="1"/>
        <pt x="255" y="700" on="1"/>
        <pt x="255" y="710" on="1"/>
        <pt x="460" y="710" on="1"/>
        <pt x="460" y="700" on="1"/>
        <pt x="400" y="685" on="1"/>
        <pt x="400" y="650" on="1"/>
        <pt x="464" y="646" on="0"/>
        <pt x="570" y="600" on="0"/>
        <pt x="647" y="523" on="0"/>
        <pt x="690" y="420" on="0"/>
        <pt x="690" y="360" on="1"/>
        <pt x="690" y="300" on="0"/>
        <pt x="647" y="197" on="0"/>
        <pt x="570" y="120" on="0"/>
        <pt x="464" y="74" on="0"/>
        <pt x="400" y="70" on="1"/>
      </contour>
      <contour>
        <pt x="595" y="360" on="1"/>
        <pt x="595" y="427" on="0"/>
        <pt x="566" y="526" on="0"/>
        <pt x="515" y="592" on="0"/>
        <pt x="443" y="627" on="0"/>
        <pt x="400" y="631" on="1"/>
        <pt x="400" y="90" on="1"/>
        <pt x="443" y="94" on="0"/>
        <pt x="515" y="128" on="0"/>
        <pt x="566" y="194" on="0"/>
        <pt x="595" y="292" on="0"/>
      </contour>
      <contour>
        <pt x="120" y="360" on="1"/>
        <pt x="120" y="292" on="0"/>
        <pt x="149" y="194" on="0"/>
        <pt x="200" y="128" on="0"/>
        <pt x="272" y="94" on="0"/>
        <pt x="315" y="90" on="1"/>
        <pt x="315" y="631" on="1"/>
        <pt x="272" y="627" on="0"/>
        <pt x="200" y="592" on="0"/>
        <pt x="149" y="526" on="0"/>
        <pt x="120" y="427" on="0"/>
      </contour>
    </TTGlyph>
    <TTGlyph name="afii10039" xMin="-5" yMin="0" xMax="510" yMax="700">
      <contour>
        <pt x="216" y="326" on="1"/>
        <pt x="55" y="675" on="1"/>
        <pt x="-5" y="690" on="1"/>
        <pt x="-5" y="700" on="1"/>
        <pt x="210" y="700" on="1"/>
        <pt x="210" y="690" on="1"/>
        <pt x="150" y="675" on="1"/>
        <pt x="265" y="425" on="1"/>
        <pt x="385" y="665" on="1"/>
        <pt x="320" y="690" on="1"/>
        <pt x="320" y="700" on="1"/>
        <pt x="470" y="700" on="1"/>
        <pt x="470" y="690" on="1"/>
        <pt x="405" y="665" on="1"/>
        <pt x="275" y="404" on="1"/>
        <pt x="450" y="25" on="1"/>
        <pt x="510" y="10" on="1"/>
        <pt x="510" y="0" on="1"/>
        <pt x="295" y="0" on="1"/>
        <pt x="295" y="10" on="1"/>
        <pt x="355" y="25" on="1"/>
        <pt x="225" y="306" on="1"/>
        <pt x="90" y="35" on="1"/>
        <pt x="155" y="10" on="1"/>
        <pt x="155" y="0" on="1"/>
        <pt x="5" y="0" on="1"/>
        <pt x="5" y="10" on="1"/>
        <pt x="70" y="35" on="1"/>
      </contour>
    </TTGlyph>
    <TTGlyph name="afii10040" xMin="45" yMin="-155" xMax="575" yMax="700">
      <contour>
        <pt x="45" y="0" on="1"/>
        <pt x="45" y="10" on="1"/>
        <pt x="105" y="25" on="1"/>
        <pt x="105" y="675" on="1"/>
        <pt x="45" y="690" on="1"/>
        <pt x="45" y="700" on="1"/>
        <pt x="250" y="700" on="1"/>
        <pt x="250" y="690" on="1"/>
        <pt x="190" y="675" on="1"/>
        <pt x="190" y="20" on="1"/>
        <pt x="395" y="20" on="1"/>
        <pt x="395" y="675" on="1"/>
        <pt x="335" y="690" on="1"/>
        <pt x="335" y="700" on="1"/>
        <pt x="540" y="700" on="1"/>
        <pt x="540" y="690" on="1"/>
        <pt x="480" y="675" on="1"/>
        <pt x="480" y="20" on="1"/>
        <pt x="575" y="20" on="1"/>
        <pt x="573" y="8" on="0"/>
        <pt x="572" y="-6" on="1"/>
        <pt x="571" y="-18" on="0"/>
        <pt x="570" y="-48" on="0"/>
        <pt x="570" y="-65" on="1"/>
        <pt x="570" y="-80" on="0"/>
        <pt x="571" y="-112" on="0"/>
        <pt x="572" y="-125" on="1"/>
        <pt x="573" y="-141" on="0"/>
        <pt x="575" y="-155" on="1"/>
        <pt x="565" y="-155" on="1"/>
        <pt x="531" y="-129" on="0"/>
        <pt x="495" y="-49" on="0"/>
        <pt x="495" y="0" on="1"/>
      </contour>
    </TTGlyph>
    <TTGlyph name="afii10041" xMin="15" yMin="0" xMax="510" yMax="700">
      <contour>
        <pt x="365" y="325" on="1"/>
        <pt x="350" y="315" on="0"/>
        <pt x="332" y="307" on="1"/>
        <pt x="316" y="300" on="0"/>
        <pt x="274" y="290" on="0"/>
        <pt x="250" y="290" on="1"/>
        <pt x="163" y="290" on="0"/>
        <pt x="75" y="373" on="0"/>
        <pt x="75" y="445" on="1"/>
        <pt x="75" y="675" on="1"/>
        <pt x="15" y="690" on="1"/>
        <pt x="15" y="700" on="1"/>
        <pt x="220" y="700" on="1"/>
        <pt x="220" y="690" on="1"/>
        <pt x="160" y="675" on="1"/>
        <pt x="160" y="445" on="1"/>
        <pt x="160" y="373" on="0"/>
        <pt x="215" y="310" on="0"/>
        <pt x="260" y="310" on="1"/>
        <pt x="280" y="310" on="0"/>
        <pt x="319" y="320" on="0"/>
        <pt x="333" y="327" on="1"/>
        <pt x="350" y="335" on="0"/>
        <pt x="365" y="345" on="1"/>
        <pt x="365" y="675" on="1"/>
        <pt x="305" y="690" on="1"/>
        <pt x="305" y="700" on="1"/>
        <pt x="510" y="700" on="1"/>
        <pt x="510" y="690" on="1"/>
        <pt x="450" y="675" on="1"/>
        <pt x="450" y="25" on="1"/>
        <pt x="510" y="10" on="1"/>
        <pt x="510" y="0" on="1"/>
        <pt x="305" y="0" on="1"/>
        <pt x="305" y="10" on="1"/>
        <pt x="365" y="25" on="1"/>
      </contour>
    </TTGlyph>
    <TTGlyph name="afii10042" xMin="45" yMin="0" xMax="770" yMax="700">
      <contour>
        <pt x="450" y="675" on="1"/>
        <pt x="450" y="20" on="1"/>
        <pt x="625" y="20" on="1"/>
        <pt x="625" y="675" on="1"/>
        <pt x="565" y="690" on="1"/>
        <pt x="565" y="700" on="1"/>
        <pt x="770" y="700" on="1"/>
        <pt x="770" y="690" on="1"/>
        <pt x="710" y="675" on="1"/>
        <pt x="710" y="25" on="1"/>
        <pt x="770" y="10" on="1"/>
        <pt x="770" y="0" on="1"/>
        <pt x="45" y="0" on="1"/>
        <pt x="45" y="10" on="1"/>
        <pt x="105" y="25" on="1"/>
        <pt x="105" y="675" on="1"/>
        <pt x="45" y="690" on="1"/>
        <pt x="45" y="700" on="1"/>
        <pt x="250" y="700" on="1"/>
        <pt x="250" y="690" on="1"/>
        <pt x="190" y="675" on="1"/>
        <pt x="190" y="20" on="1"/>
        <pt x="365" y="20" on="1"/>
        <pt x="365" y="675" on="1"/>
        <pt x="305" y="690" on="1"/>
        <pt x="305" y="700" on="1"/>
        <pt x="510" y="700" on="1"/>
        <pt x="510" y="690" on="1"/>
      </contour>
    </TTGlyph>
    <TTGlyph name="afii10043" xMin="45" yMin="-155" xMax="805" yMax="700">
      <contour>
        <pt x="45" y="0" on="1"/>
        <pt x="45" y="10" on="1"/>
        <pt x="105" y="25" on="1"/>
        <pt x="105" y="675" on="1"/>
        <pt x="45" y="690" on="1"/>
        <pt x="45" y="700" on="1"/>
        <pt x="250" y="700" on="1"/>
        <pt x="250" y="690" on="1"/>
        <pt x="190" y="675" on="1"/>
        <pt x="190" y="20" on="1"/>
        <pt x="365" y="20" on="1"/>
        <pt x="365" y="675" on="1"/>
        <pt x="305" y="690" on="1"/>
        <pt x="305" y="700" on="1"/>
        <pt x="510" y="700" on="1"/>
        <pt x="510" y="690" on="1"/>
        <pt x="450" y="675" on="1"/>
        <pt x="450" y="20" on="1"/>
        <pt x="625" y="20" on="1"/>
        <pt x="625" y="675" on="1"/>
        <pt x="565" y="690" on="1"/>
        <pt x="565" y="700" on="1"/>
        <pt x="770" y="700" on="1"/>
        <pt x="770" y="690" on="1"/>
        <pt x="710" y="675" on="1"/>
        <pt x="710" y="20" on="1"/>
        <pt x="805" y="20" on="1"/>
        <pt x="803" y="8" on="0"/>
        <pt x="802" y="-6" on="1"/>
        <pt x="801" y="-18" on="0"/>
        <pt x="800" y="-48" on="0"/>
        <pt x="800" y="-65" on="1"/>
        <pt x="800" y="-80" on="0"/>
        <pt x="801" y="-112" on="0"/>
        <pt x="802" y="-125" on="1"/>
        <pt x="803" y="-141" on="0"/>
        <pt x="805" y="-155" on="1"/>
        <pt x="795" y="-155" on="1"/>
        <pt x="761" y="-129" on="0"/>
        <pt x="725" y="-49" on="0"/>
        <pt x="725" y="0" on="1"/>
      </contour>
    </TTGlyph>
    <TTGlyph name="afii10044" xMin="10" yMin="0" xMax="560" yMax="700">
      <contour>
        <pt x="300" y="430" on="1"/>
        <pt x="362" y="430" on="0"/>
        <pt x="459" y="397" on="0"/>
        <pt x="525" y="338" on="0"/>
        <pt x="560" y="260" on="0"/>
        <pt x="560" y="215" on="1"/>
        <pt x="560" y="170" on="0"/>
        <pt x="525" y="92" on="0"/>
        <pt x="459" y="33" on="0"/>
        <pt x="362" y="0" on="0"/>
        <pt x="300" y="0" on="1"/>
        <pt x="120" y="0" on="1"/>
        <pt x="120" y="10" on="1"/>
        <pt x="180" y="25" on="1"/>
        <pt x="180" y="680" on="1"/>
        <pt x="80" y="680" on="1"/>
        <pt x="80" y="638" on="0"/>
        <pt x="46" y="566" on="0"/>
        <pt x="20" y="540" on="1"/>
        <pt x="10" y="540" on="1"/>
        <pt x="11" y="553" on="0"/>
        <pt x="12" y="567" on="1"/>
        <pt x="13" y="579" on="0"/>
        <pt x="15" y="606" on="0"/>
        <pt x="15" y="620" on="1"/>
        <pt x="15" y="639" on="0"/>
        <pt x="13" y="668" on="0"/>
        <pt x="12" y="679" on="1"/>
        <pt x="11" y="691" on="0"/>
        <pt x="10" y="700" on="1"/>
        <pt x="330" y="700" on="1"/>
        <pt x="330" y="690" on="1"/>
        <pt x="265" y="670" on="1"/>
        <pt x="265" y="430" on="1"/>
      </contour>
      <contour>
        <pt x="265" y="20" on="1"/>
        <pt x="300" y="20" on="1"/>
        <pt x="379" y="20" on="0"/>
        <pt x="465" y="113" on="0"/>
        <pt x="465" y="215" on="1"/>
        <pt x="465" y="317" on="0"/>
        <pt x="379" y="410" on="0"/>
        <pt x="300" y="410" on="1"/>
        <pt x="265" y="410" on="1"/>
      </contour>
    </TTGlyph>
    <TTGlyph name="afii10045" xMin="45" yMin="0" xMax="715" yMax="700">
      <contour>
        <pt x="655" y="25" on="1"/>
        <pt x="715" y="10" on="1"/>
        <pt x="715" y="0" on="1"/>
        <pt x="510" y="0" on="1"/>
        <pt x="510" y="10" on="1"/>
        <pt x="570" y="25" on="1"/>
        <pt x="570" y="675" on="1"/>
        <pt x="510" y="690" on="1"/>
        <pt x="510" y="700" on="1"/>
        <pt x="715" y="700" on="1"/>
        <pt x="715" y="690" on="1"/>
        <pt x="655" y="675" on="1"/>
      </contour>
      <contour>
        <pt x="225" y="430" on="1"/>
        <pt x="287" y="430" on="0"/>
        <pt x="384" y="397" on="0"/>
        <pt x="450" y="338" on="0"/>
        <pt x="485" y="260" on="0"/>
        <pt x="485" y="215" on="1"/>
        <pt x="485" y="170" on="0"/>
        <pt x="450" y="92" on="0"/>
        <pt x="384" y="33" on="0"/>
        <pt x="287" y="0" on="0"/>
        <pt x="225" y="0" on="1"/>
        <pt x="45" y="0" on="1"/>
        <pt x="45" y="10" on="1"/>
        <pt x="105" y="25" on="1"/>
        <pt x="105" y="675" on="1"/>
        <pt x="45" y="690" on="1"/>
        <pt x="45" y="700" on="1"/>
        <pt x="250" y="700" on="1"/>
        <pt x="250" y="690" on="1"/>
        <pt x="190" y="675" on="1"/>
        <pt x="190" y="430" on="1"/>
      </contour>
      <contour>
        <pt x="190" y="20" on="1"/>
        <pt x="225" y="20" on="1"/>
        <pt x="304" y="20" on="0"/>
        <pt x="390" y="113" on="0"/>
        <pt x="390" y="215" on="1"/>
        <pt x="390" y="317" on="0"/>
        <pt x="304" y="410" on="0"/>
        <pt x="225" y="410" on="1"/>
        <pt x="190" y="410" on="1"/>
      </contour>
    </TTGlyph>
    <TTGlyph name="afii10046" xMin="45" yMin="0" xMax="485" yMax="700">
      <contour>
        <pt x="225" y="430" on="1"/>
        <pt x="287" y="430" on="0"/>
        <pt x="384" y="397" on="0"/>
        <pt x="450" y="338" on="0"/>
        <pt x="485" y="260" on="0"/>
        <pt x="485" y="215" on="1"/>
        <pt x="485" y="170" on="0"/>
        <pt x="450" y="92" on="0"/>
        <pt x="384" y="33" on="0"/>
        <pt x="287" y="0" on="0"/>
        <pt x="225" y="0" on="1"/>
        <pt x="45" y="0" on="1"/>
        <pt x="45" y="10" on="1"/>
        <pt x="105" y="25" on="1"/>
        <pt x="105" y="675" on="1"/>
        <pt x="45" y="690" on="1"/>
        <pt x="45" y="700" on="1"/>
        <pt x="250" y="700" on="1"/>
        <pt x="250" y="690" on="1"/>
        <pt x="190" y="675" on="1"/>
        <pt x="190" y="430" on="1"/>
      </contour>
      <contour>
        <pt x="190" y="20" on="1"/>
        <pt x="225" y="20" on="1"/>
        <pt x="304" y="20" on="0"/>
        <pt x="390" y="113" on="0"/>
        <pt x="390" y="215" on="1"/>
        <pt x="390" y="317" on="0"/>
        <pt x="304" y="410" on="0"/>
        <pt x="225" y="410" on="1"/>
        <pt x="190" y="410" on="1"/>
      </contour>
    </TTGlyph>
    <TTGlyph name="afii10047" xMin="20" yMin="-15" xMax="450" yMax="715">
      <contour>
        <pt x="205" y="695" on="1"/>
        <pt x="160" y="695" on="0"/>
        <pt x="83" y="608" on="0"/>
        <pt x="60" y="525" on="1"/>
        <pt x="45" y="525" on="1"/>
        <pt x="46" y="540" on="0"/>
        <pt x="47" y="556" on="1"/>
        <pt x="48" y="570" on="0"/>
        <pt x="50" y="603" on="0"/>
        <pt x="50" y="620" on="1"/>
        <pt x="50" y="635" on="0"/>
        <pt x="48" y="666" on="0"/>
        <pt x="47" y="680" on="1"/>
        <pt x="46" y="695" on="0"/>
        <pt x="45" y="710" on="1"/>
        <pt x="60" y="710" on="1"/>
        <pt x="75" y="706" on="0"/>
        <pt x="102" y="679" on="0"/>
        <pt x="110" y="664" on="1"/>
        <pt x="122" y="678" on="0"/>
        <pt x="138" y="689" on="1"/>
        <pt x="152" y="699" on="0"/>
        <pt x="190" y="715" on="0"/>
        <pt x="215" y="715" on="1"/>
        <pt x="258" y="715" on="0"/>
        <pt x="342" y="670" on="0"/>
        <pt x="409" y="579" on="0"/>
        <pt x="450" y="442" on="0"/>
        <pt x="450" y="350" on="1"/>
        <pt x="450" y="258" on="0"/>
        <pt x="409" y="121" on="0"/>
        <pt x="340" y="30" on="0"/>
        <pt x="252" y="-15" on="0"/>
        <pt x="205" y="-15" on="1"/>
        <pt x="169" y="-15" on="0"/>
        <pt x="105" y="15" on="0"/>
        <pt x="56" y="70" on="0"/>
        <pt x="24" y="145" on="0"/>
        <pt x="20" y="190" on="1"/>
        <pt x="35" y="190" on="1"/>
        <pt x="39" y="152" on="0"/>
        <pt x="69" y="85" on="0"/>
        <pt x="113" y="35" on="0"/>
        <pt x="167" y="5" on="0"/>
        <pt x="195" y="5" on="1"/>
        <pt x="227" y="5" on="0"/>
        <pt x="285" y="37" on="0"/>
        <pt x="329" y="116" on="0"/>
        <pt x="355" y="249" on="0"/>
        <pt x="355" y="350" on="1"/>
        <pt x="245" y="350" on="1"/>
        <pt x="200" y="260" on="1"/>
        <pt x="190" y="260" on="1"/>
        <pt x="190" y="460" on="1"/>
        <pt x="200" y="460" on="1"/>
        <pt x="245" y="370" on="1"/>
        <pt x="355" y="370" on="1"/>
        <pt x="353" y="466" on="0"/>
        <pt x="327" y="591" on="0"/>
        <pt x="286" y="665" on="0"/>
        <pt x="233" y="695" on="0"/>
      </contour>
    </TTGlyph>
    <TTGlyph name="afii10048" xMin="45" yMin="-15" xMax="755" yMax="715">
      <contour>
        <pt x="190" y="360" on="1"/>
        <pt x="285" y="360" on="1"/>
        <pt x="287" y="450" on="0"/>
        <pt x="328" y="583" on="0"/>
        <pt x="394" y="672" on="0"/>
        <pt x="477" y="715" on="0"/>
        <pt x="520" y="715" on="1"/>
        <pt x="563" y="715" on="0"/>
        <pt x="647" y="670" on="0"/>
        <pt x="714" y="579" on="0"/>
        <pt x="755" y="442" on="0"/>
        <pt x="755" y="350" on="1"/>
        <pt x="755" y="258" on="0"/>
        <pt x="714" y="121" on="0"/>
        <pt x="647" y="30" on="0"/>
        <pt x="563" y="-15" on="0"/>
        <pt x="520" y="-15" on="1"/>
        <pt x="477" y="-15" on="0"/>
        <pt x="393" y="30" on="0"/>
        <pt x="326" y="119" on="0"/>
        <pt x="285" y="252" on="0"/>
        <pt x="285" y="340" on="1"/>
        <pt x="190" y="340" on="1"/>
        <pt x="190" y="25" on="1"/>
        <pt x="250" y="10" on="1"/>
        <pt x="250" y="0" on="1"/>
        <pt x="45" y="0" on="1"/>
        <pt x="45" y="10" on="1"/>
        <pt x="105" y="25" on="1"/>
        <pt x="105" y="675" on="1"/>
        <pt x="45" y="690" on="1"/>
        <pt x="45" y="700" on="1"/>
        <pt x="250" y="700" on="1"/>
        <pt x="250" y="690" on="1"/>
        <pt x="190" y="675" on="1"/>
      </contour>
      <contour>
        <pt x="660" y="350" on="1"/>
        <pt x="660" y="453" on="0"/>
        <pt x="635" y="588" on="0"/>
        <pt x="594" y="668" on="0"/>
        <pt x="544" y="700" on="0"/>
        <pt x="520" y="700" on="1"/>
        <pt x="496" y="700" on="0"/>
        <pt x="446" y="668" on="0"/>
        <pt x="405" y="588" on="0"/>
        <pt x="380" y="453" on="0"/>
        <pt x="380" y="350" on="1"/>
        <pt x="380" y="247" on="0"/>
        <pt x="405" y="112" on="0"/>
        <pt x="446" y="32" on="0"/>
        <pt x="496" y="0" on="0"/>
        <pt x="520" y="0" on="1"/>
        <pt x="544" y="0" on="0"/>
        <pt x="594" y="32" on="0"/>
        <pt x="635" y="112" on="0"/>
        <pt x="660" y="247" on="0"/>
      </contour>
    </TTGlyph>
    <TTGlyph name="afii10049" xMin="10" yMin="-15" xMax="505" yMax="700">
      <contour>
        <pt x="505" y="700" on="1"/>
        <pt x="505" y="690" on="1"/>
        <pt x="445" y="675" on="1"/>
        <pt x="445" y="25" on="1"/>
        <pt x="505" y="10" on="1"/>
        <pt x="505" y="0" on="1"/>
        <pt x="300" y="0" on="1"/>
        <pt x="300" y="10" on="1"/>
        <pt x="360" y="25" on="1"/>
        <pt x="360" y="350" on="1"/>
        <pt x="320" y="350" on="1"/>
        <pt x="286" y="350" on="0"/>
        <pt x="238" y="336" on="0"/>
        <pt x="207" y="306" on="0"/>
        <pt x="189" y="259" on="0"/>
        <pt x="185" y="225" on="1"/>
        <pt x="165" y="50" on="1"/>
        <pt x="162" y="24" on="0"/>
        <pt x="119" y="-15" on="0"/>
        <pt x="85" y="-15" on="1"/>
        <pt x="64" y="-15" on="0"/>
        <pt x="36" y="-1" on="0"/>
        <pt x="27" y="7" on="1"/>
        <pt x="16" y="17" on="0"/>
        <pt x="10" y="30" on="1"/>
        <pt x="20" y="40" on="1"/>
        <pt x="24" y="32" on="0"/>
        <pt x="29" y="27" on="1"/>
        <pt x="34" y="22" on="0"/>
        <pt x="44" y="15" on="0"/>
        <pt x="50" y="15" on="1"/>
        <pt x="59" y="15" on="0"/>
        <pt x="73" y="31" on="0"/>
        <pt x="75" y="50" on="1"/>
        <pt x="95" y="225" on="1"/>
        <pt x="100" y="271" on="0"/>
        <pt x="154" y="325" on="0"/>
        <pt x="185" y="339" on="1"/>
        <pt x="221" y="355" on="0"/>
        <pt x="265" y="360" on="1"/>
        <pt x="210" y="365" on="0"/>
        <pt x="167" y="384" on="1"/>
        <pt x="149" y="392" on="0"/>
        <pt x="114" y="416" on="0"/>
        <pt x="87" y="451" on="0"/>
        <pt x="70" y="496" on="0"/>
        <pt x="70" y="525" on="1"/>
        <pt x="70" y="561" on="0"/>
        <pt x="100" y="624" on="0"/>
        <pt x="162" y="672" on="0"/>
        <pt x="256" y="700" on="0"/>
        <pt x="320" y="700" on="1"/>
      </contour>
      <contour>
        <pt x="165" y="525" on="1"/>
        <pt x="165" y="450" on="0"/>
        <pt x="245" y="370" on="0"/>
        <pt x="320" y="370" on="1"/>
        <pt x="360" y="370" on="1"/>
        <pt x="360" y="680" on="1"/>
        <pt x="320" y="680" on="1"/>
        <pt x="245" y="680" on="0"/>
        <pt x="165" y="600" on="0"/>
      </contour>
    </TTGlyph>
    <TTGlyph name="afii10050" xMin="45" yMin="0" xMax="430" yMax="820">
      <contour>
        <pt x="190" y="680" on="1"/>
        <pt x="190" y="25" on="1"/>
        <pt x="250" y="10" on="1"/>
        <pt x="250" y="0" on="1"/>
        <pt x="45" y="0" on="1"/>
        <pt x="45" y="10" on="1"/>
        <pt x="105" y="25" on="1"/>
        <pt x="105" y="675" on="1"/>
        <pt x="45" y="690" on="1"/>
        <pt x="45" y="700" on="1"/>
        <pt x="360" y="700" on="1"/>
        <pt x="360" y="734" on="0"/>
        <pt x="394" y="797" on="0"/>
        <pt x="420" y="820" on="1"/>
        <pt x="430" y="820" on="1"/>
        <pt x="428" y="806" on="0"/>
        <pt x="427" y="794" on="1"/>
        <pt x="426" y="783" on="0"/>
        <pt x="425" y="759" on="0"/>
        <pt x="425" y="750" on="1"/>
        <pt x="425" y="735" on="0"/>
        <pt x="426" y="709" on="0"/>
        <pt x="427" y="700" on="1"/>
        <pt x="428" y="689" on="0"/>
        <pt x="430" y="680" on="1"/>
      </contour>
    </TTGlyph>
    <TTGlyph name="afii10051" xMin="10" yMin="-90" xMax="540" yMax="700">
      <contour>
        <pt x="455" y="255" on="1"/>
        <pt x="455" y="327" on="0"/>
        <pt x="400" y="390" on="0"/>
        <pt x="355" y="390" on="1"/>
        <pt x="334" y="390" on="0"/>
        <pt x="296" y="379" on="0"/>
        <pt x="282" y="372" on="1"/>
        <pt x="265" y="364" on="0"/>
        <pt x="250" y="355" on="1"/>
        <pt x="250" y="25" on="1"/>
        <pt x="310" y="10" on="1"/>
        <pt x="310" y="0" on="1"/>
        <pt x="105" y="0" on="1"/>
        <pt x="105" y="10" on="1"/>
        <pt x="165" y="25" on="1"/>
        <pt x="165" y="680" on="1"/>
        <pt x="80" y="680" on="1"/>
        <pt x="80" y="638" on="0"/>
        <pt x="46" y="566" on="0"/>
        <pt x="20" y="540" on="1"/>
        <pt x="10" y="540" on="1"/>
        <pt x="11" y="553" on="0"/>
        <pt x="12" y="567" on="1"/>
        <pt x="13" y="579" on="0"/>
        <pt x="15" y="606" on="0"/>
        <pt x="15" y="620" on="1"/>
        <pt x="15" y="639" on="0"/>
        <pt x="13" y="668" on="0"/>
        <pt x="12" y="679" on="1"/>
        <pt x="11" y="691" on="0"/>
        <pt x="10" y="700" on="1"/>
        <pt x="405" y="700" on="1"/>
        <pt x="403" y="691" on="0"/>
        <pt x="402" y="679" on="1"/>
        <pt x="401" y="668" on="0"/>
        <pt x="400" y="639" on="0"/>
        <pt x="400" y="620" on="1"/>
        <pt x="400" y="606" on="0"/>
        <pt x="401" y="579" on="0"/>
        <pt x="402" y="567" on="1"/>
        <pt x="403" y="553" on="0"/>
        <pt x="405" y="540" on="1"/>
        <pt x="395" y="540" on="1"/>
        <pt x="369" y="566" on="0"/>
        <pt x="335" y="638" on="0"/>
        <pt x="335" y="680" on="1"/>
        <pt x="250" y="680" on="1"/>
        <pt x="250" y="375" on="1"/>
        <pt x="265" y="384" on="0"/>
        <pt x="283" y="392" on="1"/>
        <pt x="299" y="399" on="0"/>
        <pt x="340" y="410" on="0"/>
        <pt x="365" y="410" on="1"/>
        <pt x="452" y="410" on="0"/>
        <pt x="540" y="327" on="0"/>
        <pt x="540" y="255" on="1"/>
        <pt x="540" y="60" on="1"/>
        <pt x="540" y="-8" on="0"/>
        <pt x="456" y="-90" on="0"/>
        <pt x="381" y="-90" on="1"/>
        <pt x="381" y="-75" on="1"/>
        <pt x="396" y="-75" on="0"/>
        <pt x="422" y="-61" on="0"/>
        <pt x="443" y="-29" on="0"/>
        <pt x="455" y="22" on="0"/>
        <pt x="455" y="60" on="1"/>
      </contour>
    </TTGlyph>
    <TTGlyph name="afii10052" xMin="45" yMin="0" xMax="430" yMax="860">
      <contour>
        <pt x="190" y="25" on="1"/>
        <pt x="250" y="10" on="1"/>
        <pt x="250" y="0" on="1"/>
        <pt x="45" y="0" on="1"/>
        <pt x="45" y="10" on="1"/>
        <pt x="105" y="25" on="1"/>
        <pt x="105" y="675" on="1"/>
        <pt x="45" y="690" on="1"/>
        <pt x="45" y="700" on="1"/>
        <pt x="430" y="700" on="1"/>
        <pt x="428" y="691" on="0"/>
        <pt x="427" y="679" on="1"/>
        <pt x="426" y="668" on="0"/>
        <pt x="425" y="639" on="0"/>
        <pt x="425" y="620" on="1"/>
        <pt x="425" y="606" on="0"/>
        <pt x="426" y="579" on="0"/>
        <pt x="427" y="567" on="1"/>
        <pt x="428" y="553" on="0"/>
        <pt x="430" y="540" on="1"/>
        <pt x="420" y="540" on="1"/>
        <pt x="394" y="566" on="0"/>
        <pt x="360" y="638" on="0"/>
        <pt x="360" y="680" on="1"/>
        <pt x="190" y="680" on="1"/>
      </contour>
      <contour>
        <pt x="275" y="860" on="1"/>
        <pt x="365" y="860" on="1"/>
        <pt x="265" y="740" on="1"/>
        <pt x="235" y="740" on="1"/>
      </contour>
    </TTGlyph>
    <TTGlyph name="afii10053" xMin="40" yMin="-15" xMax="470" yMax="715">
      <contour>
        <pt x="285" y="695" on="1"/>
        <pt x="257" y="695" on="0"/>
        <pt x="204" y="665" on="0"/>
        <pt x="163" y="591" on="0"/>
        <pt x="137" y="466" on="0"/>
        <pt x="135" y="370" on="1"/>
        <pt x="245" y="370" on="1"/>
        <pt x="290" y="460" on="1"/>
        <pt x="300" y="460" on="1"/>
        <pt x="300" y="260" on="1"/>
        <pt x="290" y="260" on="1"/>
        <pt x="245" y="350" on="1"/>
        <pt x="135" y="350" on="1"/>
        <pt x="135" y="249" on="0"/>
        <pt x="161" y="116" on="0"/>
        <pt x="205" y="37" on="0"/>
        <pt x="263" y="5" on="0"/>
        <pt x="295" y="5" on="1"/>
        <pt x="323" y="5" on="0"/>
        <pt x="377" y="35" on="0"/>
        <pt x="421" y="85" on="0"/>
        <pt x="451" y="152" on="0"/>
        <pt x="455" y="190" on="1"/>
        <pt x="470" y="190" on="1"/>
        <pt x="466" y="145" on="0"/>
        <pt x="434" y="70" on="0"/>
        <pt x="385" y="15" on="0"/>
        <pt x="321" y="-15" on="0"/>
        <pt x="285" y="-15" on="1"/>
        <pt x="238" y="-15" on="0"/>
        <pt x="150" y="30" on="0"/>
        <pt x="81" y="121" on="0"/>
        <pt x="40" y="258" on="0"/>
        <pt x="40" y="350" on="1"/>
        <pt x="40" y="442" on="0"/>
        <pt x="81" y="579" on="0"/>
        <pt x="148" y="670" on="0"/>
        <pt x="232" y="715" on="0"/>
        <pt x="275" y="715" on="1"/>
        <pt x="299" y="715" on="0"/>
        <pt x="338" y="699" on="0"/>
        <pt x="352" y="689" on="1"/>
        <pt x="368" y="678" on="0"/>
        <pt x="380" y="664" on="1"/>
        <pt x="388" y="679" on="0"/>
        <pt x="415" y="706" on="0"/>
        <pt x="430" y="710" on="1"/>
        <pt x="445" y="710" on="1"/>
        <pt x="443" y="695" on="0"/>
        <pt x="442" y="680" on="1"/>
        <pt x="441" y="666" on="0"/>
        <pt x="440" y="635" on="0"/>
        <pt x="440" y="620" on="1"/>
        <pt x="440" y="603" on="0"/>
        <pt x="441" y="570" on="0"/>
        <pt x="442" y="556" on="1"/>
        <pt x="443" y="540" on="0"/>
        <pt x="445" y="525" on="1"/>
        <pt x="430" y="525" on="1"/>
        <pt x="407" y="608" on="0"/>
        <pt x="330" y="695" on="0"/>
      </contour>
    </TTGlyph>
    <TTGlyph name="afii10054" xMin="35" yMin="-15" xMax="435" yMax="715">
      <contour>
        <pt x="110" y="570" on="1"/>
        <pt x="110" y="529" on="0"/>
        <pt x="158" y="470" on="0"/>
        <pt x="230" y="420" on="0"/>
        <pt x="315" y="372" on="0"/>
        <pt x="387" y="311" on="0"/>
        <pt x="435" y="229" on="0"/>
        <pt x="435" y="170" on="1"/>
        <pt x="435" y="131" on="0"/>
        <pt x="407" y="63" on="0"/>
        <pt x="356" y="13" on="0"/>
        <pt x="286" y="-15" on="0"/>
        <pt x="245" y="-15" on="1"/>
        <pt x="207" y="-15" on="0"/>
        <pt x="153" y="0" on="0"/>
        <pt x="135" y="10" on="1"/>
        <pt x="114" y="21" on="0"/>
        <pt x="100" y="35" on="1"/>
        <pt x="92" y="20" on="0"/>
        <pt x="65" y="-6" on="0"/>
        <pt x="50" y="-10" on="1"/>
        <pt x="35" y="-10" on="1"/>
        <pt x="36" y="4" on="0"/>
        <pt x="37" y="20" on="1"/>
        <pt x="38" y="33" on="0"/>
        <pt x="40" y="65" on="0"/>
        <pt x="40" y="80" on="1"/>
        <pt x="40" y="97" on="0"/>
        <pt x="38" y="130" on="0"/>
        <pt x="37" y="144" on="1"/>
        <pt x="36" y="160" on="0"/>
        <pt x="35" y="175" on="1"/>
        <pt x="50" y="175" on="1"/>
        <pt x="73" y="92" on="0"/>
        <pt x="160" y="5" on="0"/>
        <pt x="235" y="5" on="1"/>
        <pt x="295" y="5" on="0"/>
        <pt x="370" y="82" on="0"/>
        <pt x="370" y="150" on="1"/>
        <pt x="370" y="191" on="0"/>
        <pt x="322" y="250" on="0"/>
        <pt x="250" y="300" on="0"/>
        <pt x="165" y="348" on="0"/>
        <pt x="93" y="409" on="0"/>
        <pt x="45" y="491" on="0"/>
        <pt x="45" y="550" on="1"/>
        <pt x="45" y="584" on="0"/>
        <pt x="71" y="644" on="0"/>
        <pt x="117" y="689" on="0"/>
        <pt x="179" y="715" on="0"/>
        <pt x="215" y="715" on="1"/>
        <pt x="245" y="715" on="0"/>
        <pt x="291" y="699" on="0"/>
        <pt x="307" y="690" on="1"/>
        <pt x="325" y="679" on="0"/>
        <pt x="340" y="665" on="1"/>
        <pt x="348" y="680" on="0"/>
        <pt x="375" y="706" on="0"/>
        <pt x="390" y="710" on="1"/>
        <pt x="405" y="710" on="1"/>
        <pt x="403" y="695" on="0"/>
        <pt x="402" y="680" on="1"/>
        <pt x="401" y="666" on="0"/>
        <pt x="400" y="635" on="0"/>
        <pt x="400" y="620" on="1"/>
        <pt x="400" y="603" on="0"/>
        <pt x="401" y="570" on="0"/>
        <pt x="402" y="556" on="1"/>
        <pt x="403" y="540" on="0"/>
        <pt x="405" y="525" on="1"/>
        <pt x="390" y="525" on="1"/>
        <pt x="367" y="608" on="0"/>
        <pt x="285" y="695" on="0"/>
        <pt x="225" y="695" on="1"/>
        <pt x="176" y="695" on="0"/>
        <pt x="110" y="627" on="0"/>
      </contour>
    </TTGlyph>
    <TTGlyph name="afii10055" xMin="45" yMin="0" xMax="250" yMax="700">
      <contour>
        <pt x="190" y="25" on="1"/>
        <pt x="250" y="10" on="1"/>
        <pt x="250" y="0" on="1"/>
        <pt x="45" y="0" on="1"/>
        <pt x="45" y="10" on="1"/>
        <pt x="105" y="25" on="1"/>
        <pt x="105" y="675" on="1"/>
        <pt x="45" y="690" on="1"/>
        <pt x="45" y="700" on="1"/>
        <pt x="250" y="700" on="1"/>
        <pt x="250" y="690" on="1"/>
        <pt x="190" y="675" on="1"/>
      </contour>
    </TTGlyph>
    <TTGlyph name="afii10056" xMin="20" yMin="0" xMax="275" yMax="860">
      <contour>
        <pt x="120" y="810" on="1"/>
        <pt x="120" y="791" on="0"/>
        <pt x="89" y="760" on="0"/>
        <pt x="70" y="760" on="1"/>
        <pt x="51" y="760" on="0"/>
        <pt x="20" y="791" on="0"/>
        <pt x="20" y="810" on="1"/>
        <pt x="20" y="829" on="0"/>
        <pt x="51" y="860" on="0"/>
        <pt x="70" y="860" on="1"/>
        <pt x="89" y="860" on="0"/>
        <pt x="120" y="829" on="0"/>
      </contour>
      <contour>
        <pt x="275" y="810" on="1"/>
        <pt x="275" y="791" on="0"/>
        <pt x="244" y="760" on="0"/>
        <pt x="225" y="760" on="1"/>
        <pt x="206" y="760" on="0"/>
        <pt x="175" y="791" on="0"/>
        <pt x="175" y="810" on="1"/>
        <pt x="175" y="829" on="0"/>
        <pt x="206" y="860" on="0"/>
        <pt x="225" y="860" on="1"/>
        <pt x="244" y="860" on="0"/>
        <pt x="275" y="829" on="0"/>
      </contour>
      <contour>
        <pt x="190" y="25" on="1"/>
        <pt x="250" y="10" on="1"/>
        <pt x="250" y="0" on="1"/>
        <pt x="45" y="0" on="1"/>
        <pt x="45" y="10" on="1"/>
        <pt x="105" y="25" on="1"/>
        <pt x="105" y="675" on="1"/>
        <pt x="45" y="690" on="1"/>
        <pt x="45" y="700" on="1"/>
        <pt x="250" y="700" on="1"/>
        <pt x="250" y="690" on="1"/>
        <pt x="190" y="675" on="1"/>
      </contour>
    </TTGlyph>
    <TTGlyph name="afii10057" xMin="15" yMin="-15" xMax="460" yMax="700">
      <contour>
        <pt x="400" y="190" on="1"/>
        <pt x="400" y="143" on="0"/>
        <pt x="371" y="67" on="0"/>
        <pt x="318" y="14" on="0"/>
        <pt x="242" y="-15" on="0"/>
        <pt x="195" y="-15" on="1"/>
        <pt x="157" y="-15" on="0"/>
        <pt x="92" y="13" on="0"/>
        <pt x="43" y="59" on="0"/>
        <pt x="15" y="118" on="0"/>
        <pt x="15" y="150" on="1"/>
        <pt x="15" y="207" on="0"/>
        <pt x="62" y="263" on="0"/>
        <pt x="95" y="270" on="1"/>
        <pt x="165" y="210" on="1"/>
        <pt x="65" y="195" on="0"/>
        <pt x="65" y="105" on="1"/>
        <pt x="65" y="86" on="0"/>
        <pt x="83" y="50" on="0"/>
        <pt x="117" y="22" on="0"/>
        <pt x="165" y="5" on="0"/>
        <pt x="195" y="5" on="1"/>
        <pt x="219" y="5" on="0"/>
        <pt x="263" y="26" on="0"/>
        <pt x="296" y="71" on="0"/>
        <pt x="315" y="141" on="0"/>
        <pt x="315" y="190" on="1"/>
        <pt x="315" y="675" on="1"/>
        <pt x="255" y="690" on="1"/>
        <pt x="255" y="700" on="1"/>
        <pt x="460" y="700" on="1"/>
        <pt x="460" y="690" on="1"/>
        <pt x="400" y="675" on="1"/>
      </contour>
    </TTGlyph>
    <TTGlyph name="afii10058" xMin="-10" yMin="-20" xMax="725" yMax="700">
      <contour>
        <pt x="465" y="430" on="1"/>
        <pt x="527" y="430" on="0"/>
        <pt x="624" y="397" on="0"/>
        <pt x="690" y="338" on="0"/>
        <pt x="725" y="260" on="0"/>
        <pt x="725" y="215" on="1"/>
        <pt x="725" y="172" on="0"/>
        <pt x="693" y="97" on="0"/>
        <pt x="633" y="39" on="0"/>
        <pt x="546" y="3" on="0"/>
        <pt x="490" y="0" on="1"/>
        <pt x="285" y="0" on="1"/>
        <pt x="285" y="10" on="1"/>
        <pt x="345" y="25" on="1"/>
        <pt x="345" y="680" on="1"/>
        <pt x="160" y="680" on="1"/>
        <pt x="160" y="430" on="1"/>
        <pt x="160" y="333" on="0"/>
        <pt x="151" y="190" on="0"/>
        <pt x="134" y="90" on="0"/>
        <pt x="110" y="27" on="0"/>
        <pt x="82" y="-8" on="0"/>
        <pt x="51" y="-20" on="0"/>
        <pt x="35" y="-20" on="1"/>
        <pt x="29" y="-20" on="0"/>
        <pt x="19" y="-19" on="0"/>
        <pt x="14" y="-18" on="1"/>
        <pt x="9" y="-17" on="0"/>
        <pt x="5" y="-15" on="1"/>
        <pt x="-10" y="60" on="1"/>
        <pt x="-6" y="58" on="0"/>
        <pt x="-1" y="57" on="1"/>
        <pt x="4" y="56" on="0"/>
        <pt x="14" y="55" on="0"/>
        <pt x="20" y="55" on="1"/>
        <pt x="46" y="55" on="0"/>
        <pt x="90" y="81" on="0"/>
        <pt x="122" y="160" on="0"/>
        <pt x="140" y="308" on="0"/>
        <pt x="140" y="430" on="1"/>
        <pt x="140" y="670" on="1"/>
        <pt x="75" y="690" on="1"/>
        <pt x="75" y="700" on="1"/>
        <pt x="490" y="700" on="1"/>
        <pt x="490" y="690" on="1"/>
        <pt x="430" y="675" on="1"/>
        <pt x="430" y="430" on="1"/>
      </contour>
      <contour>
        <pt x="430" y="20" on="1"/>
        <pt x="465" y="20" on="1"/>
        <pt x="544" y="20" on="0"/>
        <pt x="630" y="113" on="0"/>
        <pt x="630" y="215" on="1"/>
        <pt x="630" y="317" on="0"/>
        <pt x="544" y="410" on="0"/>
        <pt x="465" y="410" on="1"/>
        <pt x="430" y="410" on="1"/>
      </contour>
    </TTGlyph>
    <TTGlyph name="afii10059" xMin="45" yMin="0" xMax="775" yMax="700">
      <contour>
        <pt x="515" y="410" on="1"/>
        <pt x="577" y="410" on="0"/>
        <pt x="674" y="377" on="0"/>
        <pt x="740" y="321" on="0"/>
        <pt x="775" y="246" on="0"/>
        <pt x="775" y="205" on="1"/>
        <pt x="775" y="164" on="0"/>
        <pt x="740" y="89" on="0"/>
        <pt x="674" y="33" on="0"/>
        <pt x="577" y="0" on="0"/>
        <pt x="515" y="0" on="1"/>
        <pt x="325" y="0" on="1"/>
        <pt x="325" y="10" on="1"/>
        <pt x="385" y="25" on="1"/>
        <pt x="385" y="390" on="1"/>
        <pt x="190" y="390" on="1"/>
        <pt x="190" y="25" on="1"/>
        <pt x="250" y="10" on="1"/>
        <pt x="250" y="0" on="1"/>
        <pt x="45" y="0" on="1"/>
        <pt x="45" y="10" on="1"/>
        <pt x="105" y="25" on="1"/>
        <pt x="105" y="675" on="1"/>
        <pt x="45" y="690" on="1"/>
        <pt x="45" y="700" on="1"/>
        <pt x="250" y="700" on="1"/>
        <pt x="250" y="690" on="1"/>
        <pt x="190" y="675" on="1"/>
        <pt x="190" y="410" on="1"/>
        <pt x="385" y="410" on="1"/>
        <pt x="385" y="675" on="1"/>
        <pt x="325" y="690" on="1"/>
        <pt x="325" y="700" on="1"/>
        <pt x="530" y="700" on="1"/>
        <pt x="530" y="690" on="1"/>
        <pt x="470" y="675" on="1"/>
        <pt x="470" y="410" on="1"/>
      </contour>
      <contour>
        <pt x="470" y="20" on="1"/>
        <pt x="515" y="20" on="1"/>
        <pt x="594" y="20" on="0"/>
        <pt x="680" y="111" on="0"/>
        <pt x="680" y="205" on="1"/>
        <pt x="680" y="299" on="0"/>
        <pt x="594" y="390" on="0"/>
        <pt x="515" y="390" on="1"/>
        <pt x="470" y="390" on="1"/>
      </contour>
    </TTGlyph>
    <TTGlyph name="afii10060" xMin="10" yMin="0" xMax="600" yMax="700">
      <contour>
        <pt x="250" y="375" on="1"/>
        <pt x="265" y="384" on="0"/>
        <pt x="283" y="392" on="1"/>
        <pt x="299" y="399" on="0"/>
        <pt x="340" y="410" on="0"/>
        <pt x="365" y="410" on="1"/>
        <pt x="452" y="410" on="0"/>
        <pt x="540" y="327" on="0"/>
        <pt x="540" y="255" on="1"/>
        <pt x="540" y="25" on="1"/>
        <pt x="600" y="10" on="1"/>
        <pt x="600" y="0" on="1"/>
        <pt x="395" y="0" on="1"/>
        <pt x="395" y="10" on="1"/>
        <pt x="455" y="25" on="1"/>
        <pt x="455" y="255" on="1"/>
        <pt x="455" y="327" on="0"/>
        <pt x="400" y="390" on="0"/>
        <pt x="355" y="390" on="1"/>
        <pt x="334" y="390" on="0"/>
        <pt x="296" y="379" on="0"/>
        <pt x="282" y="372" on="1"/>
        <pt x="265" y="364" on="0"/>
        <pt x="250" y="355" on="1"/>
        <pt x="250" y="25" on="1"/>
        <pt x="310" y="10" on="1"/>
        <pt x="310" y="0" on="1"/>
        <pt x="105" y="0" on="1"/>
        <pt x="105" y="10" on="1"/>
        <pt x="165" y="25" on="1"/>
        <pt x="165" y="680" on="1"/>
        <pt x="80" y="680" on="1"/>
        <pt x="80" y="638" on="0"/>
        <pt x="46" y="566" on="0"/>
        <pt x="20" y="540" on="1"/>
        <pt x="10" y="540" on="1"/>
        <pt x="11" y="553" on="0"/>
        <pt x="12" y="567" on="1"/>
        <pt x="13" y="579" on="0"/>
        <pt x="15" y="606" on="0"/>
        <pt x="15" y="620" on="1"/>
        <pt x="15" y="639" on="0"/>
        <pt x="13" y="668" on="0"/>
        <pt x="12" y="679" on="1"/>
        <pt x="11" y="691" on="0"/>
        <pt x="10" y="700" on="1"/>
        <pt x="405" y="700" on="1"/>
        <pt x="403" y="691" on="0"/>
        <pt x="402" y="679" on="1"/>
        <pt x="401" y="668" on="0"/>
        <pt x="400" y="639" on="0"/>
        <pt x="400" y="620" on="1"/>
        <pt x="400" y="606" on="0"/>
        <pt x="401" y="579" on="0"/>
        <pt x="402" y="567" on="1"/>
        <pt x="403" y="553" on="0"/>
        <pt x="405" y="540" on="1"/>
        <pt x="395" y="540" on="1"/>
        <pt x="369" y="566" on="0"/>
        <pt x="335" y="638" on="0"/>
        <pt x="335" y="680" on="1"/>
        <pt x="250" y="680" on="1"/>
      </contour>
    </TTGlyph>
    <TTGlyph name="afii10061" xMin="45" yMin="0" xMax="560" yMax="860">
      <contour>
        <pt x="290" y="860" on="1"/>
        <pt x="380" y="860" on="1"/>
        <pt x="280" y="740" on="1"/>
        <pt x="250" y="740" on="1"/>
      </contour>
      <contour>
        <pt x="190" y="252" on="1"/>
        <pt x="190" y="25" on="1"/>
        <pt x="250" y="10" on="1"/>
        <pt x="250" y="0" on="1"/>
        <pt x="45" y="0" on="1"/>
        <pt x="45" y="10" on="1"/>
        <pt x="105" y="25" on="1"/>
        <pt x="105" y="675" on="1"/>
        <pt x="45" y="690" on="1"/>
        <pt x="45" y="700" on="1"/>
        <pt x="250" y="700" on="1"/>
        <pt x="250" y="690" on="1"/>
        <pt x="190" y="675" on="1"/>
        <pt x="190" y="295" on="1"/>
        <pt x="315" y="565" on="1"/>
        <pt x="335" y="608" on="0"/>
        <pt x="368" y="664" on="0"/>
        <pt x="397" y="697" on="0"/>
        <pt x="425" y="710" on="0"/>
        <pt x="440" y="710" on="1"/>
        <pt x="444" y="710" on="0"/>
        <pt x="452" y="708" on="0"/>
        <pt x="456" y="707" on="1"/>
        <pt x="460" y="706" on="0"/>
        <pt x="465" y="705" on="1"/>
        <pt x="480" y="630" on="1"/>
        <pt x="475" y="631" on="0"/>
        <pt x="470" y="632" on="1"/>
        <pt x="465" y="633" on="0"/>
        <pt x="453" y="635" on="0"/>
        <pt x="445" y="635" on="1"/>
        <pt x="400" y="635" on="0"/>
        <pt x="349" y="595" on="0"/>
        <pt x="335" y="565" on="1"/>
        <pt x="285" y="455" on="1"/>
        <pt x="500" y="25" on="1"/>
        <pt x="560" y="10" on="1"/>
        <pt x="560" y="0" on="1"/>
        <pt x="349" y="0" on="1"/>
        <pt x="349" y="10" on="1"/>
        <pt x="409" y="25" on="1"/>
        <pt x="241" y="361" on="1"/>
      </contour>
    </TTGlyph>
    <TTGlyph name="afii10062" xMin="-10" yMin="-40" xMax="510" yMax="865">
      <contour>
        <pt x="276" y="770" on="1"/>
        <pt x="295" y="770" on="0"/>
        <pt x="321" y="799" on="0"/>
        <pt x="321" y="825" on="1"/>
        <pt x="321" y="833" on="0"/>
        <pt x="319" y="846" on="0"/>
        <pt x="318" y="852" on="1"/>
        <pt x="317" y="858" on="0"/>
        <pt x="316" y="865" on="1"/>
        <pt x="386" y="865" on="1"/>
        <pt x="387" y="861" on="0"/>
        <pt x="388" y="856" on="1"/>
        <pt x="389" y="851" on="0"/>
        <pt x="391" y="840" on="0"/>
        <pt x="391" y="835" on="1"/>
        <pt x="391" y="801" on="0"/>
        <pt x="336" y="755" on="0"/>
        <pt x="276" y="755" on="1"/>
        <pt x="216" y="755" on="0"/>
        <pt x="161" y="801" on="0"/>
        <pt x="161" y="835" on="1"/>
        <pt x="161" y="840" on="0"/>
        <pt x="162" y="851" on="0"/>
        <pt x="163" y="856" on="1"/>
        <pt x="164" y="861" on="0"/>
        <pt x="166" y="865" on="1"/>
        <pt x="236" y="865" on="1"/>
        <pt x="234" y="858" on="0"/>
        <pt x="233" y="852" on="1"/>
        <pt x="232" y="846" on="0"/>
        <pt x="231" y="833" on="0"/>
        <pt x="231" y="825" on="1"/>
        <pt x="231" y="799" on="0"/>
        <pt x="257" y="770" on="0"/>
      </contour>
      <contour>
        <pt x="299" y="252" on="1"/>
        <pt x="425" y="665" on="1"/>
        <pt x="360" y="690" on="1"/>
        <pt x="360" y="700" on="1"/>
        <pt x="510" y="700" on="1"/>
        <pt x="510" y="690" on="1"/>
        <pt x="445" y="665" on="1"/>
        <pt x="278" y="120" on="1"/>
        <pt x="264" y="75" on="0"/>
        <pt x="234" y="14" on="0"/>
        <pt x="200" y="-24" on="0"/>
        <pt x="159" y="-40" on="0"/>
        <pt x="135" y="-40" on="1"/>
        <pt x="129" y="-40" on="0"/>
        <pt x="119" y="-39" on="0"/>
        <pt x="114" y="-38" on="1"/>
        <pt x="109" y="-37" on="0"/>
        <pt x="105" y="-35" on="1"/>
        <pt x="90" y="35" on="1"/>
        <pt x="94" y="33" on="0"/>
        <pt x="99" y="32" on="1"/>
        <pt x="104" y="31" on="0"/>
        <pt x="114" y="30" on="0"/>
        <pt x="120" y="30" on="1"/>
        <pt x="184" y="30" on="0"/>
        <pt x="244" y="78" on="0"/>
        <pt x="258" y="120" on="1"/>
        <pt x="50" y="675" on="1"/>
        <pt x="-10" y="690" on="1"/>
        <pt x="-10" y="700" on="1"/>
        <pt x="200" y="700" on="1"/>
        <pt x="200" y="690" on="1"/>
        <pt x="140" y="675" on="1"/>
      </contour>
    </TTGlyph>
    <TTGlyph name="afii10065" xMin="40" yMin="-15" xMax="440" yMax="475">
      <contour>
        <pt x="300" y="245" on="1"/>
        <pt x="213" y="245" on="0"/>
        <pt x="130" y="168" on="0"/>
        <pt x="130" y="100" on="1"/>
        <pt x="130" y="55" on="0"/>
        <pt x="174" y="5" on="0"/>
        <pt x="200" y="5" on="1"/>
        <pt x="224" y="5" on="0"/>
        <pt x="261" y="33" on="0"/>
        <pt x="274" y="50" on="1"/>
        <pt x="289" y="69" on="0"/>
        <pt x="300" y="95" on="1"/>
      </contour>
      <contour>
        <pt x="225" y="460" on="1"/>
        <pt x="195" y="460" on="0"/>
        <pt x="155" y="419" on="0"/>
        <pt x="155" y="385" on="1"/>
        <pt x="155" y="377" on="0"/>
        <pt x="156" y="365" on="0"/>
        <pt x="157" y="360" on="1"/>
        <pt x="158" y="355" on="0"/>
        <pt x="160" y="350" on="1"/>
        <pt x="80" y="330" on="1"/>
        <pt x="78" y="333" on="0"/>
        <pt x="77" y="338" on="1"/>
        <pt x="76" y="343" on="0"/>
        <pt x="75" y="355" on="0"/>
        <pt x="75" y="365" on="1"/>
        <pt x="75" y="386" on="0"/>
        <pt x="95" y="425" on="0"/>
        <pt x="134" y="456" on="0"/>
        <pt x="189" y="475" on="0"/>
        <pt x="225" y="475" on="1"/>
        <pt x="297" y="475" on="0"/>
        <pt x="380" y="393" on="0"/>
        <pt x="380" y="325" on="1"/>
        <pt x="380" y="25" on="1"/>
        <pt x="440" y="10" on="1"/>
        <pt x="440" y="0" on="1"/>
        <pt x="300" y="0" on="1"/>
        <pt x="300" y="60" on="1"/>
        <pt x="289" y="39" on="0"/>
        <pt x="272" y="22" on="1"/>
        <pt x="258" y="8" on="0"/>
        <pt x="215" y="-15" on="0"/>
        <pt x="185" y="-15" on="1"/>
        <pt x="113" y="-15" on="0"/>
        <pt x="40" y="53" on="0"/>
        <pt x="40" y="110" on="1"/>
        <pt x="40" y="138" on="0"/>
        <pt x="71" y="194" on="0"/>
        <pt x="134" y="238" on="0"/>
        <pt x="232" y="265" on="0"/>
        <pt x="300" y="265" on="1"/>
        <pt x="300" y="325" on="1"/>
        <pt x="300" y="400" on="0"/>
        <pt x="255" y="460" on="0"/>
      </contour>
    </TTGlyph>
    <TTGlyph name="afii10066" xMin="45" yMin="-15" xMax="425" yMax="720">
      <contour>
        <pt x="235" y="445" on="1"/>
        <pt x="272" y="445" on="0"/>
        <pt x="341" y="412" on="0"/>
        <pt x="394" y="352" on="0"/>
        <pt x="425" y="267" on="0"/>
        <pt x="425" y="215" on="1"/>
        <pt x="425" y="162" on="0"/>
        <pt x="394" y="77" on="0"/>
        <pt x="341" y="17" on="0"/>
        <pt x="272" y="-15" on="0"/>
        <pt x="235" y="-15" on="1"/>
        <pt x="197" y="-15" on="0"/>
        <pt x="129" y="18" on="0"/>
        <pt x="76" y="80" on="0"/>
        <pt x="45" y="169" on="0"/>
        <pt x="45" y="225" on="1"/>
        <pt x="45" y="310" on="1"/>
        <pt x="45" y="397" on="0"/>
        <pt x="91" y="507" on="0"/>
        <pt x="161" y="575" on="0"/>
        <pt x="245" y="613" on="0"/>
        <pt x="323" y="646" on="0"/>
        <pt x="384" y="685" on="0"/>
        <pt x="395" y="720" on="1"/>
        <pt x="410" y="720" on="1"/>
        <pt x="410" y="673" on="0"/>
        <pt x="382" y="611" on="0"/>
        <pt x="336" y="569" on="0"/>
        <pt x="278" y="541" on="0"/>
        <pt x="217" y="516" on="0"/>
        <pt x="159" y="487" on="0"/>
        <pt x="113" y="444" on="0"/>
        <pt x="85" y="379" on="0"/>
        <pt x="85" y="330" on="1"/>
        <pt x="100" y="361" on="0"/>
        <pt x="121" y="387" on="1"/>
        <pt x="139" y="409" on="0"/>
        <pt x="195" y="445" on="0"/>
      </contour>
      <contour>
        <pt x="135" y="215" on="1"/>
        <pt x="135" y="155" on="0"/>
        <pt x="154" y="73" on="0"/>
        <pt x="183" y="22" on="0"/>
        <pt x="218" y="0" on="0"/>
        <pt x="235" y="0" on="1"/>
        <pt x="252" y="0" on="0"/>
        <pt x="287" y="22" on="0"/>
        <pt x="316" y="73" on="0"/>
        <pt x="335" y="155" on="0"/>
        <pt x="335" y="215" on="1"/>
        <pt x="335" y="273" on="0"/>
        <pt x="316" y="353" on="0"/>
        <pt x="287" y="403" on="0"/>
        <pt x="252" y="425" on="0"/>
        <pt x="235" y="425" on="1"/>
        <pt x="218" y="425" on="0"/>
        <pt x="183" y="403" on="0"/>
        <pt x="154" y="353" on="0"/>
        <pt x="135" y="273" on="0"/>
      </contour>
    </TTGlyph>
    <TTGlyph name="afii10067" xMin="35" yMin="0" xMax="420" yMax="460">
      <contour>
        <pt x="35" y="10" on="1"/>
        <pt x="95" y="25" on="1"/>
        <pt x="95" y="435" on="1"/>
        <pt x="35" y="450" on="1"/>
        <pt x="35" y="460" on="1"/>
        <pt x="210" y="460" on="1"/>
        <pt x="255" y="460" on="0"/>
        <pt x="319" y="443" on="0"/>
        <pt x="361" y="414" on="0"/>
        <pt x="380" y="376" on="0"/>
        <pt x="380" y="355" on="1"/>
        <pt x="380" y="323" on="0"/>
        <pt x="338" y="286" on="0"/>
        <pt x="312" y="276" on="1"/>
        <pt x="282" y="265" on="0"/>
        <pt x="245" y="260" on="1"/>
        <pt x="293" y="256" on="0"/>
        <pt x="332" y="241" on="1"/>
        <pt x="348" y="235" on="0"/>
        <pt x="380" y="216" on="0"/>
        <pt x="405" y="190" on="0"/>
        <pt x="420" y="156" on="0"/>
        <pt x="420" y="135" on="1"/>
        <pt x="420" y="109" on="0"/>
        <pt x="395" y="60" on="0"/>
        <pt x="344" y="22" on="0"/>
        <pt x="264" y="0" on="0"/>
        <pt x="210" y="0" on="1"/>
        <pt x="35" y="0" on="1"/>
      </contour>
      <contour>
        <pt x="175" y="440" on="1"/>
        <pt x="175" y="270" on="1"/>
        <pt x="210" y="270" on="1"/>
        <pt x="300" y="270" on="0"/>
        <pt x="300" y="355" on="1"/>
        <pt x="300" y="440" on="0"/>
        <pt x="210" y="440" on="1"/>
      </contour>
      <contour>
        <pt x="175" y="20" on="1"/>
        <pt x="210" y="20" on="1"/>
        <pt x="267" y="20" on="0"/>
        <pt x="330" y="82" on="0"/>
        <pt x="330" y="135" on="1"/>
        <pt x="330" y="188" on="0"/>
        <pt x="267" y="250" on="0"/>
        <pt x="210" y="250" on="1"/>
        <pt x="175" y="250" on="1"/>
      </contour>
    </TTGlyph>
    <TTGlyph name="afii10068" xMin="35" yMin="0" xMax="375" yMax="460">
      <contour>
        <pt x="175" y="440" on="1"/>
        <pt x="175" y="25" on="1"/>
        <pt x="235" y="10" on="1"/>
        <pt x="235" y="0" on="1"/>
        <pt x="35" y="0" on="1"/>
        <pt x="35" y="10" on="1"/>
        <pt x="95" y="25" on="1"/>
        <pt x="95" y="435" on="1"/>
        <pt x="35" y="450" on="1"/>
        <pt x="35" y="460" on="1"/>
        <pt x="375" y="460" on="1"/>
        <pt x="373" y="450" on="0"/>
        <pt x="372" y="439" on="1"/>
        <pt x="371" y="429" on="0"/>
        <pt x="370" y="402" on="0"/>
        <pt x="370" y="385" on="1"/>
        <pt x="370" y="374" on="0"/>
        <pt x="371" y="347" on="0"/>
        <pt x="372" y="336" on="1"/>
        <pt x="373" y="323" on="0"/>
        <pt x="375" y="310" on="1"/>
        <pt x="365" y="310" on="1"/>
        <pt x="339" y="333" on="0"/>
        <pt x="305" y="398" on="0"/>
        <pt x="305" y="440" on="1"/>
      </contour>
    </TTGlyph>
    <TTGlyph name="afii10069" xMin="0" yMin="-145" xMax="455" yMax="460">
      <contour>
        <pt x="64" y="20" on="1"/>
        <pt x="86" y="49" on="0"/>
        <pt x="104" y="89" on="1"/>
        <pt x="119" y="124" on="0"/>
        <pt x="145" y="228" on="0"/>
        <pt x="145" y="300" on="1"/>
        <pt x="145" y="430" on="1"/>
        <pt x="80" y="450" on="1"/>
        <pt x="80" y="460" on="1"/>
        <pt x="440" y="460" on="1"/>
        <pt x="440" y="450" on="1"/>
        <pt x="380" y="435" on="1"/>
        <pt x="380" y="20" on="1"/>
        <pt x="455" y="20" on="1"/>
        <pt x="453" y="10" on="0"/>
        <pt x="452" y="-2" on="1"/>
        <pt x="451" y="-13" on="0"/>
        <pt x="450" y="-45" on="0"/>
        <pt x="450" y="-65" on="1"/>
        <pt x="450" y="-80" on="0"/>
        <pt x="451" y="-109" on="0"/>
        <pt x="452" y="-120" on="1"/>
        <pt x="453" y="-133" on="0"/>
        <pt x="455" y="-145" on="1"/>
        <pt x="445" y="-145" on="1"/>
        <pt x="419" y="-122" on="0"/>
        <pt x="380" y="-49" on="0"/>
        <pt x="380" y="0" on="1"/>
        <pt x="75" y="0" on="1"/>
        <pt x="75" y="-49" on="0"/>
        <pt x="36" y="-122" on="0"/>
        <pt x="10" y="-145" on="1"/>
        <pt x="0" y="-145" on="1"/>
        <pt x="1" y="-133" on="0"/>
        <pt x="2" y="-120" on="1"/>
        <pt x="3" y="-109" on="0"/>
        <pt x="5" y="-80" on="0"/>
        <pt x="5" y="-65" on="1"/>
        <pt x="5" y="-45" on="0"/>
        <pt x="3" y="-13" on="0"/>
        <pt x="2" y="-2" on="1"/>
        <pt x="1" y="10" on="0"/>
        <pt x="0" y="20" on="1"/>
      </contour>
      <contour>
        <pt x="300" y="20" on="1"/>
        <pt x="300" y="440" on="1"/>
        <pt x="165" y="440" on="1"/>
        <pt x="165" y="300" on="1"/>
        <pt x="165" y="228" on="0"/>
        <pt x="141" y="124" on="0"/>
        <pt x="127" y="89" on="1"/>
        <pt x="110" y="49" on="0"/>
        <pt x="89" y="20" on="1"/>
      </contour>
    </TTGlyph>
    <TTGlyph name="afii10070" xMin="45" yMin="-15" xMax="405" yMax="475">
      <contour>
        <pt x="135" y="230" on="1"/>
        <pt x="135" y="166" on="0"/>
        <pt x="154" y="80" on="0"/>
        <pt x="185" y="27" on="0"/>
        <pt x="224" y="5" on="0"/>
        <pt x="245" y="5" on="1"/>
        <pt x="271" y="5" on="0"/>
        <pt x="317" y="25" on="0"/>
        <pt x="353" y="59" on="0"/>
        <pt x="376" y="107" on="0"/>
        <pt x="380" y="135" on="1"/>
        <pt x="395" y="135" on="1"/>
        <pt x="391" y="103" on="0"/>
        <pt x="364" y="48" on="0"/>
        <pt x="322" y="8" on="0"/>
        <pt x="267" y="-15" on="0"/>
        <pt x="235" y="-15" on="1"/>
        <pt x="197" y="-15" on="0"/>
        <pt x="129" y="18" on="0"/>
        <pt x="76" y="81" on="0"/>
        <pt x="45" y="172" on="0"/>
        <pt x="45" y="230" on="1"/>
        <pt x="45" y="290" on="0"/>
        <pt x="75" y="382" on="0"/>
        <pt x="124" y="443" on="0"/>
        <pt x="189" y="475" on="0"/>
        <pt x="225" y="475" on="1"/>
        <pt x="261" y="475" on="0"/>
        <pt x="326" y="443" on="0"/>
        <pt x="375" y="382" on="0"/>
        <pt x="405" y="290" on="0"/>
        <pt x="405" y="230" on="1"/>
      </contour>
      <contour>
        <pt x="225" y="460" on="1"/>
        <pt x="210" y="460" on="0"/>
        <pt x="180" y="441" on="0"/>
        <pt x="154" y="393" on="0"/>
        <pt x="137" y="312" on="0"/>
        <pt x="135" y="250" on="1"/>
        <pt x="315" y="250" on="1"/>
        <pt x="313" y="312" on="0"/>
        <pt x="296" y="393" on="0"/>
        <pt x="270" y="441" on="0"/>
        <pt x="240" y="460" on="0"/>
      </contour>
    </TTGlyph>
    <TTGlyph name="afii10071" xMin="45" yMin="-15" xMax="405" yMax="620">
      <contour>
        <pt x="135" y="230" on="1"/>
        <pt x="135" y="166" on="0"/>
        <pt x="154" y="80" on="0"/>
        <pt x="185" y="27" on="0"/>
        <pt x="224" y="5" on="0"/>
        <pt x="245" y="5" on="1"/>
        <pt x="271" y="5" on="0"/>
        <pt x="317" y="25" on="0"/>
        <pt x="353" y="59" on="0"/>
        <pt x="376" y="107" on="0"/>
        <pt x="380" y="135" on="1"/>
        <pt x="395" y="135" on="1"/>
        <pt x="391" y="103" on="0"/>
        <pt x="364" y="48" on="0"/>
        <pt x="322" y="8" on="0"/>
        <pt x="267" y="-15" on="0"/>
        <pt x="235" y="-15" on="1"/>
        <pt x="197" y="-15" on="0"/>
        <pt x="129" y="18" on="0"/>
        <pt x="76" y="81" on="0"/>
        <pt x="45" y="172" on="0"/>
        <pt x="45" y="230" on="1"/>
        <pt x="45" y="290" on="0"/>
        <pt x="75" y="382" on="0"/>
        <pt x="124" y="443" on="0"/>
        <pt x="189" y="475" on="0"/>
        <pt x="225" y="475" on="1"/>
        <pt x="261" y="475" on="0"/>
        <pt x="326" y="443" on="0"/>
        <pt x="375" y="382" on="0"/>
        <pt x="405" y="290" on="0"/>
        <pt x="405" y="230" on="1"/>
      </contour>
      <contour>
        <pt x="225" y="460" on="1"/>
        <pt x="210" y="460" on="0"/>
        <pt x="180" y="441" on="0"/>
        <pt x="154" y="393" on="0"/>
        <pt x="137" y="312" on="0"/>
        <pt x="135" y="250" on="1"/>
        <pt x="315" y="250" on="1"/>
        <pt x="313" y="312" on="0"/>
        <pt x="296" y="393" on="0"/>
        <pt x="270" y="441" on="0"/>
        <pt x="240" y="460" on="0"/>
      </contour>
      <contour>
        <pt x="195" y="570" on="1"/>
        <pt x="195" y="551" on="0"/>
        <pt x="164" y="520" on="0"/>
        <pt x="145" y="520" on="1"/>
        <pt x="126" y="520" on="0"/>
        <pt x="95" y="551" on="0"/>
        <pt x="95" y="570" on="1"/>
        <pt x="95" y="589" on="0"/>
        <pt x="126" y="620" on="0"/>
        <pt x="145" y="620" on="1"/>
        <pt x="164" y="620" on="0"/>
        <pt x="195" y="589" on="0"/>
      </contour>
      <contour>
        <pt x="360" y="570" on="1"/>
        <pt x="360" y="551" on="0"/>
        <pt x="329" y="520" on="0"/>
        <pt x="310" y="520" on="1"/>
        <pt x="291" y="520" on="0"/>
        <pt x="260" y="551" on="0"/>
        <pt x="260" y="570" on="1"/>
        <pt x="260" y="589" on="0"/>
        <pt x="291" y="620" on="0"/>
        <pt x="310" y="620" on="1"/>
        <pt x="329" y="620" on="0"/>
        <pt x="360" y="589" on="0"/>
      </contour>
    </TTGlyph>
    <TTGlyph name="afii10072" xMin="-15" yMin="0" xMax="675" yMax="470">
      <contour>
        <pt x="230" y="460" on="1"/>
        <pt x="430" y="460" on="1"/>
        <pt x="430" y="450" on="1"/>
        <pt x="370" y="435" on="1"/>
        <pt x="370" y="180" on="1"/>
        <pt x="460" y="340" on="1"/>
        <pt x="483" y="381" on="0"/>
        <pt x="515" y="432" on="0"/>
        <pt x="540" y="460" on="0"/>
        <pt x="562" y="470" on="0"/>
        <pt x="575" y="470" on="1"/>
        <pt x="579" y="470" on="0"/>
        <pt x="587" y="468" on="0"/>
        <pt x="591" y="467" on="1"/>
        <pt x="595" y="466" on="0"/>
        <pt x="600" y="465" on="1"/>
        <pt x="615" y="395" on="1"/>
        <pt x="609" y="396" on="0"/>
        <pt x="603" y="397" on="1"/>
        <pt x="598" y="398" on="0"/>
        <pt x="585" y="400" on="0"/>
        <pt x="580" y="400" on="1"/>
        <pt x="538" y="400" on="0"/>
        <pt x="497" y="370" on="0"/>
        <pt x="480" y="340" on="1"/>
        <pt x="452" y="290" on="1"/>
        <pt x="615" y="25" on="1"/>
        <pt x="675" y="10" on="1"/>
        <pt x="675" y="0" on="1"/>
        <pt x="474" y="0" on="1"/>
        <pt x="474" y="10" on="1"/>
        <pt x="529" y="25" on="1"/>
        <pt x="411" y="217" on="1"/>
        <pt x="370" y="145" on="1"/>
        <pt x="370" y="25" on="1"/>
        <pt x="425" y="10" on="1"/>
        <pt x="425" y="0" on="1"/>
        <pt x="235" y="0" on="1"/>
        <pt x="235" y="10" on="1"/>
        <pt x="290" y="25" on="1"/>
        <pt x="290" y="145" on="1"/>
        <pt x="249" y="217" on="1"/>
        <pt x="131" y="25" on="1"/>
        <pt x="186" y="10" on="1"/>
        <pt x="186" y="0" on="1"/>
        <pt x="-15" y="0" on="1"/>
        <pt x="-15" y="10" on="1"/>
        <pt x="45" y="25" on="1"/>
        <pt x="208" y="290" on="1"/>
        <pt x="180" y="340" on="1"/>
        <pt x="163" y="370" on="0"/>
        <pt x="122" y="400" on="0"/>
        <pt x="80" y="400" on="1"/>
        <pt x="74" y="400" on="0"/>
        <pt x="62" y="398" on="0"/>
        <pt x="57" y="397" on="1"/>
        <pt x="51" y="396" on="0"/>
        <pt x="45" y="395" on="1"/>
        <pt x="60" y="465" on="1"/>
        <pt x="65" y="466" on="0"/>
        <pt x="69" y="467" on="1"/>
        <pt x="73" y="468" on="0"/>
        <pt x="81" y="470" on="0"/>
        <pt x="85" y="470" on="1"/>
        <pt x="98" y="470" on="0"/>
        <pt x="120" y="460" on="0"/>
        <pt x="145" y="432" on="0"/>
        <pt x="177" y="381" on="0"/>
        <pt x="200" y="340" on="1"/>
        <pt x="290" y="180" on="1"/>
        <pt x="290" y="435" on="1"/>
        <pt x="230" y="450" on="1"/>
      </contour>
    </TTGlyph>
    <TTGlyph name="afii10073" xMin="25" yMin="-15" xMax="370" yMax="475">
      <contour>
        <pt x="170" y="5" on="1"/>
        <pt x="219" y="5" on="0"/>
        <pt x="280" y="68" on="0"/>
        <pt x="280" y="125" on="1"/>
        <pt x="280" y="182" on="0"/>
        <pt x="219" y="245" on="0"/>
        <pt x="170" y="245" on="1"/>
        <pt x="150" y="245" on="1"/>
        <pt x="150" y="265" on="1"/>
        <pt x="170" y="265" on="1"/>
        <pt x="215" y="265" on="0"/>
        <pt x="265" y="315" on="0"/>
        <pt x="265" y="360" on="1"/>
        <pt x="265" y="405" on="0"/>
        <pt x="221" y="455" on="0"/>
        <pt x="195" y="455" on="1"/>
        <pt x="157" y="455" on="0"/>
        <pt x="84" y="377" on="0"/>
        <pt x="65" y="305" on="1"/>
        <pt x="50" y="305" on="1"/>
        <pt x="51" y="318" on="0"/>
        <pt x="52" y="332" on="1"/>
        <pt x="53" y="344" on="0"/>
        <pt x="55" y="375" on="0"/>
        <pt x="55" y="390" on="1"/>
        <pt x="55" y="403" on="0"/>
        <pt x="53" y="431" on="0"/>
        <pt x="52" y="443" on="1"/>
        <pt x="51" y="457" on="0"/>
        <pt x="50" y="470" on="1"/>
        <pt x="65" y="470" on="1"/>
        <pt x="76" y="466" on="0"/>
        <pt x="101" y="440" on="0"/>
        <pt x="105" y="425" on="1"/>
        <pt x="116" y="439" on="0"/>
        <pt x="131" y="450" on="1"/>
        <pt x="144" y="459" on="0"/>
        <pt x="180" y="475" on="0"/>
        <pt x="205" y="475" on="1"/>
        <pt x="237" y="475" on="0"/>
        <pt x="289" y="456" on="0"/>
        <pt x="325" y="424" on="0"/>
        <pt x="345" y="382" on="0"/>
        <pt x="345" y="360" on="1"/>
        <pt x="345" y="324" on="0"/>
        <pt x="303" y="283" on="0"/>
        <pt x="277" y="272" on="1"/>
        <pt x="247" y="260" on="0"/>
        <pt x="210" y="255" on="1"/>
        <pt x="255" y="250" on="0"/>
        <pt x="290" y="235" on="1"/>
        <pt x="305" y="228" on="0"/>
        <pt x="334" y="209" on="0"/>
        <pt x="356" y="182" on="0"/>
        <pt x="370" y="147" on="0"/>
        <pt x="370" y="125" on="1"/>
        <pt x="370" y="97" on="0"/>
        <pt x="346" y="46" on="0"/>
        <pt x="298" y="8" on="0"/>
        <pt x="227" y="-15" on="0"/>
        <pt x="180" y="-15" on="1"/>
        <pt x="144" y="-15" on="0"/>
        <pt x="87" y="6" on="0"/>
        <pt x="47" y="40" on="0"/>
        <pt x="25" y="86" on="0"/>
        <pt x="25" y="110" on="1"/>
        <pt x="25" y="159" on="0"/>
        <pt x="70" y="210" on="0"/>
        <pt x="100" y="210" on="1"/>
        <pt x="108" y="210" on="0"/>
        <pt x="118" y="208" on="0"/>
        <pt x="122" y="207" on="1"/>
        <pt x="126" y="206" on="0"/>
        <pt x="130" y="205" on="1"/>
        <pt x="110" y="140" on="1"/>
        <pt x="76" y="140" on="0"/>
        <pt x="45" y="113" on="0"/>
        <pt x="45" y="90" on="1"/>
        <pt x="45" y="77" on="0"/>
        <pt x="63" y="47" on="0"/>
        <pt x="96" y="22" on="0"/>
        <pt x="142" y="5" on="0"/>
      </contour>
    </TTGlyph>
    <TTGlyph name="afii10074" xMin="35" yMin="0" xMax="490" yMax="460">
      <contour>
        <pt x="295" y="450" on="1"/>
        <pt x="295" y="460" on="1"/>
        <pt x="490" y="460" on="1"/>
        <pt x="490" y="450" on="1"/>
        <pt x="430" y="435" on="1"/>
        <pt x="430" y="25" on="1"/>
        <pt x="490" y="10" on="1"/>
        <pt x="490" y="0" on="1"/>
        <pt x="295" y="0" on="1"/>
        <pt x="295" y="10" on="1"/>
        <pt x="350" y="25" on="1"/>
        <pt x="350" y="355" on="1"/>
        <pt x="175" y="85" on="1"/>
        <pt x="175" y="25" on="1"/>
        <pt x="230" y="10" on="1"/>
        <pt x="230" y="0" on="1"/>
        <pt x="35" y="0" on="1"/>
        <pt x="35" y="10" on="1"/>
        <pt x="95" y="25" on="1"/>
        <pt x="95" y="435" on="1"/>
        <pt x="35" y="450" on="1"/>
        <pt x="35" y="460" on="1"/>
        <pt x="230" y="460" on="1"/>
        <pt x="230" y="450" on="1"/>
        <pt x="175" y="435" on="1"/>
        <pt x="175" y="120" on="1"/>
        <pt x="350" y="390" on="1"/>
        <pt x="350" y="435" on="1"/>
      </contour>
    </TTGlyph>
    <TTGlyph name="afii10075" xMin="35" yMin="0" xMax="490" yMax="625">
      <contour>
        <pt x="265" y="535" on="1"/>
        <pt x="284" y="535" on="0"/>
        <pt x="310" y="564" on="0"/>
        <pt x="310" y="590" on="1"/>
        <pt x="310" y="598" on="0"/>
        <pt x="308" y="610" on="0"/>
        <pt x="307" y="615" on="1"/>
        <pt x="306" y="620" on="0"/>
        <pt x="305" y="625" on="1"/>
        <pt x="370" y="625" on="1"/>
        <pt x="371" y="622" on="0"/>
        <pt x="372" y="618" on="1"/>
        <pt x="373" y="615" on="0"/>
        <pt x="375" y="605" on="0"/>
        <pt x="375" y="600" on="1"/>
        <pt x="375" y="566" on="0"/>
        <pt x="322" y="520" on="0"/>
        <pt x="265" y="520" on="1"/>
        <pt x="208" y="520" on="0"/>
        <pt x="155" y="566" on="0"/>
        <pt x="155" y="600" on="1"/>
        <pt x="155" y="610" on="0"/>
        <pt x="157" y="618" on="1"/>
        <pt x="158" y="622" on="0"/>
        <pt x="160" y="625" on="1"/>
        <pt x="225" y="625" on="1"/>
        <pt x="223" y="620" on="0"/>
        <pt x="222" y="615" on="1"/>
        <pt x="221" y="610" on="0"/>
        <pt x="220" y="598" on="0"/>
        <pt x="220" y="590" on="1"/>
        <pt x="220" y="564" on="0"/>
        <pt x="246" y="535" on="0"/>
      </contour>
      <contour>
        <pt x="295" y="450" on="1"/>
        <pt x="295" y="460" on="1"/>
        <pt x="490" y="460" on="1"/>
        <pt x="490" y="450" on="1"/>
        <pt x="430" y="435" on="1"/>
        <pt x="430" y="25" on="1"/>
        <pt x="490" y="10" on="1"/>
        <pt x="490" y="0" on="1"/>
        <pt x="295" y="0" on="1"/>
        <pt x="295" y="10" on="1"/>
        <pt x="350" y="25" on="1"/>
        <pt x="350" y="355" on="1"/>
        <pt x="175" y="85" on="1"/>
        <pt x="175" y="25" on="1"/>
        <pt x="230" y="10" on="1"/>
        <pt x="230" y="0" on="1"/>
        <pt x="35" y="0" on="1"/>
        <pt x="35" y="10" on="1"/>
        <pt x="95" y="25" on="1"/>
        <pt x="95" y="435" on="1"/>
        <pt x="35" y="450" on="1"/>
        <pt x="35" y="460" on="1"/>
        <pt x="230" y="460" on="1"/>
        <pt x="230" y="450" on="1"/>
        <pt x="175" y="435" on="1"/>
        <pt x="175" y="120" on="1"/>
        <pt x="350" y="390" on="1"/>
        <pt x="350" y="435" on="1"/>
      </contour>
    </TTGlyph>
    <TTGlyph name="afii10076" xMin="35" yMin="0" xMax="485" yMax="470">
      <contour>
        <pt x="219" y="221" on="1"/>
        <pt x="175" y="145" on="1"/>
        <pt x="175" y="25" on="1"/>
        <pt x="230" y="10" on="1"/>
        <pt x="230" y="0" on="1"/>
        <pt x="35" y="0" on="1"/>
        <pt x="35" y="10" on="1"/>
        <pt x="95" y="25" on="1"/>
        <pt x="95" y="435" on="1"/>
        <pt x="35" y="450" on="1"/>
        <pt x="35" y="460" on="1"/>
        <pt x="240" y="460" on="1"/>
        <pt x="240" y="450" on="1"/>
        <pt x="175" y="435" on="1"/>
        <pt x="175" y="180" on="1"/>
        <pt x="265" y="340" on="1"/>
        <pt x="288" y="381" on="0"/>
        <pt x="320" y="432" on="0"/>
        <pt x="345" y="460" on="0"/>
        <pt x="367" y="470" on="0"/>
        <pt x="380" y="470" on="1"/>
        <pt x="385" y="470" on="0"/>
        <pt x="395" y="468" on="0"/>
        <pt x="398" y="467" on="1"/>
        <pt x="402" y="466" on="0"/>
        <pt x="405" y="465" on="1"/>
        <pt x="420" y="395" on="1"/>
        <pt x="414" y="396" on="0"/>
        <pt x="408" y="397" on="1"/>
        <pt x="403" y="398" on="0"/>
        <pt x="390" y="400" on="0"/>
        <pt x="385" y="400" on="1"/>
        <pt x="344" y="400" on="0"/>
        <pt x="302" y="370" on="0"/>
        <pt x="285" y="340" on="1"/>
        <pt x="260" y="296" on="1"/>
        <pt x="425" y="25" on="1"/>
        <pt x="485" y="10" on="1"/>
        <pt x="485" y="0" on="1"/>
        <pt x="283" y="0" on="1"/>
        <pt x="283" y="10" on="1"/>
        <pt x="338" y="25" on="1"/>
      </contour>
    </TTGlyph>
    <TTGlyph name="afii10077" xMin="-10" yMin="-20" xMax="425" yMax="460">
      <contour>
        <pt x="55" y="460" on="1"/>
        <pt x="425" y="460" on="1"/>
        <pt x="425" y="450" on="1"/>
        <pt x="365" y="435" on="1"/>
        <pt x="365" y="25" on="1"/>
        <pt x="425" y="10" on="1"/>
        <pt x="425" y="0" on="1"/>
        <pt x="225" y="0" on="1"/>
        <pt x="225" y="10" on="1"/>
        <pt x="285" y="25" on="1"/>
        <pt x="285" y="440" on="1"/>
        <pt x="140" y="440" on="1"/>
        <pt x="140" y="300" on="1"/>
        <pt x="140" y="199" on="0"/>
        <pt x="123" y="73" on="0"/>
        <pt x="94" y="4" on="0"/>
        <pt x="56" y="-20" on="0"/>
        <pt x="35" y="-20" on="1"/>
        <pt x="29" y="-20" on="0"/>
        <pt x="19" y="-19" on="0"/>
        <pt x="14" y="-18" on="1"/>
        <pt x="9" y="-17" on="0"/>
        <pt x="5" y="-15" on="1"/>
        <pt x="-10" y="55" on="1"/>
        <pt x="-5" y="53" on="0"/>
        <pt x="0" y="52" on="1"/>
        <pt x="5" y="51" on="0"/>
        <pt x="15" y="50" on="0"/>
        <pt x="20" y="50" on="1"/>
        <pt x="41" y="50" on="0"/>
        <pt x="77" y="70" on="0"/>
        <pt x="104" y="126" on="0"/>
        <pt x="120" y="223" on="0"/>
        <pt x="120" y="300" on="1"/>
        <pt x="120" y="430" on="1"/>
        <pt x="55" y="450" on="1"/>
      </contour>
    </TTGlyph>
    <TTGlyph name="afii10078" xMin="25" yMin="-15" xMax="605" yMax="460">
      <contour>
        <pt x="25" y="460" on="1"/>
        <pt x="165" y="460" on="1"/>
        <pt x="330" y="97" on="1"/>
        <pt x="470" y="460" on="1"/>
        <pt x="605" y="460" on="1"/>
        <pt x="605" y="450" on="1"/>
        <pt x="545" y="435" on="1"/>
        <pt x="545" y="25" on="1"/>
        <pt x="605" y="10" on="1"/>
        <pt x="605" y="0" on="1"/>
        <pt x="410" y="0" on="1"/>
        <pt x="410" y="10" on="1"/>
        <pt x="465" y="25" on="1"/>
        <pt x="465" y="390" on="1"/>
        <pt x="309" y="-15" on="1"/>
        <pt x="294" y="-15" on="1"/>
        <pt x="110" y="390" on="1"/>
        <pt x="110" y="35" on="1"/>
        <pt x="175" y="10" on="1"/>
        <pt x="175" y="0" on="1"/>
        <pt x="25" y="0" on="1"/>
        <pt x="25" y="10" on="1"/>
        <pt x="90" y="35" on="1"/>
        <pt x="90" y="430" on="1"/>
        <pt x="25" y="450" on="1"/>
      </contour>
    </TTGlyph>
    <TTGlyph name="afii10079" xMin="35" yMin="0" xMax="485" yMax="460">
      <contour>
        <pt x="290" y="450" on="1"/>
        <pt x="290" y="460" on="1"/>
        <pt x="485" y="460" on="1"/>
        <pt x="485" y="450" on="1"/>
        <pt x="425" y="435" on="1"/>
        <pt x="425" y="25" on="1"/>
        <pt x="485" y="10" on="1"/>
        <pt x="485" y="0" on="1"/>
        <pt x="290" y="0" on="1"/>
        <pt x="290" y="10" on="1"/>
        <pt x="345" y="25" on="1"/>
        <pt x="345" y="230" on="1"/>
        <pt x="175" y="230" on="1"/>
        <pt x="175" y="25" on="1"/>
        <pt x="230" y="10" on="1"/>
        <pt x="230" y="0" on="1"/>
        <pt x="35" y="0" on="1"/>
        <pt x="35" y="10" on="1"/>
        <pt x="95" y="25" on="1"/>
        <pt x="95" y="435" on="1"/>
        <pt x="35" y="450" on="1"/>
        <pt x="35" y="460" on="1"/>
        <pt x="230" y="460" on="1"/>
        <pt x="230" y="450" on="1"/>
        <pt x="175" y="435" on="1"/>
        <pt x="175" y="250" on="1"/>
        <pt x="345" y="250" on="1"/>
        <pt x="345" y="435" on="1"/>
      </contour>
    </TTGlyph>
    <TTGlyph name="afii10080" xMin="45" yMin="-15" xMax="425" yMax="475">
      <contour>
        <pt x="235" y="460" on="1"/>
        <pt x="218" y="460" on="0"/>
        <pt x="183" y="437" on="0"/>
        <pt x="154" y="384" on="0"/>
        <pt x="135" y="296" on="0"/>
        <pt x="135" y="230" on="1"/>
        <pt x="135" y="164" on="0"/>
        <pt x="154" y="76" on="0"/>
        <pt x="183" y="23" on="0"/>
        <pt x="218" y="0" on="0"/>
        <pt x="235" y="0" on="1"/>
        <pt x="252" y="0" on="0"/>
        <pt x="287" y="23" on="0"/>
        <pt x="316" y="76" on="0"/>
        <pt x="335" y="164" on="0"/>
        <pt x="335" y="230" on="1"/>
        <pt x="335" y="296" on="0"/>
        <pt x="316" y="384" on="0"/>
        <pt x="287" y="437" on="0"/>
        <pt x="252" y="460" on="0"/>
      </contour>
      <contour>
        <pt x="235" y="475" on="1"/>
        <pt x="272" y="475" on="0"/>
        <pt x="341" y="442" on="0"/>
        <pt x="394" y="379" on="0"/>
        <pt x="425" y="288" on="0"/>
        <pt x="425" y="230" on="1"/>
        <pt x="425" y="172" on="0"/>
        <pt x="394" y="81" on="0"/>
        <pt x="341" y="18" on="0"/>
        <pt x="272" y="-15" on="0"/>
        <pt x="235" y="-15" on="1"/>
        <pt x="197" y="-15" on="0"/>
        <pt x="129" y="18" on="0"/>
        <pt x="76" y="81" on="0"/>
        <pt x="45" y="172" on="0"/>
        <pt x="45" y="230" on="1"/>
        <pt x="45" y="288" on="0"/>
        <pt x="76" y="379" on="0"/>
        <pt x="129" y="442" on="0"/>
        <pt x="197" y="475" on="0"/>
      </contour>
    </TTGlyph>
    <TTGlyph name="afii10081" xMin="35" yMin="0" xMax="485" yMax="460">
      <contour>
        <pt x="35" y="460" on="1"/>
        <pt x="485" y="460" on="1"/>
        <pt x="485" y="450" on="1"/>
        <pt x="425" y="435" on="1"/>
        <pt x="425" y="25" on="1"/>
        <pt x="485" y="10" on="1"/>
        <pt x="485" y="0" on="1"/>
        <pt x="290" y="0" on="1"/>
        <pt x="290" y="10" on="1"/>
        <pt x="345" y="25" on="1"/>
        <pt x="345" y="440" on="1"/>
        <pt x="175" y="440" on="1"/>
        <pt x="175" y="25" on="1"/>
        <pt x="230" y="10" on="1"/>
        <pt x="230" y="0" on="1"/>
        <pt x="35" y="0" on="1"/>
        <pt x="35" y="10" on="1"/>
        <pt x="95" y="25" on="1"/>
        <pt x="95" y="435" on="1"/>
        <pt x="35" y="450" on="1"/>
      </contour>
    </TTGlyph>
    <TTGlyph name="afii10082" xMin="25" yMin="-240" xMax="455" yMax="475">
      <contour>
        <pt x="85" y="435" on="1"/>
        <pt x="25" y="450" on="1"/>
        <pt x="25" y="460" on="1"/>
        <pt x="165" y="460" on="1"/>
        <pt x="165" y="400" on="1"/>
        <pt x="175" y="420" on="0"/>
        <pt x="192" y="437" on="1"/>
        <pt x="206" y="451" on="0"/>
        <pt x="250" y="475" on="0"/>
        <pt x="280" y="475" on="1"/>
        <pt x="312" y="475" on="0"/>
        <pt x="375" y="442" on="0"/>
        <pt x="424" y="379" on="0"/>
        <pt x="455" y="288" on="0"/>
        <pt x="455" y="230" on="1"/>
        <pt x="455" y="172" on="0"/>
        <pt x="424" y="81" on="0"/>
        <pt x="372" y="18" on="0"/>
        <pt x="306" y="-15" on="0"/>
        <pt x="270" y="-15" on="1"/>
        <pt x="241" y="-15" on="0"/>
        <pt x="202" y="0" on="0"/>
        <pt x="189" y="10" on="1"/>
        <pt x="174" y="21" on="0"/>
        <pt x="165" y="35" on="1"/>
        <pt x="165" y="-215" on="1"/>
        <pt x="225" y="-230" on="1"/>
        <pt x="225" y="-240" on="1"/>
        <pt x="25" y="-240" on="1"/>
        <pt x="25" y="-230" on="1"/>
        <pt x="85" y="-215" on="1"/>
      </contour>
      <contour>
        <pt x="255" y="5" on="1"/>
        <pt x="276" y="5" on="0"/>
        <pt x="315" y="27" on="0"/>
        <pt x="346" y="80" on="0"/>
        <pt x="365" y="166" on="0"/>
        <pt x="365" y="230" on="1"/>
        <pt x="365" y="294" on="0"/>
        <pt x="346" y="380" on="0"/>
        <pt x="317" y="432" on="0"/>
        <pt x="282" y="455" on="0"/>
        <pt x="265" y="455" on="1"/>
        <pt x="240" y="455" on="0"/>
        <pt x="204" y="427" on="0"/>
        <pt x="191" y="410" on="1"/>
        <pt x="176" y="390" on="0"/>
        <pt x="165" y="365" on="1"/>
        <pt x="165" y="65" on="1"/>
        <pt x="174" y="48" on="0"/>
        <pt x="187" y="35" on="1"/>
        <pt x="198" y="24" on="0"/>
        <pt x="232" y="5" on="0"/>
      </contour>
    </TTGlyph>
    <TTGlyph name="afii10083" xMin="45" yMin="-15" xMax="400" yMax="475">
      <contour>
        <pt x="240" y="455" on="1"/>
        <pt x="221" y="455" on="0"/>
        <pt x="184" y="432" on="0"/>
        <pt x="154" y="380" on="0"/>
        <pt x="135" y="294" on="0"/>
        <pt x="135" y="230" on="1"/>
        <pt x="135" y="166" on="0"/>
        <pt x="154" y="80" on="0"/>
        <pt x="186" y="27" on="0"/>
        <pt x="227" y="5" on="0"/>
        <pt x="250" y="5" on="1"/>
        <pt x="276" y="5" on="0"/>
        <pt x="322" y="25" on="0"/>
        <pt x="358" y="59" on="0"/>
        <pt x="381" y="107" on="0"/>
        <pt x="385" y="135" on="1"/>
        <pt x="400" y="135" on="1"/>
        <pt x="396" y="103" on="0"/>
        <pt x="369" y="48" on="0"/>
        <pt x="327" y="8" on="0"/>
        <pt x="272" y="-15" on="0"/>
        <pt x="240" y="-15" on="1"/>
        <pt x="201" y="-15" on="0"/>
        <pt x="130" y="18" on="0"/>
        <pt x="76" y="81" on="0"/>
        <pt x="45" y="172" on="0"/>
        <pt x="45" y="230" on="1"/>
        <pt x="45" y="288" on="0"/>
        <pt x="76" y="379" on="0"/>
        <pt x="128" y="442" on="0"/>
        <pt x="194" y="475" on="0"/>
        <pt x="230" y="475" on="1"/>
        <pt x="254" y="475" on="0"/>
        <pt x="291" y="459" on="0"/>
        <pt x="304" y="450" on="1"/>
        <pt x="319" y="439" on="0"/>
        <pt x="330" y="425" on="1"/>
        <pt x="334" y="440" on="0"/>
        <pt x="359" y="466" on="0"/>
        <pt x="370" y="470" on="1"/>
        <pt x="385" y="470" on="1"/>
        <pt x="383" y="457" on="0"/>
        <pt x="382" y="443" on="1"/>
        <pt x="381" y="431" on="0"/>
        <pt x="380" y="403" on="0"/>
        <pt x="380" y="390" on="1"/>
        <pt x="380" y="375" on="0"/>
        <pt x="381" y="344" on="0"/>
        <pt x="382" y="332" on="1"/>
        <pt x="383" y="318" on="0"/>
        <pt x="385" y="305" on="1"/>
        <pt x="370" y="305" on="1"/>
        <pt x="351" y="377" on="0"/>
        <pt x="278" y="455" on="0"/>
      </contour>
    </TTGlyph>
</ttFont>
